<mxfile host="Electron" agent="Mozilla/5.0 (Windows NT 10.0; Win64; x64) AppleWebKit/537.36 (KHTML, like Gecko) draw.io/26.0.4 Chrome/128.0.6613.186 Electron/32.2.5 Safari/537.36" version="26.0.4">
  <diagram name="Página-1" id="WU_5ZLlTy2gn3s3kZb5F">
    <mxGraphModel dx="956" dy="460" grid="1" gridSize="10" guides="1" tooltips="1" connect="1" arrows="1" fold="1" page="1" pageScale="1" pageWidth="4681" pageHeight="3300" math="1" shadow="0">
      <root>
        <mxCell id="0" />
        <mxCell id="1" parent="0" />
        <mxCell id="yAmNTWqrZYA3S9iadCmw-14" value="" style="group" vertex="1" connectable="0" parent="1">
          <mxGeometry x="640" y="260" width="432.99" height="523.16" as="geometry" />
        </mxCell>
        <mxCell id="yAmNTWqrZYA3S9iadCmw-4" value="" style="group" vertex="1" connectable="0" parent="yAmNTWqrZYA3S9iadCmw-14">
          <mxGeometry y="270" width="432.99" height="140" as="geometry" />
        </mxCell>
        <mxCell id="yAmNTWqrZYA3S9iadCmw-2" value="Equação trabalho compressor:" style="rounded=0;whiteSpace=wrap;html=1;" vertex="1" parent="yAmNTWqrZYA3S9iadCmw-4">
          <mxGeometry x="1.4950000000000045" width="430" height="60" as="geometry" />
        </mxCell>
        <mxCell id="yAmNTWqrZYA3S9iadCmw-3" value="" style="shape=image;verticalLabelPosition=bottom;labelBackgroundColor=default;verticalAlign=top;aspect=fixed;imageAspect=0;image=data:image/png,iVBORw0KGgoAAAANSUhEUgAAAg0AAABhCAYAAABVsZKcAAAAAXNSR0IArs4c6QAAAARnQU1BAACxjwv8YQUAAAAJcEhZcwAADsMAAA7DAcdvqGQAADDZSURBVHhe7Z13fBP1/8dfMr4CnexSyt57lz1FhgxRBERZCoIMWSKIoCwBEUERwYHIUkChouy9N2VDoexS2jKlSVpAZPz+eCW/S65Jekmu+/18PO4h9i7J5XL3+bw+7/nCc2Or53h6BcAzCIIgCIIgOOKF54bg53gSKqJBEARBEASnZFL/QRAEQRAEwR4iGgRBEARB0ISIBkEQBEEQNCGiQRAEQRAETYhoEARBEARBEyIaBEHIkBiMwPHTwLkLwL//8m/Xbyj/FgQhIZJyKQhChiIiEliwlP+NuQX8739A2VJAtheB7NmA3t2AfHnVrxIEAWJpEAQhI3EqDJgyk6LhvgF4qRHQshlwNQKYtxg4fBx4JJYGQXCIiAZBEDIEEZHAjDnA0hCgb0/gs4+AD/oCA3sD3l6AKQ4IKgC8+KL6lYIgWBD3hJCA+7HA5WvA3XvAP/eBDm2AHNnVRwkAEGsAtu8BHjxQ77GPnx/QrCHglUO9xzMiIvkb5coJZM6s3pt2OHUWyJsHyJdH/++x4DdgzGQgT24gZBFQqriyr82bwNZdwJjhwKA+vI6CdvYfZjzIkyfqPfapWwsoUgjIkkW9R3CXqGjg4hXgwUOgYAEgIB/v46xZ1Ud6hogG4f+5GgFs3gEcOQ5ERgHFiwL1g4GO7YDsIhrscvYcMGgUcPOOeo99KpQBvvuSD7ReREQCk2cCfboD1SrpP0gkJ4uXAzeigU6v8v7TUzi81h3YsA2YNBp4rwfg76fsa/AKcPAI8PO3/GxHos5gBLy8gCw6nld6YNgYYMde4N/H6j32mTmJ4lmsOvpx9x5w+BiwaTsQFcMYnbKlgdfaAKVL6DcuiHtCAAAcOwWM+wKYNgtYuAwICgTatABaNweyZVMfLViIi6e6P3+B26OHwNMnjrds2YBML6jfxX0sgiH+AZDLX99JNiWoVgXYewiY/h1w8TLw9Kn6CPc4HQacPc/MiPq1AV8f23237wJPn9H6oL7fDUZg9QZg1AQg/CLwTKdzSk/cj+W1Vd/v1tv9+8Al87Py4KH6HQRPyZMbCK4OtG8N5PQHNm4HZv0AjJ4IHD0B/Pef+hXuIZYGAfdjgX7DgdUb+eA3awjMmgqUK532J6Gk5lAo0LEXlX3VisDgvoC/v/oohfx5gepVuArwFItgCAsHJn1Cq9D//qc+yjGxBuD4KeD8RaBAANC8MX37ML936HHg5m3A25sWjLKlXHt/d1nyBzDrR6BKReCjgUCpEp7fh6s30CIUGQWc2MX3/v99G4EPRtG8fnwnULUS/24wArv28frs3AfsPgD8/jPwcpPkuQ5piV37gH9i1X+1ZeFSYNtuCtyVC4G2LcTSkFScvwhM/Rr4ez1gMNFaPHooULmC5xaHzONHFxyPZ9EAnqv3CRmELTuAr7/nqhkAJo4GGtSRgVELUdHAH38xiK5eMDCsP1CzKgWXva1QQX38uBGRwJSvgQ1bgZGDgRZNEq6QnbFmI/DTIuD3VXyPC5eBVi9x3+9/Aj8vAVaspp//UChwJQJ4/hwoWjjp74uSRekq+2s98L+sQNEitAxk8sAuumUXsGMPr/17PRgzYWHrTsalFC8CdOsM5M7Fvz99yt81e3bg8WPgzDmgwytACZ3dJumBooUT3uvqbd8h4PQ5ujA6d6DJXI9nQUhInty05hw+ykVhRCRQrAhQvoznrmYPHkMhvbBlp22aWa1qsgJIzcQa6EZaupKTXLuWQA4HPnh7WATDsVNA6AngWiR9oTG3gF9XAF/NATZu4yT93xPg0lXg7w3A978wMDap8fICenXliv7v9cDaTYqgdZfbd2ieDQxIuNIKPcH3L1bE9r73ykEh+GprujQkGFhIS1SpoFg9Hzzk834/EWuQFkQ0CDhwRAlg8vcDfH2BF3T0uwv6siyEVoDqlYFebwJ+vuojHBNrAK5HMSOmV1fltfHxwNIVwIYtwCvNgamfAVPGAp+OAGpU4YQbepJBVp5O4FqoVB74cACQOQuzHlat46rfU7xyAJmtRj2DEYi+RXHk6ysWBCH9kCc38KKVVfBqhD7ProgGATdvKwFnPt4iGFIzu/cD83+lN3FIP6atuWK2z5IFaNEU6N4ZqFbZdlDJkgXo3gUY2h949226K3p2YTaBjzeFxYkzwMNkCmKrVJ7xNVevAzPn0IXibmCkn1kQGEzAvft8H4ORAuzKVQbqeeXgoOruZwhCaubBA+CJDve2C8ONIAgpSUQkMHMucDYceONVoFE91+IYAAY6lirOuASDkRkDAAOkOnVgwFSB/IoQ8fKipcFimr8eCTzWKQpbCz26UDhcvsbgyItX3JvUa9dkQGd0DAPEBo9mmuDtOzTdPn1Gn/v8X5m6JgiCfUQ0CEIawBLHsG0PY076dLOtM+AOUTFKGlbTBkCJYvYD0woWUOIA/n3MgMjkolJ5oF9PntvqDcD6Le65KapVpMWkRDEWIlr+J10SbVsxtTioIAvh2Eu5FARBQUSDIKQB9h9mNkFcHF0LZUvZn+BdITpGsRqULmHrqrDmyVMlucorh3Z3iKWL5KGjwM1b7lkIAGbyBFfn6xcuAy5fdf29vLyAfr0Yp/HVRGDGJFZ/rFQO+OA9YPp4Zg29/YZrMSKCkNHQ+PgLgpBSxBpoNr9vYAxDnZqep00BrO9gaQNdsADTG+0RZSUutGIwMtvis6nA2ClM2bS4QlzFywvo1J7ZDWHhwKLlwL1/1EclTvEitCp078Ig0LKlaEGpVB5483WgcT3XslAEISOSrKLh1h0OJslp3hSEtM6yEAZAPnrEUtGFg7Sv9p0RfllJtbV2QaiJjweemSf8wkGOxYU1WTKzgNWhUNZBiPcwattibciejXUxrkS4bm3wBKMxeT9PEFIrOgw92vhpEfDxBODDT1kmVh5AQUgcgxH4bQUQa6TZvG0LZjJ4isHIifDZMwqBnP6Ohcj1KJUbQ0MNDy8v1jbwMleY9BQvL9Zt8PXh4mPpSmZBJAdnztE1FGtg74pr12X8EjIuDoYJfbl9hxUHF/9OM+uKv1w3dwpCRmRZCBB+id0D6wUD+fI6ntxd4ex5xcpQpqRzIXDkmNLFs3yZlAsUbNKAFTUzZ6a1Yee+5OlhcO8fiqV33gIC8rIMsogGIaOiw/CTOI/+BaJvKiZOby+pBSAIiWEwAr/+oVgZ+nRjUyo9uHBZiWdITAhY3BiVyrNccNZEAjCv3wDu3NV/Ys2fF2hYh+PHrTtAyGp9KtwlRtnSwIDewKghQK+3eA2kCJSQUUkW0ZAnN2uNV68MvNUR6PKaNr+oIGRk1m8FLl5VrAx1g51P7q5gnW6ZL69jIbBuM7Msnj1jWqYj18jeg8D02XQ/jhwPjBjHfg96F4Jq31oRTrv2sQGV3uJETf687Ppq2XKmg26iguAuySIacmQHRgwEPh8DjPmQKxY9TKyCkF4xGIFFy+hHB1jgyEvHyP6wcMU9USTIfhCkwQjM/YXFjgoHAa+8DPhYtZS2sCwE+HwG21lv280UzRzZ2adCjwp01lSrzI6cmTPT2rD3IGDyMMhSEATtJNvUXaYU0Lo5TaEiGATBOfsPA6fOsrsiwMwBPRsmXbikiIbSJRO26rakTB46yoJOHdsBNaomrOVwOgyYPQ/YvputtT8dwW30UKBR3YTv6yneXrS6WFp4L/ndvboNgiC4h0zfaYD9h4HJM4EJXwK79itmZSH98uc6wGjiv/18mRLpaTEnC9cjgX9ilcyJXKrMies3eL99N58xAw1qs46BvaJHi5bTahFcAxjaj+6DKhX4vkGB9i0YntK4PrMoAOBUGHD0JPDwkfooQRCSAs2i4co1YPMOtsy13i5cUgIcnXHU3CHvzl1tdRqOmY+3/qzwS+4XiEnLfPczMGMOt9k/MXpbsGXXvoT3pqtbjFWwbkpiMDJjwTIR1gvWt+hQuFUQZPZswA8L6QpZtxkYOxkYNQH4YQEQFU3r4OhhrJyojnswGIGde1nWuV1LoHSphMckBbWqUkRZ4gpCj+vTvU+wxWgC9hxkIK4gWHjhuSH4OZ6EAnA+Wq7eyEnLYi6FuY3y0PeBlxo5XwXdjwXe/YDdFMcMZ/c8Z8cDwNIQ4MeFtp/XrROL2zhLD0uPlKuriLOGdYG/lrBOvl4EVWRgHMCUtsNbgYB86qNSN6/1YKliT5g1BaheJfF705pDoUDHXrx+r7cFvv+KgYWesGEr0HswEGP+PtMnAH17KqtrT5n1IzDpK6YSli/DQL8nT2nBunad6dCVygEvNwVaNAEqV0zoloA5mLJpezaR2rYKaFjPVjQcOQZ07s333LwSaNxAvwDoN/uwF8XDR0DxosCG3+lmEfQhLJyun0NHgdnTgApl1Ue4zqCRwJI/KEZWLmTNkYw2licnN28DHXvSUg3QAjh/NhvQeYJmS0PpEpz8Dx8DDoZyqxfMvycWo/DXelopDoYCJ89q8z8WL8IgMMvn5cjOAS4jRi03rgfkyQVULMfJQ89VZ3ogIpIT1MFQ4PxFZhj4+XKLNQBHTyj37P+yKvsA9kaw7LP4+FOa7XtsrUl6xzPcus2MDJgrQfbrRTHe9XX2X5g+AZjwMTC8P1Crun3BALMbw1JvJX++5LEyWAgMYKdOmK2gt5IgxTMjEhZOq9PE6cD3C4Ade8WKI9iSyHSvULYU2+daBELxIkDvbsxZTkw0/LRIMYee0igaKpRVBrZiRWgibVjXtVVgemFgb2DaeGDyWKDDK44H8YzKuQtcJRcpxCC8CaOAcSO5vfmarcga8r6yb9JoHp/T3C3S3y/xezk5OHxUKVqkdzwDVJN9udLAS43ZgnpwP+C9HsC7bzNuILH+FrduK/E1hmQus1y2NF0rFs5fkLgGTwgLp+vzs6mMZ1m1jr+pIKhxaYgsXFAZVLNnp7k0sSJNx06y+pwlFsH63864eIU52M+esQtdwzr6DpxpiUrl2WCnfSspjGWPuHi6VcYM56q5UT2gbi1uPlb3aJFCXLVb9jVvAgzpS7N6/ryAr2/KiwaDEYi6aWsJyKKTSd9C+CVFxHtiIfDzVSx/1v0pkoPSxW0zM7btlknOHcLCgckzgE8+B76YRSvXvfvJ+1sKaQuXhsjCQUAm8wBsitMW0DjnFw5QOf05eGt93dz5fF31ykDnVxVTpCCo8fcFPh4KvPVGwloG5y8ocTFlSyX0qXt7A+91B95/B/B1ULgoOdl/WCnZDEu1Rh3vfYORm2VS8PdAKJUrQ9GROTNw+pz+hZycUa60rSVk514l20TQzt1/uBirXB4Y1h+YNo5VL/WMmUopjCbG04gFSl9cGi6su+vdNyQ++R87BWzcCvz3hK6NzJn5un/uO3/tsVOMZv/vCdC1I5A7d/pdXccanKv6a9cZsObsGJjf559UtkKwnJO980rse7tChXJAhzYJBQMA3IhRCgxVKGtffDapT7O8XoGGnnDpqm1floB8+lrYrIs6wdwIKrNLo4BCQD5ONtmysa/Mzv3JN0DnzwfkzqVYOm7d4XOSnC6S9ECZkoyTGjGIouG9HkCzBkodjLTMhcvAzLkcQ5Mbk4mxVrfvKFZD633/qf6WlnBpuCgcBLxgfoXJxAAkZwP/spV8kJs2YNW5TJmUi+n0dSFUwEULA21eTrg6TA/8tY6pbSPHMaL4kdVge+I0S/KO+AwYPZFleWfPU8r5Wti5F5j2LY8bOQ6Y8jU7iKZkHYdr14FffgNGjed5W7Zvf+K5rVzN73Q6LOHD5C4F8rMVsz1uRCufE+DgOG9v/eMG3OX6Ddvfr7CDao3ucP0GUyn/seoOeeYc8NCDANCO7YCihfg+X5rvxW9+AKZ+wwDoXP58fvcdBs6F22ZDeUrBANuxISpGGuG5Sv68tAL7+qS/IPPbd4GN21nRNDmIimHa8vhpwEfjOc6NmkDhsn03n4cZc1iDJTl6piQVLosGi3sC5ovkaPI/dgpYs4mK6uMhHLAt1gJnwZD3Y4H1Wzhwdu/EIEh3zaeplYVLGWw0cy4wbwkw9WtObs+ecd+4aRyAZ84Flq/iJPzlt2zL+/gxJ+YZc1jsyXLcvCUMOB0/ja2MHf0uScmufTynKTOBGXOBeYuBrbvYjfCX34AJ05jqN2MuV/xJPUhFRPJ+slyLIkH6xwfozeFjtp0bC+TXR8wYjKx7ciOGLo9a1bhFxTC7xF0LQaN67P5YpQLTgn9cCEybxbTRIoUo/KtV5r6rEfqusAIL2FqOom/qK0oEQStRMVwYTfgS+Oo7Pge7D7DOxZLfWWZ90nQu8i5fTZnxWS9cmo59fejrskz+VyIcf/llKzm5Va0I1KnFCHWL3ohyUkTn7w18nZ+vubGVHXNyWmbHXk6kJYspq95bd3hNFy3jTRUVDTRtyKC+wACKpuibtMCEXeDEO+1brhA6d2BQX9asjBfZsQcIPaHv4KyFXfu4ulwawkCq7p2Z8fHFZ8DUTzmxhJ6gYPTKYVucJ6k4f9F25VmudOq2WhmMHHysLTCFg/Q558yZaYoe+QEw6RNl6/kmV5vuCnNvL+DtTkzRnDYe+OwjYPhA9pp56w0+w2M/BHp2ZcqwHt/FgreX7Xmfv+i++BEEd7EIhgW/AUeOM8D68zHK2PfhII7fx06xuGHRQmnb/ePyUGGdQREdAzyzE5twNQJYt4UT14B3WcDD2mJw1YnY+GkRa923b60tnTOt8fQJ0K0zMHo4/ckAOweuWgf88RfQrhXTAcd+yPr9dWoqK80LlykYwsKBIf2AseYa/xM/ZvaA5VqdC09eF0VEJJsV7djLegJjhgOfDAM+HMDyw51eBV5uokS7qwf7pMLaNeHnmzqyI5wRF5fwuQjQydLg7UWrQMtmCbcqDoo3aSUgH9C2JYXh8AH83du35me+8jK3ls2AksX1c7UAzIyxFp4XLtm6+QQhqTGZ2NRtwW/AnXtMif9oEEVzt84c+zq2ZadnCwH59etWmxK4PIRWrqAETjma/NdsUqwMrV9mSleFssoD7ijt8vgp+kafPgX69Uyf1cJq1+QAWrm8YmmINTCO4a1OvOHatuR1LhzE1Zl1Slwuf7p7RgxkZknhIObZ58mlWIC0ZqjoxY8LaWl4/Jitz9/rAZQqYTugnzmnrPqTqx5ClJVoqFgWeFHHCSspUNc68PN1P0gxpVALQvX/60mgKqYhLpnTPgXh6EnGp925R3ffoD5Azaq2c1f8A+W59vHmc20vtkpvfLzpGXA3pdoRLj/OBQsowZBnz9t/SJeFcAIZ8C4V1gsv2NZ0cORzn/sLrQxNG7KMbVKbr1MCH29eh1iDYqXJnJmm3DdfA/Lmsc0UsRwPcEU4fABFhVpQWWcjNK6vfeWozmIoUsi1lW1EJBCyhn74RvUYiW3P9BZzS3lwKpTV10ztiLNWgXdlSqV+V9cNlWvC2zvpJtz0gLeX7RhhNOnfilsQHGEy0R17I5rjdJ/u5gqqqrE56qbiNgvIp3/nV0d45TAHuJrHc1O8PhZol4ekYkWU1Y/Rzop2+25GxlexsjLAvLrMZanVYCfz4vgpBk/995++VoarEYwh2LRd/82ToCvr7IFK5Rn3Yc90GxGpTLYtmrISp1pMxRoAg4m/hb8fCxhpnSBvRNmubsuVdk2ZHjjC6ORnz2ieLl0y4fnB/D0s37dAfvvH6M25C4p1IyjQNTGUEshK2TPiHsj1E5KPoyeBfYcoVmtUARrUsZ+2feWaUoo7uV0TgQFADvPn3brNmApP491cFg0Vyymrn1g7tRq+mMU88K4dmUdtWSX7+gCFCymvVWdeLDWnWVatxIuv1wB/Nhz4/heWSNV7i75pP6ZDC2HhyiTqbKLef1gRJ/WC7YuBSKuJv1CgaxPy2s2KCvb3Y0yFdXnexFi+ioO1vx/jLxxZOKx7OzizZqzZyCDPkeOAEZ9y+3s9m6+4MiEYjIDRqoiRoxoNqQmD0b7bTrCPn4+t+8aYzKWshYzNvsMsKQAwdiEoUH0EuXiZ8UpwYGk4cpyBlB9PVMa8CV/yb9t3c650d6Jv3ZwLuaxZ6CY5ctw25dodXBYN1m4Go8picPwUV56FCwJtWiScCK2DKK9eVwbIWINiZej/DpBXx2JOJYvRnP/qK/pvObIrGSGucjpMuREKFbTvu4410GT99Bkn5SAHGQdnzilmpwp2Whg7YvUG4LcVdC34+7GLaON62ifXWAPbEj9+zAcmp4NYhVhzVoBlQLeXxWAwAouXs9ZEWDiQKTNFxsFQiogvvmGdAa3C4ex54F8rU5yzWg6pBbWlwc+H18FTjEamnqa2zdMJ3svL9vrExXv+noKglZOnObb5eANVKtm3MsCcZWhpQJc/n60VPfQ48M33XGwvC6HFOE9uLij/Wgd8PpMp+WfPuSccatdghlQZc9v6kDXA1p2eVU/V3BrbgtEEVG7IAfz5c2DtMgb2ZckC9BnCynCjhzA7QK2oxnzOHP1//wW6dGCbTq8cwKLlwIARTAlbs4wmFb1EQ2qlelPg1BkKgoXfMctA7ZKJjAJqNGWQTaGCQOh2IF8e22MA4NMpwNff88YcPgAYP4o3siN27Wc9gBV/Ubw1qM1gypbN7Ls/HHHmHND8dZq9urwGzJ1uv/zsjSigdgtaZgDgzD4KB2uBsX4LMHoSJ/aZkxnT8vAhcP4SBcPx00DfHsCoIUqHSmesXA30H6EUdjm529ZKphd6tsaePY8rDMvqJbg6ELLI8QpGK5O+ot9VbRVMSRrUYaS5o4FWC0eOs0X2lWvK3/asYwqy1ns4pdi0DfhH5wI/LZoBue08f66ybjMweLRyXQ9u5uTjKXq1xt62W1vBppNnWfemXy+WkE+MwABaup2NnRZMcUCrTrQElyoBLJvnuOV02zfpzn7ylKmY/XoxcB1mC+yEabSkvt2JxdIKFeS98ccq1ny4+w/HvX697I//iXHnLrB+K8f7PQc5z7ZrCdSvDdSs5voz6LJoAIDGbWmaefoUmP0F0LcXlVDbrjR171tPZaMeoH9fBbz7AVe2DWoD6//gD1S/FXDoGHNaB/d170ZKS8QagNLB/DEB4Oh2xoCoB7o1m4Ae/Xl8gzrA37/an5TfGQQs/5Mr81lT2UvBWYfCkNXArJ94w2Z7EXijPdM8rdM2tbD8T2DgR7zBh/Xne9ib0PcdAl7vwQptfr4UDeqJ8PWewPrNTNcc2t/2wV28HBg2lq6PzSEsTpTYec6cy8ky1sAMk30bEn6mGot7wGAODvXz5fV29llpQTQ0f43piKlIM6BzB2YB5XVjELRgTzTs28AJTv0spTZGTwROntHXMjJ7Gk3RnpLaRcPHE4BzF9V/TcjNW7Q4VqsE5DJP0s6oWpGZX1qet4uXga7vMa6hYV0+9xXKqo+iuGjdmWMgAPw+H3i1tfK94x8ABw5z7K4XbDu+374LvNadwuTlJsA3Uzj2ucOlK8Cc+bQs37nH+ff9d+gR8Dd3+dWKW6Kh+/sUAJZqj+NGAZ9OBr6dx5S7uV/Z94vvPcgLGBfPFLh9G1kdq3F7IE9OYO1yKkJng3R6IDKKloa79/iDhR+yP9F89R0nkbh4ZiVMn2BfFdZsBpwwD0BHtrICn7NBM/omcOgoJ+MN27g6eakx6z1Y9xdJjJlzeX5GE60bwwfYV+k/L2GMwn0Df/ctq+jbsxBrBCo34PtsXglUr2rrSoi+CbToyMDGxd8z7zmxYKK+wxTXS8tmwOK59q8xAJwKA7bt4kPq620OoHwM1A1mcKe9a24hLYiG1Rto9kxNFAniKieHE3GbGPZEw8ndTFdO7ezab+uy04NXmjOOzFNSu2jQamk4epLVGN9/R5ulIV9eWgucPe8WTpwGeg2i8Ov0Khe8JYqpj2KX53cH8zgfb2DDH1zha+WlDuw8WrworRnB1dVHJE74JWD+rwwBuHSFAqTTq8yyCwxwHF/mCLdEwyeTOGH8+5hm6c9GcOC8cJlKv1Z1+z76M+eAeq2ovnx9+IBPnkmXxsgPuMpMbDJID6zZROFlMHJ1f3QH4zjUfDCKP/bDR8DE0ZyU1U2ZYg1A2Tp0Efj7AecO2k7Izgg9zuCb3QcYE/F2J+DzT7QLB2vRMGMSzWfq8wOAYWNYUjr+AdCqGbDkB9tiJ+u3AL0G8qHd8ifjD9S0eZNZMP168lokpo5f6cLB5fFjWkE++8j+a67fAMZMZjXBLh2YUhx+iaWV/f35vZyZBPUUDYuXAyPGKRaosqWAjSsYOCokJC2LhtRMahcNWlm/FRj6CTB/Fq0BerLnAN2fZ8/TpfDFOMbPqVnxN92ul69yXF61hAHjWjDFcdzbc4CvDVkM1KulPso5pjhg4nRgwVIuRmpUASaPpWBQhw9oRcPUkJDKFZQApKgYTvpXrzOIrlJ5+4IBqi6ZRhPV1/otnGjefF17AJ4rnDjNle4PC/TfYm655yc+f1HJJy9ayLFVYP8RJWWwUEH7x1kHQQa5mDlRsxqDH73Mq73fVtBNpEcurzXq1Ef1OW7ZSYuAj7dtbxNrfLy4L+aWtkZX1oWdCgQ4DoI8GEr/ctWKwDtvM+vnw4HAkPcZV6E1qFQPvL1tnx2TpGA6xWiyXamnx6ZLQurEelEV/4CVfu1x8zZj+GCuuePKeBL/QBnDSpekFdRVjp9iPIXFetm9CwsMuisY4K5oCCpgO7gvX8WJ5uOhzk/G18e2nPTazexT0K4VUCyJSkYfOMKOkVO+1n+7ecu9QT3iujLYlS8DZLUz0MUaGLxmOc7RBGaduulIWDijRVNb687BI7QgacG6suP1G/Yn8z0HaBKzKeykEofRN7nfT0OZZ4NVGqUjDEbb4/ydvG/MLQq4bNmUe9rHmyur9q3tW06E1IE628Tb2/X7X0gck8n+s52R8cqhmPVNcfavT/glYPd+ZgoBQKni9gvfOSL8Et8bAFo2ZY0HV9m0A4gxB6D7eHNx5G8n7swVHAylzvE3F2kCgGsR9NFXqcBAjsQe2qACygCeFMWc1JQoShdKt076bwH5HU9GzjhwBPjPPDEHOZjorWsv+PvZX6FDZWmwrNRPnjE3rdJgMQhUpXGGhWtP7bEumLRxm62IiogEFi6jyd26xkK5Mky3PHU2YXEsHycVEP3MAsUUl3htDHW6pbNSxoUL8jtsNhfsemjuMOnjTfeAWuAkJWrRJHUbnCMVIJMHSWVNSGAA3ZZZsjAoMtrKAmqKA/5cA8z60bajZZWKHMt37GX8VGKErDZn0FWlO8Gdyf5MGGPGYE731MP972AodY61m+GGuUjTgN6OC/tYY92EKiqGpYcrl7c/IepBnVo0N48aov8WkM/11NBYAxAZrUwGjqwDp88pN6GPt1K6W020uY4DzBP1qrUsCvLkievnBnOTJ60DRMVyjMXIlImq+Nuf6A9d8TdbdH/3M+NbrINiT5xmm+yjJ7WJGguWB089sdpj03bggTkvOjHKlQaaNeRvMv07WpDWblLEQ3KiFjdxceZ6BiIc7BIXBzwT94TuGFWWhXMXlToDAsmXl+OftxcFwOyf2HDwzzXA5BnAxK84hhQqqCyII6OYcbZ1F2unOCP8EnAglBaN93vxs1wNWDTFUTBYfkuv7K6/hz0SGX7to3YzVKvETnZaTqigyrWRlFYGmM/VzzdpNncmZWsLAswlpO1dt3NWK/4ihRz75K0JCwfmLeF3Ll/G/vsmhslOp0VHBAawk1tBs/VoyR/sG//5DLqeatdgal0Bc3tvgAE5S1cy0tiyinfmPrBgMvG8ggIdXwuDkZP+ir8ZI2Fh/RazFcFOB8SCgRSVb79Bi8jseQwcmvoNRZjWa6EHhQsmLCWunhgFx5QtaT9rS9DOqnXMjLOY1GFOrZ72rTkWS6MVMiPwSnPWaMiShcHtU79hmvei5cx26N2NllwLm3cAy/4EypVynmocfZNVjB89Agb2pvvezw0rg3VMhJ4kMlQ7pm1Lpm40bwL06GLbZdEZVSsxva+5VdqHO5NbWsVkYiRvc/O1K1bY/uooV06gSX0e08Eqr1dNu1a0eGTKRCHXoilTjJLLF9/rTeY2ly9DEXDxCkXhgHeBD96jlaReMJA/L88xbx4G49SsokyQztwSFgxm0aBejVtzI4qumYKBQJMGyjWOf8gAT0sZa2t8vNmd7qNBwKjBvJ5hF4BvfgC+/JZposlFgQA+R44CiQVbjHG2Ajwgf0LRJWjHaKLb8MkTBstZnp98eVnn49IV7fFOGYG6tYBBvbk4ypuHourhIzYf/GQox5VWzSggsmQBCgXRVd6iqWMREH6JY8/azayf07s7x87UhFsplzCvai29J4ICtRcGMpr42qdPlRWxvUkzvRIVY2ttCK5uf6A7f5E1wp8/50rekRvDZAJWrQdu32GEbd1azNV2lIVgj6CKPC+Y3SWHt2pP24TZRXLoKCuXPXtOC0SdGubzyMT4ilNn+X2qVwHqB9uKoInTgRlz+PD99qN9FV6pAe+bsR/SMmAvlzr6Jq+tI3Vdo6rzQF1THLMuQtayRsbTp0zhK1ZEfaSCnimXAIu5bNimRFyvWsz68Y5EY0ZmyGjGzVhK4n4+hmI1p7/6SEELcfFMm3fkmsufl65pd+N80lPKpYX4eBY6jIyipbNwEMexAvkpFOIf0MJwNYIxUvVrOxcMFhdvl9dY6LCglaXCVW7eBjr2ZHEogHGH82c7rlypFbdFg5B+8FQ0eErIGuD94RyMNockLDFtMFI0GE3AygVAo/oJe1foiSkOaNiG/UEuHGEwrSP0Fg2DRtK8aemK9900oGdX16KuMwot32BQmSU2ZtNKoGkD+yJcSHnSo2jQC4tg2L2fWVsDe3PxZY0pju43rZb5pBINGmwDgpC01K3JifbmbaZoPlLFHuw/zL/VrQVUrqifYDAYgbm/0ApinTFyP5YTUcVy2oJ79aRcGduB9NwFxeogKBhN5u5/ZsHg68NVmQgGwULBAFrprAvJpUYsMQy79wNdX6eFQS0Y1m5idUl7cVnJjYgGIcUJLMBYghzZWQHzzHnFxXD9BvDjQvqv32iv74rbFMd67DPmAD8uAH5axG38NAqKYe8DuZLZ1F22pK1QOX9R/Mj2iFPFMwRX1/feENI+JYtxxV44SL0n9RB9E5jzM4NNc/oBvr4UDyv+VrbJM4CZ33O8Sg2iWESDkCp45y2uCiKj2Qp27nwW5fp0KlOUOrYFXmrkPCbBHRrWYYGnkDVsTbv3IP9/WH/g9XZAjmQKKLVQvgytLpZgSOvVdFJiaZ9tL93WaASuXVeqeqYGbkTbnk/J4vrkoAvpBy8voHSJ5AsKd4e9B5mqeesOyxf8tBCYNN12+2IWYyby59N//HMHEQ1CqqBMSfYfeb8nJ4NV61gwKj6e2SCfDGfArZZgW634+QJD+gEjBvEz+vYE3u0GjPkQGNjHfrBlUlMggGXaLS6KqBiWgE2qWg1GI8XSuC84OJ08o0zGZ88D380Dxk7hNvVrYM1G/iYpTfhlW1NtnZpiaRDSHlmz0sratyezEesGJ9zeeoOdiwPdqAiZFEggpJDigZDWRMcA16PolsiRnemThYNoutNTMOiF3oGQAF0m475Q6sWvWgK0fkn/oDGjEZgxF1i5mlXtsmUDRg8D+r9j7oL6O7BjD1dBz54xPbVMKWB4/5QvsT12MuNR7sdS3O3faL81sZB6SO5AyLTA7Tv2U8HVeOXgIkdrECQkEFLIKAQW4KqxcwfWAqlWia27U6NgSCpebsygPouL4ly4toHFVTbvZBlyby8gcxYl5XTpShbJ2rKTdVVeb0e3yb//sjPqT4uZPpuSHDmuZJhIPIOQVslnTmNNbMudyzXBkJRkoKFYENIGpUuysYxlFXb4mP5R00YjxdiQfhRoPuZJ98ARtjx//pxum3Ejgc9GsPhVrlw85ugJpoilVIyDOnOifSupzSAIyYWIBkFIhQTXALKbW5YfPsZmYHrGNbyQidVYG9UzV6wzR2XfuUtLz6jBwKA+LFRTqTzQsT1QsSzTXU1xbCmutb+H3hw+plgZfH14rVLSVSIIGQkRDYKQCrF2UUTfBE6F6Vuvwbp0t9Gk9Ld4qTEtDC2aMqbE+viCBRRxEX4paVwmWti5V6kCGVyd8Tf2qqUKgqA/IhoEIRVSuiTQqK6VteGo4/K+nhJtZeqvWZXNxBLLB49zobGZnhhNDNK0WBre7pT6i/cIQnpCRIMgpFJea2vuOZKJtSqirNqg68m5i4rVQGtVRV+flGmsdfgYm6L99x9dJ43qiWtCEJKTFHjsBUHQQq1qTI968UW6A06c0ddFYSHcSjQEFnBcptvajeGtoTNpUvD3BqVt89tvsCuoIAjJRwo89oIgaMHHm+3j/9/asJNuAT0xmtit9tkzFs9ylt4aF69YOnx9kj+OwGiipSH+Aa0MjeuLlUEQkhsHw4MgCKmBpg2BZo0Y27BtN4Mi9XRRnLugWBnKlnJebMdoUspMlyvluKSt0URrQEQkcCWCLdPtlad2lf/PInnKKnlFCye/cBGEjI6IBkFIxfh4A2+0o7Xh5m1gz0F9Ux3PX1RcHmVLOxYCYeFMx7QEP5YpBbyo6vVwMBSYMhP48ltWtPxsKvDZFODEKc/7ZxhNwKJlrJJZuwbQRKwMgpAiiGgQhFROrepAkwZMgVy0nCt4vawN1pkTBfI7DoLcvof1GWDu8xCQzzYQcssO9q44fxHImZNi59594K/1bC7l6fkePgbsPkDLwsA+zPAQK4MgJD8iGgQhlePjDbz7NlCkEFftO/bqZ22wzpwoFOhYNGzbpYiGbp2AXDlt9/+2kmWne3QBBr8HfDwUGPcRm/EUCPAs08LayvBaG6B5Y7EyCEJK4cGjLAhCclGzKlfYRQoDv/6hn7XBOnOijIM4hZWrgUPHeFz5MkDDuglbhodfAv59xHN6bhY6taqzUFTVSkDW/9ke7woWK0PhIKB3N9bhFwQhZRDRIAhphG6dgJbNgLALFA4Go/oI17gRTReCJXMil53MiS07gemzgbv3mDExuC9QrEhCy4Elm2Lx78D6LcxwAJgymj9vwuO1ciMa+OU39rn44D325HCUEioIQtLj5qMspCf8fBNOFkLqw+KmaP0SELIG2LDVMzeFdRBkYABw6zbjG4wmWjKWhTCw8dRZIHs24I32QIc2PA81Pd8EihahYJjyNYMhT57xvKnVkj+AzTtY1rpDG8DHR32EIAjJiUwVAoIClaAygxF4roPZW0gaalYFRg4GsmUDFi4DIm6476Y4b5VueSOa3S3HTgY+ncLMh4nTgX2HWab5w4HA8P5ALgfdJNu1YsfMhnWAsPPA198DM+bYWh1c5dBRYPmfQNMGbJ4lhZwEwX0C8lP8e4qIBoHFg8yiwWgC7puL/Qipk5pVgQHvMgVy9373rQ3Rt5TMiUyZaHVYswn4fgGzHh4+BF5uAnwyjIKgQjnHgZI+3kD3zsDYERQ1DevStTHla+D4KdctDkYT8N3PLDY19H26JRx9tiAICYmLA548Uf4/X177MUuuIqJBQKuXmEJncVHsPwz8+1h9lKAFg1l0Odv0EGTdOgN9ujMVcvMO4IEbzayiohXR8FIjYOQQYMLHwKRPgImj+e9xI4F33qYLKzF8vNl1clh/vq56ZeB0GLBzn2vCxmgCFiwFIm8A/XqZAylFMKR6THEJ73X1pkeRL0Ebew9xYQEA3l4sS59TlfXkDi88NwQ/x5NQADqMZEKaxGiiafrnJUDMLd5cHw+l79xZhUABOBQKdOzFZlJlSwH1azs3AQYFAn17ATn91HtcxxTHug17DgDjR7EzpisBh7VfBkJPUMRMHgsM7K1NHKgxmpgCqa6b8P0vwPhpQItmwPTxNI9qYfFyIGQt0OEVoGM7BlkKqZulIcCxk857o2zcDlyNoHBYuRBo20LGl6Riw1bGFR0MBbJk4QJj+ABalT1FRIMAmH3aG7cBq9YBocdZPKfr60BwDaBEUfuR9YKtaNBC7erAykUUD3pgEQ6PHrFPRZC5T0VihIUDbbtyEAeARXMZ6JjD3IrbFbbuAp4/B+oF29ZPmDMfmPAl0Kcb8OEguhoS4/BRYN5iujc6tBHBkFZ4vQewfqtz0WCNiIak4fhp4MgxYMnvwI0YoFRxPku9uuojGCCiQVBzMJRR7/fucwIICgQqlweKFQWySAW+BJy7QCvNP/fVe+xTrhQwfGDC4kieYIoD/lzLgMGgQG3ibtU6YOBIIOYmX7N6KVClgrbXqpkzH1i7ieWdCxagaDHG8TMAYOqntF5pcTHs2EtfbOP6IhjSEpNnctzQ6n74ZBhQpZKMKXoSF8cYp7PhdC/nzwuUL8vn2ttLfbT7iGgQHGLpgOjjLWmZjjCZgOtRtgFHzvDxoeLPmkW9xzNMJsDLS/tv9PFE4IcFzJYJrg788QsrTrrD9j10RVyNYNGnnH50VRQMZF2Jpg20V3A0xdHaoXZ1CKmbS1eAeBfiakoW035PCNqIjwdijbTe+PvSLZEUiGgQhAzEjWj6O6d9C1yLYLpmYACDHTu/CpQrrc0iYI0pju6OqxEMrLSIzHJlgLy5RQAIQnpCRIMgZCC27qJV4LqqvoOPNws0dXrVfvEmQRAEiGgQhIzF+Ytmi4Add0pgAFCxnD653IIgpE9ENAiCIAiCoAmNYVOCIAiCIGR0RDQIgiAIgqAJEQ2CIAiCIGhCRIMgCIIgCJoQ0SAIgiAIgiZENAiCIAiCoAkRDYIgCIIgaOL/AGsC0B+KhR3eAAAAAElFTkSuQmCC;" vertex="1" parent="yAmNTWqrZYA3S9iadCmw-4">
          <mxGeometry y="60" width="432.99" height="80" as="geometry" />
        </mxCell>
        <mxCell id="yAmNTWqrZYA3S9iadCmw-6" value="" style="group" vertex="1" connectable="0" parent="yAmNTWqrZYA3S9iadCmw-14">
          <mxGeometry x="96.495" y="430" width="240" height="93.16" as="geometry" />
        </mxCell>
        <mxCell id="yAmNTWqrZYA3S9iadCmw-1" value="Entalpia após compressor:" style="rounded=0;whiteSpace=wrap;html=1;" vertex="1" parent="yAmNTWqrZYA3S9iadCmw-6">
          <mxGeometry width="240" height="60" as="geometry" />
        </mxCell>
        <mxCell id="yAmNTWqrZYA3S9iadCmw-5" value="" style="shape=image;verticalLabelPosition=bottom;labelBackgroundColor=default;verticalAlign=top;aspect=fixed;imageAspect=0;image=data:image/png,iVBORw0KGgoAAAANSUhEUgAAATAAAAAqCAYAAAA0wQe6AAAAAXNSR0IArs4c6QAAAARnQU1BAACxjwv8YQUAAAAJcEhZcwAADsMAAA7DAcdvqGQAABb1SURBVHhe7Z13eFRV+sc/AVbIIEoCqHQIIaELShMpIiAoRUURF0WXFV0VXFxBQFcp6iquKIoKKDbEQlFUYKkiIr1DREoKNUQgyQSBzECk/P74zvzu5M6dTCGQBObzPPch5UyYe+4573nf7/ueMxHnMoudg7OECVOYmbsQxk2E3w9Dw3rw1itQ6TqIiDC3DHM5Ucz8gzBhCiMr1sK6zbAjEWZ8D+kZcO6cuVWYy42wAQtTJLi5BbRqBg3rQpcOEB0d9r7CQEQ4hAxTVFi1Dg7+Do3qQ60aUKKEuUWYy42wAQsT5iJx9iwUC8c8+UpIBmzPPj2MIxlw6Ah0uw3+8hdzqzCe7N0Px45DtgNOZEO7VnDFFeZWYS5V1m+GnYkQXxuubwAlw88+XwjagG3bAVNnQNZRSEyGA2mwZRmUudLcMoyb9Zth1lxISoGMTGk3sz6HqLLmlpc+DgecNYnvpW2B6Vnu1wbS3ur/sdmgmJ/XXQj+OAb9BsL8H6FtK/jgLahe1f89hPFP0AZs7kKY8Aks/hlOn4a6cbBuMVwZNmA++WImTJulPsvJgTtvhykT4OqrzC0vfb76Bg6n584g3twCmjSCK/x48R9NlRd75+1QoxoUL25uYbByLWxOgJw/9b3NBg/cWzAL7Z590P5O2HdA3y+fBy1vDGt4+UHQEXm3znBvd/iLq/PrxkGxPAZSGHiwF9zRyQgZa8fkPfkuZdZuhBdfhcEv6hr/Ify2U4thXuxIhJFj9Jplq+BUjrlFbo5kaKEdOkqvWfAjnDxpbhUYx0/A0T8km4TCNeWhaWOoUA7qxcOVAXiQYQIjaAMGufWuuFphYTIQSpUE95itUB6KX6Z99tSjcFUZ4/t7e8A93cEW6dnKm8mfy/sCSE3zb/DatYKK12ps1qkN/3oSyl5tbuWf9AxJJjsS4U8//6cvSpeGIQNh4KPw72cg9jJewPKbkKbRD/ONh1mhfMHoCkWNzCxDk2nV/PJNesTGQMXrjAncvAmULGlulZt9qfDjMnA69X1iMvzpCg19sXc/7EhSu0cfghuvD63PP/sa/v0KnDx1fgt1y6Yw4lnocy9cWdr82zChEtIj2fwrnDmjr9u0DMfygZCRoRCktA3iYotGnzlcGdP8rni/qamRhUvPNMaSLz6fJv2oZCmFXil7/XtD705W2FetCnRsB5GlzC38c+YMTPoMqlZW2O+WTcIUHoI2YNkOZdLOubJB8bVzr0zZDom0J07k/8AvyqxaB3/maDKYw8f0DDh8RFpLYeqzRUthyTJ5H/lJw3qGHpi8J29jtC8VZv4gA1S9igy/wwHn8tCj9qfCpgTIOQUP9VbGL5SQbfdeeXAD++edMc7IhOPHrTWyjEzXs/XxewJsU1TJtOvejnncm8OphTE/7jXoLOSORGjeUW/AMwN5JAO2bYdtOzUho8tCu5tV8xLK4LmUyHZATBP1kWcGcu8B9dmGLZoo5aIl9jaqr98XtNB7Xz95PeNfy3sCB8v/FsPfBmjiPtgL3nkNoqPMrcRbE+ClN6DzrWDPghVrlFHcskyLgRXjJuo1V5WBOV9B/TqhjcHnXoLv58G3n0GdOO8QcmcSpOyBTVvl6fXsbmQ5NydAYora5OTo/tzZ1pJXaBLvSITk3b7bFEUcTt1P2u9w7ITu79QpjZ9qVeD0GRm15k3g+obShs+HoA3YrDnQ9wm90Z5dYeoHShPP/AG+mysD5ras3TrDx+OVfSnoyViQ7EyC1nfowQ0ZACOHwcat8O0c9VnaIaPPWjaFl5+XCB2KZpOfXCgDlrANOvdSEXSj+rBgpgR3MxmZ0KufJIuP3oEvZ8KCJfII1/+oiW42TBmZ0PsRWL5GntOIZ0MT748fh+vbQqf28OqLUM5kYDcnwHsfqTQm7RDUqApzp0GVSvrdm+/Lg3V6ZD5vaw8TXIZ19gI9/59X5G7T6RaYMBZiqnsbzMJOph1mz4dv58KWbQq5K5SHq65U3ejvh+XcnD4DP3yhRcmf/umPoLtoVwqccU22uFj4ZRV88Bks+QVqVocObQ3vYe5CSPgtf1zFosyuJCNrZrPB8tXwxnjYsUvicsd2MhAREbBmAyxbadQvXYpERxmT057le3y4x0+zG6DtTTIOboOVvMdayP9pOSRsh6vLaAEtbTO3CIwNW8B5Crp28hbd96fK+Bw7LmN67px0uT37ZGTfnayEw23tdZWP1v0uWgor18GHU+D18dL1bm3ralNObRb/7Kpf81MmUtjItMOUr2HYaFi6XAZ9wCPw6gsw7j8w/Gk9u9NnlHGOjTl/40UoBszzGJM9+2HeIrimArz0HHwwDsaPgdYtjYGWmOJfpL3USdytBwcKvRf+BC2awhujXX32muqD3H128PdLu89sNhmFiAh58uaKeVye1JRpcDwbHnsIrroKatU0vNKMTGMh9eTbOdJfu90m+SJUL3baLLiugnU4dzgdmjXRmWRNGhoJmdXrYf4SedGvjVTF/btjlHV2F+l+ORO++x/c0w1eHCKP7N0xWsTc4VTK3qK3gH05E8a8I7mk113w31EqmenYTppnq+Z67gBly0KJEEJ6K4I2YInJcNY1uY4dh34PwPP/gvat4doKqrlp3SL/3uClgDsDCXDsmITl556Gxg3VZ/G19a/bK4kvIlnKUImOkh5SooQ8sCNHvA32T7/Arzs0+NvcpMldPtpIgCRs9/ZS9qcqWXJlaeh7v0KXUDh0BBYuhXt6WO+WaNYE7rxDGlxEBOAywPsOwPBBqve6oRFce42ilOpVjeeZngFP/B3+PRju76l+iIvVBI/0UwtXWElMhvGTlVFucSO8NFz34+lhpaYZz6tqpfzbBxy0AUvPNFbMpx6FhvW9Y/V0V5YSoHTkxde/0jO0ZzNhe/5dKXu8J1mgrFqvDKTNBg//VbqP2UA5HEafea7YlyqeYaRVJvKbOfJWhw8yNKxG9Y2Bf9CimHXqDGVy27eBRvVC974WLZXBvLVN3gW2Dick7Za3ZIuEB3rJcJmfXdJuY/IOecq6FizTDmfcMkMBzJnz4dOv9f4jI+XQlI82t4CNWzTGAW643vDGfOF0+pYWPAlKxM92QKV68rxK2yBte+6qajctO0lDOHMW1iyCpk28SwfyYu9+DUTPsCoYFi1VAeKpfEz/16kNzz8TvKbicEBNVwYyvjasnKdso5kGNysrVaoU7N4kj6yguVAiPsCAZ/WMHE5473X4Wx+jbzclQNfeMlxLvtfR0bhW8Zs6699G9WHBDBXF4vK+uveRDvXxeOjeJbQMV04O9HlMhvLtV7UNyBdJKdCxp/7v2rXgx1nyqDxxOKFRGy2AtkhIWK5Q2MwdvaUj5+TAvOnSkvPLS7mQOJzQqae2iDVtDNM+0j5VMy+PhbcnyeN+YTD864ncmefUNJWt/HEMTjhkEK+tANddC/XiNP7MjhLBemD7DxjeVzkfJ2JmO2BnsoxXaZsmfqDGa+9+mP4djH1P+9j87XfzRbFiqj1JO5x/V9bR0Gq0PCvw6/gIDR2u2rqzZ111YiEY7aJGbIzhIZk9sDFvQ9Yf0r6u9lggPT0Te1ZuDeyb2TIkzW/UiQ+hGC9cmu3ajRLWzV6SmcQUw7OqHWNtcA6mwWmXntWovhYoM//vyeXoHn39rcLIr9tVMnHmjBJSvjyrDZtlG3CF4J6OwJoN2hM7+EV47mV4e6I27r/0Bjw3Gt7/WLqwlUcWlAe2cAnc8ze9kaaNYels74e8IxFadJIHVTcO1i4O/ASAVevg8Wfgt106PnjejMBf60mmXaULViJvqJSLchnjII3LpgStUPYso4TC3Ge7XGUWGXbo0UV1Ynml/t3hpi3ETcE7EqXFWYnnngwZofc6eID/51CtilbLQBerqdPh6efBfjR3Ldj+VGjVRf0892uoVyf332zWQWUVV18Fq+ZLP3KelPe1fDVMnSh9KlQD9uo4mPEdzPxURjav/h3/IYz+r57t6GEw6HFvzWzeYnhkEBw6LMll5DDvkoyt26DHAy5PLgYWzVIWL1A2bAZHiBvVrWjaOO/Q2ZP3P1YfpGco4/jE373HrtMJTTvA9l0KMzcsUXTl5v7+Kr8oFw2974IO7RSWJ6Vo2+KGzcpi9u9r7G91E5QBm/w5DHpOA+bRvvDOGO8tGt/NVZ1YtgPu7gpTJwUXdg0cCpOnqtAtVANWmPjkS03U4ydgzAh46jHvwTF7Pjw8QFtfXhwCwwZ595nDobA87bCRFIiOhprVoPkNwek9r4zVCRD+NL2fVuh9NGnoreuYebyfss+Beg5bt0EXi1qwV96EN96Ffz4Gzz7lLVH8tb+KS0+egoXfKHn0yyro8w+IcoWclSvmfk2gHD0Gdz0ITa+H5werGDsvRo6Bdz5Q2DN/hjQz8/17GrlRw+BpCyP3xUwY/IJkhts7KgS2qovzxVPDFL2EEiFYMfFN30XCZl4eK4/JfhSW/w9uaua9yB/8HW69S2J/bE31VWyM8fsx78CK1fKc+/fNHVrOXiC5IdsBMz5RG8+xGOB6KfanGm5cnTjr1XZTglEyEBdr3eZyYley0R++xPnEFEOQ9hVCfvWtXOz/vKnDEad9p4H73mTIdm1yDpQa1ZR8adQg7yumujJpDep6/858xQR5Rn05i1qw/an6xKHoKLjvLp3iYMYWCRGu17lPpfjwc3mUjz7kbRyCYc16OHAQOt6iI2/8sXajvAtbpE5lMRsvALvdWCha3OC94AMke4SiDesG7z02bayynOY35s9l9R59sXuvIfVElbUeu54ZyFo1veu/hg9S+dWgf3jvyGjTUk5M1lE4ku6duAnKA3v4Sfh6lgoI536tSlrzoO3aGxa5Djsc+5JSyuY6mry41Dywtl1VH3RFSdiz2VoUHj5axY8OJyybI0Pn2a/7UqF5Bz3cYYOU6Tp2HKZ/r8E+YgiUsUimnC8XUsS3Z0ncPvi77mv1At3P2Peg/4MwYqi1MRrxmsTg4ydg9HAdxdOll05Emf2VjK3VJAqEJ4bAnr3w6fv+PSCHExq21gTOS8Dv2ReWrlRZkS8B//b7VICbk6NQul+fojPu739EXpLzJGxbqW1bZia4wswjGfDMkyohKl/O3MoapxOadVTE8PLzKo71HItB+Uc7Eo3VpIKrctiTbIc+v89tJVu3zLsebO8BrWJzFuq4lCXL5I6762pCJT1D2sPs+fl3/bgs+OJCh8PwwMpF+T52aOs2idg21+Z486Lw0y8KmVrcqLC8UX317aih+t68ohUFoqOUZSpeTMZs41b4+lv9vMft3mG2myqVjP6xZymTeew49O3t/5TWvEg7JA2t063eGqUVSZ4Cfk0f3leWdq7k5PgW5j0FfFzJgGAW/ILG/ocRYfgqfbBnGW2CrcA/eMiYd5GlvG1OwAYs2yFh/OxZTTSrza2ZdiMOt7kzkBYDyuHQdpm3JuiaPEXa2ffzlG626oRgSEyGN96D/7yVf9fU6cGXZXhmIN1bRaw4kKaFoarHVhlPIiJ0rV6vrTXuBaJctCssLUID3pPYGCjhCqnn/ahQ4+6uKvD1pel5GrADB3OHnIEYHl/MW6xn0K6Vb+PpScJ2Yzw0rGc9KVPTjO1ODXy08cxSlouS7FKUnqfNw6gk7/GeI6lpSs65M5AN6gRXsJvi8TdjLcJPH1PKG0/jVL2KtTex94BhfGyuOHrDFq2QngLj8tXSc2Z+rxVn0OPw5N+VwbBKMwdL+fLKbPXrk3/Xw38NXptwl0YANG5gfZ6UZwmF20vbmajQxO3tNm6gcCppN7z+jrbL2EMs6yhMeFbWr90gA9S9c94GpEolw6v/eaUMwN1dFb5ZGf9AOHkK5iyQh1sjwKN3kl0FrACVK1k/23WbjI3atWtae1ZJu+GU6+80rKcxtnq9PLOiQKWKhq678CclZc6e1eK9ci18+Q1sTzQMealScPSotHJ/9+h06oNQ/jimxa5evPccDNiAee6BrFPb+hz8Lb8apQsZdtXmTJ3hCgtdOBzadrD1N+h9t47Y7dAW6tfVG6wXb/23gyE+Fh55UJmx/LpubePbK/DF5l+NB1e1svV9ebbJsEugn/SZBrbbgFWtDD27ydtasRYGDtMhfyvXWW9oLip41oIl7Vbtlb/9i9FRhoGxZ2kC9ejinbUNhu27tNB27hC4F+cp4MfXsk7OZHoI+L7E8bRDhked7ZAh/XKmcXx2YadhXeO+fpgPn36lD26Z9Am8+hZkZeV+ZrPmKjO/Zr3/zyj4dYf0tZw/pX1dY1HcHbAB25RgGKf4WOtwqFoVY5Mu6EiRZk3gumuMn23cqrT3FVdI4M8Pj6uwkuiRgfSVXdz6m1HEmZiitLQtUudCuUOJctGqXn59FPS9T57La2/D8FEKvUIt+C1o3Kc0uL9++H7/4rUtMvfHqt3bI++QMxB+cO2OaNUssPHocLqKWP+EqCjpllZh37qN8sDyylJWrmh4b+s36yyzdjfnLuAtzNzWXgWsUWXlqLw8VmVUk1xnqA0eIIfHHfZ/OEULxt3dvDOOntiz4IsZWiTu6S6JwCqpU3zUsIhRgajmqWkaNPXj1cFWh8RFuHbqR0ZqUA3sD/fdmXtwffyFzmqqUVU1MWaXcN5iGcvKFbW3zMrtLir8ul0Ptn483HWH7sls+E+fViYuqqxqaO7vCU8/4e1R2CKhWmWFORXKSxtYv0VFfnd3vTAHIM78QQPv9o7W3sP5YouUpxEXo4z2Pd19V3K7iYxUeFK5ovSUfn3OT7y3Z0njvO0WRQKBGLDjJ+Q51aqhGrlO7b2fF67FulpluKm57s+qTYSrFKFMGSVnHntIh15alZAURqKjjMx6uSh5SY3qucbx41oYzpyRtxVbU5/ONeJZlef4wp4lzXnKNO1rfX2ksZ3MTFBlFIGwM0np0rhayjKZJ1W/gYqL27eGb6d4u+yXWhlFICQmy/C3uNF6lbZi7kJ45gUdvbJ6oVbBUCexLy5kGUVhYfZ8ePRp+GIS3NL6/Dy5UEneLe2oZnVFK/n9HC8GKXsUCdiPyjm57trcFQgpe7Q4VSifd2WCPUuy07iJyrT/d5Rv40UwIWSg1Kmtw+c8w0ZP3Ofpl/exl/JyJC5WR8b4Ml6Lf/Y+l75bZ61oxYvn3iOYnxTUJ1lfLM6dU0KkSiWoG18wxguXFti6pbzKomi8cBWo1ovXUVqeiRbP31c0GTUzbuM16VNV3PszXlwIA+YPm01uc7bj/Ou9LheeeUEJkYNpqkY+ki7Refc+Df5rr/EOTfODDm0V1loJ1JcCqWmwdIW0N/P+vTAXF6dTyYtJnyrcHjva23gl71ZFvmeZ1QUY9nlTPlpbQXYm6dD/ol4KcDGIcBmxcZN0Dvt7H2k/Y6mSMHQglLlAeknf3srAFhU9Jlg+nirhuXXL4GqTwuQvTqc84Q8/V9Kvf1/93L1YH0mXvRg3UYdGFqgBq+aqIduVLAHa34biMDorq3ULnZW+Yo0+sLVyRXj2nxJLAxGew+TG4YAp0xWGB3OKRpj8xelUPd/zr+jr6Cglj97/OPf1imsPcIkSuXeq5LuI74+dSXBLD1nV7l1g8JOKmd0bdIeOVD1JTHWY+ZkyeBciPCpqZNpVi3f2bNH5YNzCzOr1MGAojHxW9V/mbHiYi4P9qD6+7pdV3lX8ZmrVhMlv5z4w8aIbMICho1R7k3ZYVeb14pWBqVlN1nb1Om1+HvZP40NFL4RIHebyZcFPyv4+fL91fVGYi8f07yTg+yOmhiIRT0mjQAwYrnOyEn7TEcClSumNtWulnfvrNklUrRunGqdK14UNWJgwYbwpMAPmJiMz9/HU5u/DhAkTxhcFbsDChAkTJlTC8niYMGGKLP8HvARLXc4HNk0AAAAASUVORK5CYII=;" vertex="1" parent="yAmNTWqrZYA3S9iadCmw-6">
          <mxGeometry y="60" width="240" height="33.16" as="geometry" />
        </mxCell>
        <mxCell id="yAmNTWqrZYA3S9iadCmw-12" value="" style="group" vertex="1" connectable="0" parent="yAmNTWqrZYA3S9iadCmw-14">
          <mxGeometry x="1.4950000000000045" y="90" width="430" height="158.79000000000002" as="geometry" />
        </mxCell>
        <mxCell id="yAmNTWqrZYA3S9iadCmw-7" value="" style="shape=image;verticalLabelPosition=bottom;labelBackgroundColor=default;verticalAlign=top;aspect=fixed;imageAspect=0;image=data:image/png,iVBORw0KGgoAAAANSUhEUgAAAhMAAAB6CAYAAAAFx9GfAAAAAXNSR0IArs4c6QAAAARnQU1BAACxjwv8YQUAAAAJcEhZcwAADsMAAA7DAcdvqGQAADYfSURBVHhe7Z13eBTl14ZvkhCKWChpBBArKBCaYEMFC00EC2IBFSuWnwoiFhSQoogFVFRAEEFEUVGQjgjYG71JsQKBFEKAhPTd8P1xdr6Z3ewmm91Nspuc+7rmUpLJZllm3nneU55T7YRtxwkURVEURVF8pNqJw9VVTCiKoiiK4jPVThxGxYSiKIqiKD4T5voFRVEURVGU0qBiQlEURVEUv1AxoSiKoiiKX6iYUBRFURTFL1RMKIqiKIriFyomFEVRFEXxCxUTiqIoiqL4hYoJRVEURVH8QsWEoiiKoih+oQ6YSlCReRwKC+X/T64DYSp3KzVHj0FuHpzwYRVqUA+qV3f9qqKELlnZkJUFdsca6C0R4XDqqRDp5f2Qlwd5+RAeJvdQtWoQESH/9RUVE0qFk5ML6UfgeBas+R5q14aTT4JuV8JJJ7merVQmXnsH1m+C/HzX75TMa2PgzKauX1WU0GXxSli0DA4fcf1O8TSMhUcfgGZnu37HPbv/gj1/gc0GJ9WWNfeM06F+PagR6ZuoUDGhVCgHk+Gn32D6bPj+Vzi/GYwbDldeDjVruJ6tVDZ63QarvvVNTGxYC+0SXL+qlDc2G4SH+/YAUpx57W2YNEXWxdKQ0AKmvwEd27l+xzOH0+Hzr+T3hYXJ5u2aznBhexEVpf33VDGhVBipaXD/47ByrYTd6p4GMydD96tUSFQVrGKizklw6inyYPKGpfOg5XmuX1XKg6wsOJ4NmZlQeAIax0Otmq5nKaVlykyYOVfWxpLIyoZjGSLmfBETBk+9ALM+gbTDcO5Z8MTDcP21EFW/dIJCxYRSIWQeh2Gj4KPP5KYAGDlMLuRTT3E9W6msWMXEDb3g/gGyK/KGFudJiFYpf5Z/A18ugQVLYcwzMKAfnHKy61lKadn9pwgEb1i+GmbMgcSD/omJw+kwdAR8sVhSzfXrwahhcOuN0KAUgkLL25QKYe58CbEZQiIiAu66VYVEVSa6PrRJgI7tvTtUSFQcJ9WW9OThdIiL0UhioGh2TtHr3NNxZlOoEYDPvX496NAO6tWVPx9Oh9GvwtJV5vrsDSomlHLHZoNXJ0vRpcHZZ2hlvqKECpd0hPp1pYsgKgoiI13PUEKJtq2cI4KH02HdptIVgqqYUMqd//ZBQYHz17p20c4NRQkVklOlpbdBA6n+V0KbSzpCfJxzSmPnbjh61HpW8aiYUMqdDVtkIbISEQFepuYURalgEg9IS3eEpYsjK1uijbm5vvmGKBVLg3pQ01JEm3IIsnOsZxSPiokqQlIK/PkP7PnbPJKSwW53PdMZmw32HYA/LT+35284ctQ0lyotyanyulZiokVQKIoS/GzbCRmZ0KihiIm9++GTL+ClSeKVkJrm+/qgBAeH06XLzltUTFQRXnkLLukGzS+EZh3leGCIc92CO9LSYchwSLjM/Lmrb5DK35xc17MVRakK7N0vu9YzT4dtO+CeR2HMqzDlA7jlXnhvdslri1K5UDFRRZj0Ilzb1bnqev1mEQvF7SBio+GdV6FJI9mB1KkDn38AA2/XanpFqYrY7PDdT7JzPZAkrb2jn4FFc8X0qFZNiVLsP+j6k0plRsVEFaJ1S6m6NjzYk1Nh7ufSW1wcsdHSx1wjEq7vIZ0XEV4aCylKKHEsw/dZIcFEXp54d5TF3yMtTeY6RIRD/5th6kTodBG0aQWXXyzt3Tv3SPFeWfx+JThRMVGFsDnqIxo1NF0G3/9ICm2Ku+lzc8UYxWYTq1VrkY6iVBbSj0h4fsdOKHCp6Qk1Nm6FrTvEHK64e9sXsrKl1io2BtomyEA+g5bnmeZV6Uchv0DWnWMZUkeRckiOo8dKrtdSQgsVE1WIvftkkWzaGOqeKn7syamwcnXxVbvrN0s7p80O7dsExihFUYKJYxnw4kRYvAJq1/J++mKwkngQVqyBjVsCLyi++1nSo7HRRc2q6p0mfjER4RAdJdHMnbvhrWkw4iUY+xqMGg9vTJWurqyswL43peJQMVFO2GzSAZFySHKN1joF43sHkuThfiyj+DoGX9m8XUKfF7SFu26TWQggi+jBZM83dWKSCImICHG70xSHUpnIyoapH4hF9AMDpT6oNNhscDRD7qHM48737rEMSD1k3tvltSO/uY9MkPx6Lfy+sfjNQmnJz5e/Y1xM0Y1FUqqkWKz+ExOnwMyPJf1xfQ+46AJYtgpuuBMWLofsUrgsKsGLiolywGaDrX/AhDfh0adh5HgJqZ44IS2bv66Hl9+A2+6DB5+At96DXX8GPndrs8nrNW0MD94tJiVGdGL1d5DjYcE54EhxNG2i7ZtK5SIvDz5bCB98DPcOgGuvKZ15Wl4ebNoGk96FOx6EmR/BkWMivlMOwbsz4fFn5d6+fzC8/q60aLu2RpcFN/eR9/LZQvgrgL9z0zYRSTHRRcXEIUc9xUm1zFRqr64wfRKMGApXd5bi7Refh1PqwIrVkHrY+TWU0ETFRBljs0kx0ksT4Y1pMo/i3Zlycx9Igvseg259paVqwxZYtELExlU3wPc/By53m5srwsVul0Kp0xvB7X3N6MS0WZ5rJwwx0aZl0cVDUUIVmx3WfA/jJ8lu+ZYbZHKtt+TlSVfDfY9LdG/NDzBhMvy7F7Zsh/89JRuIJV/Dbxth6dcw7jUY9TL8/V/ZRB9dGfOM+EFMnCIbFH+jInY7/LFLIjDuZnJkHpe1ottVEBMlX7vpOhERJ1sGgdU9VYrBMzMDJ3KUikXFRBmTlCIC4qymosQNt7jkVBj0BGzfJUVM9w6A63vK2NewapCcAm/PkJstEKzfbBqQGN0c9w2QvGa1apICWf29e+8Io/iyRg15b4pSGdi9B4aOlIfaU49JYXJp2LIdZs2Dyy6C6Abm17fugEeGScTxvGYywO7Ky2SWRViYRAoWLJGUR1kT1UAe5r/8LhuWxIPuNwzesv+guUa41kzk5cHnC2VTctXl8rs9kZgkkdA2reA0He5XKVAxUcZERMADd8FLI2T3YwyzenacqPjpb8CaheID8fpYuP9OqO3wb1i3SfK5/tz8BoYgqFlDdhTh4VKN3a2LFJwBfLVcwpeuvy8xSX62dUv14VcqBxmZ8PKbUr/09GMSqSstWTnwzisw4QVoGCtfs9skstilEyz7FL5bBG+/ArPfhX7Xy4YCZIORnOr0cmXGzX3gqivE+2HFahExrve4t2z7Qz47kPXDiFTm5cG3P8prNzsHzjjd81qRlw/rNkqUo20rOEXFRKVAxUQZExcjO56cXNiwVYqXAG67URabrl3MiXuxMdCnpykmklPEac7f0CSGmLBL8aU1VfH8UIiLlejE+s2y27IO4bLZJLpis4sQ8Xa2vaIEKza7pPXW/AA9roYul5WuTsKgSydJi6xYLaIERzHni8/Bc0Oh1fnmvR3dQMarG7/HZvf9ge4LY56RteblN2HlWt8LMo2ZHDg2SsePy/qw6lt4ajTUqCm1EWc3df1Jwe4wvFr6NfTu4ViPPIgOJbRQMVFOLPvGLHCMiIB7+pv1ClbioiHc8q9i1Dn4y3/7RRjERjt3Y8TGSEiyVk0RL++8L9EJ158DuKCNLBaKEsrs2Akz54poH/Zo6dMbruzYBccdHQldOsFlF7u/t61DsZJSZIdeXhjpjuoR8OViOJjkm5jZu198JM5qKimNSVNg6Ah4erREdz6eBrfe6FwfYWXPXxK5iY2BQXdJEbhSOVAxUU7kWToziuuKMIylDCLCCcg4zc3bZPFyF114cKAUSxnRicNHzOKwzdvMCZ+uQkRRQo2MTHjqBdibKDVKDeq7nlF6jFZJgMgaUhfhjnp1zTRn+hHnCGBxZGeLr8P+A9JC7uvm4uY+cFEHWLoKVv/gW7qj+9Uwfxbs+AWeHSyiolc3+drnsyTF4Ym0dOlUa9wQ3ngJmp/reoYSyni47JVAs2mruMGB5Ak9hfZcIxFxsWaLlT8YbaFtWpmhV4M2rSQEakQnrBbbhrhxJ0IUJZSwO9Ibm7dDfCwMvM3sOPCHLdsl3A/QornnlElqmpnmjIv1vAZYyc6GBctg2EjoepMUZfszQOu6bvJ3H/WyeFB4agf3ROdL4bxz5b2f3xzu7g+332R+zRNp6TD2VXnvY5+D5g7RkXk88C3wSsWgYqKcyMsDHDdMzRqeow022/+fBkZo1PJnX8jNM0VKDQ+i4MG7zejEjI/EgKew0GwLvaCN2mgroc2/e2H2PDGR6hOgqITd4SdhbBRqRHqOTNgdgh5HOtObNuvfN8L8RXLs+tMUI75iRCeOZ8lrHijGrC5QpKXDiBfl9zwzRCI0qWlSx/XhPJk6anx+Suji4bJXAs3vm8wcaXFFR9YahToneY5M2Gxy5OZKQVROrudFYf0msy20Q9uiveE4ohNXWmonjOjE3v0Sjo1vqCkOJXSx22HBUjh0WHL+A24OTFRi/wEzDQjQugWc7CEykXjQvA8bx7u/D13p3AnGDZfUaKDoebUUhM5fBL+sK310orSMfVWEUHIqTHwHhj4vR5/+8vvrnuZ5PVRCBxUT5YDNBknJZvqisWXQliubt5m7jxuuLTrmOytLFqWNW+VYvAIWLoHlq9x7RGBpC40IN9tC3dGnp+warNGJjVtFBMXHea7zUJRg5999ZlSif19xbwwE23fJPYkjKhEbUzSNaLB1B2Q6zm2bYA7EKokWzZ2HafnLVZdL/VO1arBkZdlHJ+rXk01RRATYC82j2TlwQy/xulFCHxUT5YAxJMugUbznXX5WFhQ6buwLL3AOhebmwZzPoEc/GPIcvP4OPPci3P0YvPaOmbd1xWgLLa7wE6BDG+fOjrnzxY6XE/Kz1Yv5WUUJVux2WOiISoSHiweCN1EBb8jPM+/X1i09RyWycyTVmJ8voqNNy5IFQl6+bBAKCgL7sI9qAOecBbVqid/Fr2UcnRg5DD5+z/1x03XeiyoluFExUQ5stPhL1KwhBjfuogNZWWK9m5MjEYkL2zmH/378RdqqcnOlevrT9+G7JVI8GVXfc652ryN10qaYwk8cbaI39ZaBPNWAGXNgz58iRNRKWwlV/t0Hsz6RqMQZTaDnNaWzzS6O7bvMYuW4GOnmcMeK1VI7ANChnTzM3UUwMo+Lzf6/e+HrNRJ1/O5n+Xog6dVN1qFq1WBxOUQnlMqPh8ePEkisbaEd2rpfRAA++VJMb3AUSp11prPoWLxSdjhtE8zXiIuBaRNhxJOee7s3FdMW6kqHNpDQAqpHSnTCiKhERHguGlWUYGbJSvNB3v0qsbUOFNa20LgY92I9Lx9+2yBtqeHhMvgqyk3xZ1q6zO257na4uDs88AQ8PQbufVRm+QSSfn2gfWvZIHz+lThSekqTKoo3BFxM2Gyi1AM1oKoysG6TGZnwlOJIPwJTZ8kO5NST4cZeMnnPSkamLFxZWXD4sOM1T8gi5qmoMy9P/i1OnIBLLyy5IyM2Bh65T96DQQ2HBbe79x1s5OUFPixcWbHbRbyWx8CpisJulxbII452yvatS04vlIYtO8zIRKP4otE7u13mYixcKvf4uWfBtV2lNslK5nFp/xw/Sa7d54fCpzPg20Xw0wpoeZ7z+YEgPg5qOd7vpm2QYTGrU5TSElAxkZcnrUzTZsFv682uhKrO/gNm8WUjS/GlzSZ1ECmH4OkX4I/dEgEY8rBUcbtGMG7oJYVMK9ZIzcS3P0FSavEPg3WbYO8++f1XXib1ECXRoY2ji8RxdQRzW2hWtlgZJx6U2pRl38i4d28NgaoSefnibpqSKl1D6zaJi+GRchg4VVH8uw/2JUrrYXg4tGrh2QeitNjt8lkaGwWjk8Nul3s7I1MKqt+dKcXM9euJ0ZO7zowZcyQV0jAW5kyB/90Hl18CZzaVNcN1LQgE1rkYhlmdinDFVwIqJr7/WYoDnxwJ/e7xz1ylMmEUQIIsCokHJSf6+0ZYtBwGDIIPP4PICOhxlSwk7nZPHdrKUKLG8SIoBj4Cg4ZI3tbqY2FwLAO27zR7uFd/LzugkhaM2BgY95y5e2oUxG2hS1fBsFFwZR84pwPceCfM+8JMFykmW3dI0e5t90OLi+HibrBwmRgjVVaMwksczrOBKrzETVuozS71Dus3S8vjpCnQ6zb4comI8UnjZEPgarWdnw/zvpTWyaEPQ9PGzt8vK9ommN1b3/4oZl65muooE45nOae7KyMBFRNz55s3V2qa3FjF7ZqrAnl5siux26WocsYcWcRbXAKdr4P+g2SHGFUfhv4PPpwiOxh3xMXIBNKRT4qDXF6+PEy795WhRVbjF5td5g+Mf0Mu4NNOhcnTZY6AN3a8RnSi7mlStGbYAAcb2dmw52+xRzYiYR3bexeBqWrUiIQ138OPv5mDnmoUY/8c6tjtMikz9ZD8uUeA6yWsbaEn14H7H4c2V8Dl18KV18u9l5Mrhc/vvOJeSABs2GLWU7Q8H+q42UiUBS2aS+TDiHps2uo8l0fxn+NZMrb9vdnw8++Vuy4loMtI2wTpX65fTybmNW1SeRcqb/l9oxkG7XkNzJ0KgwdJS9SlF8LFHeDpx2HtVzB8iPuIhCv3DIBvFsD4EXDOmSLcnhsnrWeG8j2UJgvXkIdg1FNyPHCXvBe7FwIvNgZeHgljnpWitUDu6ALJwNvEztf43CLCJXwbrGmZiiShBXwxW+YpGLRpZU6prWz8u8/FUKql+4e5r+Tnm22hd94i8yaeeFjGfV/cQQoth/0Plnwi48c9/e4djo4QTwWcZYnVsXODpjoCRk6OFLBP/xA69ZBhaBu2mKZllZGAPuofHwTvvAoTx8G8Gdo/DKJKrfMt2rWB0c/CnKmwdhF8v0TyqOec5b5d1BNGlGLOFGhQTwqo1lsKPeNi4P47YfCDzscVl3q/YPW4WlIuV1xatLAsmIi1FIfGN4SIII2iBAMx0c5RpvhYiKykn9fyb5xTrQ1jPbdu+sKW7WbLZuuWMlJ71FOw7FO5r+fPklHksSUYZNkd48jrWwaBlRdtW5nF1t/+BDt3l+8008pGTq6kq+YvhpsGwvCxUrNTFQiomABR43feAs3OLt3DsbKSaCm+9NRx4S2H0mRqoDV1VK+u7CwiwqWWojhTqsqKzW6WizRppOZapaFhXOUVExu3mA/78HARUoH8uxomVBTTFuoNxzIcLrkpkn4qz8jA+c2co6HZuVDoRRpUcSY/X9LZn38lqeunR0u9WlXqagy4mFCc2bvfjEzExZgdEr7w4FCZ9rf/oCjgYxmw5ke5YM9vDk0aV00BZwwjAzHX0hSHZ7JzTDFaI1KuyfLeDZcHdrsUnBqFuI3jfX/YeyIpxdzFR0f53nGR0EIe6Klp8Off5ZtXDw939p75eq28D6V07Pkb7n1MTAUbxcHYZyXlFR/nemblxetHmzFYyhN5eSWfg+W8qoK1ZsJf0o/C8tVSkb9oObw5TXJy554FE0YGztUv1DiYZLaCRkZCmIu5Vl6+6bVR1Vn1rVlk1zYBalu8TIyWxsrwOe0/4Byub9MysIWNVntsf2nUUIqzq1WDRStkA+JNkXQgaBTnLL637ZBiUKV0xETD9Ddg928w+124dwA8OFAipVWFEsVERqaEb9ZtEhe341nmYmOzS05yX6LYQP+yTtqLjmU4L0h5eaJ2recdTK7cXgB2u6QlEpPMheHI0eKne5bEVZdDx3aQmgoLlsjr9esDKz6H7lcHfudVnvjTero30byWLnR0cuTlS+5yXyKs+AZ+/k1aBPOruKFVfr75928cL+LLbheviU3b5B7/+19pX87141qtaDZvN82kcMyjCFSKw253uGo6Wk5xpCB9vbdbnicp0FNOhs8WwpQPJKqSlCLrZPoRM7p5LEOKSn35Pe5ocR6cdooZnUhOLf9US2Ugqr6IwmCuLStrihUT6Ufg5TfgsmuhU085lq+S3UtenlT/Dh4O53aAvgPh8l7w0FB4533zRj6UBku/hlvvhbPbm+f16S8/bx2AVZnY/ad8Fvl5UsVd5yR47W35LHyt6H1+KMydBvPel2PSi/Dk/7zrAAl2YqN9q/ew2+UhmJsnIdu2reB4NqxcDT1vgbPaw/V3QOfe8NQosQ22ttBWNTZtNUP/CS1ExG3ZIYViV98g9/g5HeCCq2SX7LoxCBUOJjtHDVzD+b5it4vYWrFarjnj3n7sWfjmW9/v7ZeelynB8XEw51O4/Dq45V5ZL19/V4b4nXqKtN9vC7ApW5QlRZOaJnVeWoRZ9QhzuUfshWa3kjd4FBMZmTB8nEyp3H/AzLOu3ywLzNJVcP0AWLZKPAxq1ZQ3sn6ztCn+9Y+o3AEPwj2PidKuZ6lWXr9ZZlH4evMFO18sgaanw939YdBAOXr3MOdkKM7UiPRtsU88CDbHwhobA0czYNBguG+wtGY1qCdiKyxMRlBP/1BEcig+IAPBAUtKyG4Xf5Jb74X5iyTUXvc0efCmpMoD8tMFgR8yVR4kW+oZMDo5AhC5O5wuIqteXRhws3lv33CttFUa/h2lJToKPnhbQuQvPgeP3gd33w7jR8Izj8ND98CzQ+Ctl2WacCD+LgbhYc73Xn4BnPCifVypXMQ0cPbnSTtcOhMzj2Li4/mihj+cIuYmRuGgzWEEM3QE9O0Nk1+R3vXrezoXcqUfgfsegz//gTv6medd0tHcgW7YHFiFHUyMeBJeG+P+ONVhYasI4eGSv/fFy2JfIuQ7anDsdhj6PGzdCQ/dDasXwuKPxVXQcPqbPU9a+irrdVcSB5PNyMy/e+HFidDsHPhgMvy4DF4fI+mPatVEUCxcBkdD0G57/wHnjUp0gNIc0VESDXS9p18bI54nrjM3SsuVl8HD98JLI0RMXHGJiOFH7xf32/59A2u8haMwvKZFnOzYBRkhKCAV/2gYW3QelL3Q+42XRzHx4N3w0TTo0gmaxJvGJscypOZh5mQJs992o5gvPXKfs6p55S3xwN/yPUyeYJ438knZASlVF2veHsREydeOgk3bTPWclSUPxl9WwOhn4LxzJRc96mkxZzJE7O9VdEJifr7k4Q0htXUHvDcJvpwtI6nPcETSenU1U2db//B9t11RuHZyYKQ5rCcp/090A+dIh0Ymqiatzi8qhpOSvR9N4FFMWMnLlz7+8HAZjf3hFBEZxeW4b7lRznPN5//8e9XdFSqy0P+2wTl8dkOvoteJt1iFycDbJCzcwM1459go83rdsr1qiomNW01hEBkp9+clHYsKuas7m9Ezw1AplEg5VLQuJiYKqgcwNVCZ2bErNFNbin+0aC6RN6tr9ebtktrzhhLFhN0uzoo2mxQHdWzvXkRYh5iEh0t9gLvuAquYiPQxT56dLbnyfYmBP7SSuWz55z+JDBg2xyfXgT49PFsNl8SGLaYwcdcWWlqycyTCkZEhgqOytEriUpTYLsG7CGFKasni326Xh49rxElRlNChQX24/GIphjeey2t/kDXbm1blEsWEdVhXjUjPocL1m03/iDNOd2/OZLfLeYYr2IUX+OZWuOwbaH25VOoH+ljxTcmLp+Ibdjt8utDsYw8Ph8cegPOauReo3nAgyXI9tfNuwJe7yn67HdLSpVp+6mwY+zp8tkCiKBmZleMhaS2+DFRB4vHjEumZ+K6kFoLh3nG38Ln7N1cE1yr+whCMRimBYdBAuKaLtClXqwa7/oR5C+C//SVfE24e+c4YKQ4cPfyeFn3reRe1Lxo6xWEuZB0y1TheLuTSckYTGcfdsV3gjzon4VkxeYHdLkWqVeFwHXleHHn5sHkbTP1A6m4iI6WO4aF7pM/dF+x2qQH4f/fLBM/ul3bL+42Jcva1sNth5x4pGB7zCrw5Vfr9nxkj1rhzPpUixJJuJk+UxTXhy3tJPGBGJhrGur9HcUltREZCNTerRE6ORC3emg7db4YXJpijviua1ENFzaSio/wvwCyLf8dAHL5cC1ai6jsLy9S00Ok4K4t/E38/z1CmQX2JFF9+iXRpVqsGXy6BVWvF16i4z6baicPFPxI++gweelJ8I556VIrZrK55BtcPkIhBQYH4IQwfArVcztv9J1zcXd4UyECcqzv7Fp0IVv76xzF5r5IXMNWqJQWO3uxu8/PFefHex2T3f3Id6HQRzHhDnON8Ze9+GeP+337Zee76Fc4+0/Us4YrrJMVms4nN7XNPmMVGf/0Dw0bBr+th8stwbTeJcGzeBoOfk4LjT96Dnl196zjZusNRq1DsneY9NWrIZ+9JOHnimpvgu5/kHp0wCh4Y6F7IvT0Dxr4mD+UL28PH0+HM0+V7dodR3Tffw4wPJdKYeVwWmWWfirGaN9eEQa/b5NrIz4dBd8n6Ehfjelbp2LAZbn9ALI4N1q2GC9pYzyo9e/4Sc69gurfrnganN/HtujR4/yMY/Yp0wOAY/jX7XSnIC3Z27nE4ugbo3oqMlKGLvtZwWUlJhb53w4+/yp9fHS3OmIFyKp7zmfy7/f2veMZMf0M2xIFg1x549W1YuUZaRE85BV54Cm7sJQZw7sY2lCgmJrwlbzgnxyESnnAfSu7RD775Thbr5Q6R4BrFeGWyvFZ2tryZpJ2iiisTM+bAs2Ml516ZubYrTJsoF1ZJrN8EN98jD/+YaJlE+sBd4gHhT+j5h1/gtvslfH/m6bDmKzi9setZ8gA872KZewDw6fvQu7s8jO126Tx69W2Z+HhPf+eFZMyr8MYUed0vZksKr7TvuePV0hURqIfQFZfCjDdLb9WbcJkYHgGs+kJex1104pnRMG22RGNu7g2TXjJnDKSkwqPPiBC76AL49kdYsFRSQZVdTAweDnM/Dy676bdehttu8m9Cs6uYSGgh04gTWrieGXzceJc88AyvGX9pmwBTX5eoqb+EspgAqWv7cJ5cH1v/kLXyqUelc9PdPVqimBj7GoyfJMVoKz6Dq64oKhLsdohtLrvO8HBI3iUPClfGvS6vlZ0ji/L61UVbUUKdT76ALxaL+KrMNG0CY4Z71/OelCIP5YVLJYTauoWkN67vKWG10j6cDd56T26m9CPSZTR5gqQwXPnzH7jmRhEz4eGw8xfZfeDwqejcW/77x89w7tnOP7t5mzho7t3v28MSx4C2/QEcQxwTDeOGy8RPb8nJhQ5XSaV+eDhs/k5snN3R9SYZR11QAC+Pkof8aaea309JNQ3o1m+CW++Dv//z7fMJJTHxwgRxEA2m2UL3DoCuXfybO+IqJuLj4KuPoL2fn1d58MwYmScSKE45RTbNLZq7fqf0hLKYOJYhLq/vvC+jNGpEyv3z6mgRXO4oUUx0vxlWfy83UNqfUN+NSPh3L7S/UtIXjRvBlu/cf2A9HdGLApu0li6Y45uBk91edjd0eHhRsaQEhplzJWqTekj+PHwIPP6gRKd8ERSvvQ0vTZLrbvCDYhTmTpy+/o6cl35E0iCrvoSmjgjGD7/Ig6d6dVi9QESuKy0vhT92w4vPw8P3+HbNVjRfLYf/PSVdUE2bwMr5MiDOlZxciaRs3ykRyMUfS/7UXQQDR9QpFMTEr1/LQuvLdVbZcRUToZTmCGZCVUwczYARL8JHn0t0snZtGP883Hmr86bCFTelVc4YXRrh4Z4LE//bZ1ZQu2sHxV0nR3vfayX+3Sc23otWBP746x/z76IElnv6y7+7cY28NEmiFb6aIq2zmE/Fx7m/nux2+H2D/I7wcAnbn2oJCa/bJN9r09J9+g7L3BC7PWCp2XLH2rbZLqGo053BouVmTVPvHtD8XM9CIlgJc7GHxijKDFAovLKjnS9Vl+xsGPmSKSTCw2BAX7iue/FCgpLEhN1SAd+kkft2TxwLshEp8NTJsS/RuZPj7DPdF3F4w+Zt8PAwGPi/wB+7/1YxUZaMftq56HLqB+KyVlyVsDvsdthocb9s0sj9dbf7L9Mkq9nZMOhu553BZsdrFCeWDaytlaHG/xeBGp0cbkR/Ti4sXiFiolZNuK4b1C1hAQlGYqLdXwuKewpdLJOjGnjeFCqVm0++lMneRx0W+vENoX8/9xFbVzzIA8EqAM5o4uyMZSXf0hbatIl70WGNXhimVtWqiRIq7YOkaWPxrR90V+CPZmf7LnKUkmmbIHUJxmK/aZt4O5S2qC3Z0hIaHi67bdfuhvQjMHI8pKTJw/GFp2WYjRW7oxWsuKml4Q4r5rTDYC+j9FpZYx293ji+aJvk8SwZ6rXmR2kLvLkPdLlMQpyhhu6sS8ehtLKZsKo44yrago3cPBn8l5Rifq1LJ4iPtZ7lGTePfZN/95qGVRe08bzYWg2r3NnzAqyzpDhiomVh/uY7mT7q2hNeEhe0lUE4E8cF/mh+joqJsqZdK+dWtq+WmSPrvcX6cIyNkRshI1N21UeOiqfJ/YPl+qqGVLx3vrSo4Eg+JL3l1iicK1H1ITxCrltP90Cws9Eyevzcs+Tva3xeKakwebq0x6Yeku8//6REMEKRmChzirFBcf++VR17ofNH4+o7ofhGbp5zlHtvYnAb4H33k0QwraMOEs6Hem7qJN1RrJiwCoDIYqyv8xz52PBw6NDO/YIbYRm0czAJet8ubZTdrpS+ecWZnBy58Pw5ci0W58GE685n0zbHg64U73X9ZgnL16optRKTp0u1/SNPwaAnoNmFsGSl1Ab07wsvj3TfxmpE0ZJTPRf1Gt8LDys5FRKM2O0SySksFH+QhctkWugLE+B/T4sHx5hXZBFJOB/GDvd+NxKsxLk4fB5MDh0jpvLG1eQrsrrnKLRSMgUF0tn41TJJjRp8/hV8vdbZaC+YOHTYHHNg0Pxc71OdxV4yEeHSc2+YDLkrcAOx3KxVU3b1VmdBK2edIYt53dNk53BNFxk05E9/dGVm3gJppR39iu/HytVFL45gICa6aPQnKUUiBN5yOF2upf43i9/B8m9g1iew9GvpDjipNlzTWa6xtya4FxJYCjcLXXZnVowxvJ6KPIOdlFQpOm3dEu7sJ+Zcs+fJ57VkpSx85zWDIQ/Byi/gputCM71hpWGMcyonNU0LMD3hOmY6oYWuy/7wx24YNATGTZTIn/EMzc2FJ0eKiN9/0PWnKh5bgZmJwEMhc3EU2xq6cBn8t1cutofv9Vzt/u5M2UnHx8kESE/FO+s2Sb9++9ZiAqTq1zMXdpUWt/Bw+Tzr1DGHWCWnmuGzU0+RB2e1avK1nFzIzITCEzD0YRgxLPhaGd+cJmLH6BqgBBMld2zaKtXFjeMlErZpq3T5JB4Q74oObaVoyF2UzMqzY2HKTKmVmT9LXs+K3Q4tLhX31k+mQ5+enu+DYCXZMawr1lGYmJwqkZ3sbPn/85vBJR18ExDB2BoK8NJEmDRV0qkg3gGPD3I/Ubaqc+Od0h1nRG6+mC2mdJ7WcaV4/tgFv6w3ixhdOb+ZlAP4uy4HujV02ChpEzbW5ZgomDcDOndyPdM9xT7Or+8Jgx+CoY8Uv4A+fI+cc+uNxV+AHdpC396yyKuQ8ExOrqSCwsNld/3sENj9GyRuh382Oueyxw6HPevkexvXwovPmUZQcbFFIwDBysZtpYuitE1wFgttE8Tq9bFBcHtfMaUqSUgA1Kohn5W1BsPKv/vkQRceLv33xd0HwUpstIgkQ6jFRkOvrtDvehm0dvUVvgmJYKZVC6hj+TslpWiawx12u4xsNz6b8DB5iBS3jivFc35z8ZMY+oj7o8fV/guJsiDNTZqjNOgjPQj5apmMdL/mCpj9Djw72LR4/n2jfM+gYzuzmDEuVh6oPa6WQsPI6qULU1VFrusu6ZIt2+Rmsob5cPguZGRIl1JpdtxKxeJa35JkGb+umCSnOK8n8Q2LFikrijeomAhC0tKl8OX9yUUdRxOTzNqC8PCi0Ye4WHj0fmjcUAyi/BkAVBVomyBH7doy4GpfoqjznBxpLf11nRQh9+0dnLuJisZTRKeiadRQBhIaYjrxoEYm3HEgqWj1vtZLKL6gYiIIufgC+PBd9/NNEg+YXgenN4bqbtIY7dvA6+Nk9kKopDkqkncmyMyZ+Yuky2H+V/D+XBkitvZHyW8+er97q+6qTOZxsQrOPG7+OVjERUILKQg3wvVb/5AIU1m/N9diRiv2Qmcn0mBg207IcPz74fAgCcVUnlLxqJgIQtq3cZh/uREC+xKhwBGZaN8aIj1EHnp1rXx58LIiNgamvQ4DbpaRxk+9IAPutu2EQQNh7jRzaqYi2O0yaO29D6XYt349mDZLHEWDxSW0fWvnAVgHyzDVUVAghWvb/5Ai8/QjZpF0drZ01GzdIRMu//5PBikFg9OuzWaKm7AwqdHy1PmkKMWhYiLE2LDFXBCrVw9J24OgJDYG3n0NflwGS+fBryth3xYY95xGJNxx6DB06yIRtEVz5Rg7XIqDg6VOp00rqHOS+eeyKsIsKIDvf4b7HoNOPeGMtjBgkLj+HsuAKR9A287QrjP07g+desDjw6UK37VGp7zZtFXeIw5L+tObaPGl4hsqJkIMaxi1XWu98csC104RpSix0eJEe0lH5+PMpt6395Y1rnUTex31MIHEXgg//QZDR8KKteb8k7R0EVyDh8Mrk0XE1K8n9Qhp6TD7E5g2W/wvKgp7oUTfjDRVl07uU6uK4g0qJkKI/AJpGTXCo5HVQ9ORUVHKg4QW0tNvOOwuXyVzKAJZs5B2GKbPgZ7XwD23Q31HFKvuaTIXZu2Pkj775D2J3owfKXUJ1arB3M9h3/7Avp/SsD/RnLobFiZ+Ne5Sq4riDSomQojfN7i0hbbVbg1FKY5e3czd9tY/4J//AuuEGRMlNTUvPS8Fz0ZUZs/f4pb60VQYPwK6XimRm5uug9YtROCkHBLzMCMyUN6sXCPiCkeK4+7btTZI8R0VEyHE3kSzLTSyOjSM052EohRH9yvlgW+kOnLz4EQZ1SmkHDKFyrXXwPQ3ZQyB1Z8kJkrmF53iKAytyEmSm7aZ9RI9roLoKNczFMV7VEyEEBu3mJGJDu20XkJRSiImGi690PROWLYKDh9xPSswWDsjul7puf4gOsoUGCkVNDMkOwe2bJeoSFgYdO2iXRyKf6iYCCGsLXeNGmqBoKJ4Q69uEN1AohMbt8KxY2UTDdi8zXw4x0Z7dkwttJu/PzysYsqe5n5uTrRsHC+eNbo5UfxBxUQI8ftGsxq9UUNNcSiKN1zTGVq3kjqFrTtgx27n2qNAUFAgQ9Py8+XeNIo+3ZGaZrZ3x0WX/0O8sBD2H5Diy7AwuK6bpjgU/1ExESLY7WK6Y3RynN5IIxOK4i29u0OMIzqxZKU80AMZnTCiEgBtWpqzdNxRYHEJjYstXniUBfsSYcnX0onSOB7u6a+Fl4r/qJgIEfbul5ysQfs2xe9o7HbIyobjWVJklZ0TfFa+ilJe3NEPOrSXB/fKtVJ8GMjoxIEkM2oYG1P8vbllu1hYh4VJTYdrOqSwUO7X41mQkSkOmnkBvHeXfwOphzQqoQQWFRMhwoYtzu59YWGenQYzj4sZzStviS30I8PgnRmyIzP6yhWlqtG7u9ROpB6CL5cENjqxeTscd0Qm4uM8t2wXFprpkHg36ZACG+z6E96aBmNfhUefhklTYcESsev2l5xcaQlNOwxnni6jsjUqoQQCFRMhgjU0Wr26LADuaiZy8+CZ0WLZ++5M+HotrP1JRMXg5wOzIClKKHJHP+jYzhGdWCP1E4Gy105KNl+rTSvPaY7/9pmCvkMbONVlQudPv8ENd8CEt2D5ajG9enMq3PEQ7P7L+VxfmPWxeFvYC2HYo3BWU9czFMU3VEyECL9vNIu2Orb1HEb9cgnMWyBpjg1rYNO3cGA7vDYGzmgiEQ1Fqar07gHxsWLW9MMvcDRAnR1JqaaYiLG0froye57UPkVEQI+roUF983sFNtkI/LNXZp6sWw37tsK2n+Dyi8UEyx+MqET6Ebi0I1x+CZys48aVAKGPlhAh8aBZM9Eo3nPx5bqNkgvudpVzCPWBu+C7xRAXYz1bUaoWd/SDBwZKuuPDT4u6yvpCXr5EJvLzReR7Euw5uZKuzDwOF7aDyy5yjmDscMzJaNlcBqYZ93hMFHw8HVq1MM8tLYWF8P5HEpWIjoJJL8qIdkUJFB4ueyWYKCiQVi7D/TIuxn2KA2SnVVgoomLjlsDtvBSlsnDXLdCxPRzNgM8XiXOlP/fIqm9lt4+jDdWYz2FgFFROmyX3ZHgY3N1fHGytxERDrZoS5Xjnffjzb0lH4BAUnqKR3rD/AMycK39XLbpUygIVEyHAD79I6NNoCy2wOO258sh9YpiTlAI9b4GnR8O/+2T35elnFKUqERMNfa+Dxg3h4/nwyzrI9aMw2WaDQse9VVgoEYisbDmOZcAfu6Wg8pW3ZJLo/XdKisO1riIsDM4+U97LrE+kzmnHTnk9f+5dmw0Wr5Ciy0s7wiP3atGlEnhUTAQxeXmyALw5DTIzza//th4Op8vC5coFbeDpx6U+os5JMP1DuKynON6lH/FvUVKUysIdt8CIJ8Vg6uU3pIPC3f3kDRsdqQuAxCR4ezq8MEGOW+6BS7rDcy9KJOSyi0TwN4x1fRWJPrw5XgZuNY6H+V9B174w9QPxhjAik6Xl1/UwdZZEPd4YD83PdT1DUfxHxUQQs2gFtO0Mq7+X/OlJteXYuQeef0lSGO4YNBB+WAYTRklKJPUQ3Pu4/EzaYRUUioJDUHS6CP7+DyZNkVSAL/fGZseMC5DUxNz58N5sEQE//iYRh/ObwWMPwNz34NyzXF/BJMZRz7D4Y7i2m0Qpho6A626H7X+U/v1lHpeIyIkT8NbLcJ4KCaWMUDERxNSoAUMeglFPFT3aJXguwgTZ+Tx8L4wcBhdeIFNGFy2H734OXDucooQ6E8fKUK4FS+XBn5VV+gd2isM3AsRNcvIEmDYJxj0n9+qnM+DnFfDySO8LoBNawJTXYOCtEFUftu+EH34VEytvycmFJ56Xos8hD8HFHfyru1CU4lAxEcT07g5PPCz94O4OYxKiFdfaiEED4bOZMhHwoKPinFIulopSWYmJhpFPQudOMGo8rFgjtQ7eCor8fOf0SLcr4bYb4dYb4PFBcp92u6pofYQ7jHoL4/ViouDZJ+D6nnKvpx4yRUtJ2Gzw/hyptxr9DPS73v16oSiBQsVEJePzRWLtW2Cx3q5f1+z+OHTYrBBXFAVat4Rxw+G8ZuLz8P3P3j+0v7Z0cuAQJ548JkoiKQWmzIS//jUFRVR9ec3qERKJ9OR668qv62H2p/Dk/+AWFRJKOaBiopKxeAVc3gu+/QHS0qWuYu58aU075WS46IKiFr6KUtUxBEWL8+SeKShwPcM9hYVmoK84i3tvSEkVy/uX34Qdu0Sk7NwDXy2T+7ddgvcmUzPmSI3GLdd7/zOK4g8qJioZNSJlEbp/iNjy3nQXPOnI1c6dKhMNIzx4VChKVaZ1S3hvIvTtDXW8SEsA7E8020qjGojVva+EhcGxTOm86nkLXNQVOvWUwtDnh8LFHb2veZjwgqQ2VEgo5YWKiUpG3z5w/x3SItqgHjQ7R/K2Py6DXt01KqEoxeFtmqKwUDolln0Dhx1pjpRUSE93nqNTGuJixAOiXx+5f7tcBkMfgdUL4YlH5H72Fn9NrhSltKiYqGT07g6vjoH5s2DBHHj3VXh2sOZMFSWQJCXD0y/IOPFaNeHUU+R44RUZ1uVtzYWVmGjpBpkzVe7daRMlItE2QYWBEvyomFDKnfAw8CO1rCgVTlo69L8ZPn0fls4zj/EjxAjLn9oJRakICgt9i6gZqJhQyp34hhDhR25ZUSqa1i3h0gvdH2ef6V2qRFGCiUOHnW3lq1f3PLTOHaU4VVECQ5P4omFbWzHzRhRFUZSyw11U4vJLIM6N7bsnVEwo5U77NmIpbK18/3WdmAUpiqIo5cvBZMh2WX+rV4ewUqTrVEwoFcJlF8sgMoPFK2XYkrf9/YqiKEpgWPWtDKkzqF0LrukMDUsxXVbFhFIhjHoKLukINWuaX/v7H8jNs56lVCVy8+DIUZmI681hs7i8KkplICfX+3vgeBYU+jhJ1kpevgyTPJgsf64RKQZuPa+WTiVvqXbisE5qUCqGg8kw8BFppcvJlT77D9+FSy+CmuqHUSXodZvsinxppdywVlwhFaWy8NrbMsHWeLB7S0ILmP4GdGzn+p3iKSiA2fNg/CT4b78IiQH94JnH4cymrmcXj0YmlAqjYay00vW9TtwD0w7D5OlSP5F5HOwBUN2KoiiKM3a71Kgt+Rreek/Ey1lN4bmh8MLTpRcSqJhQKpr2bWD2FFg2TyYtHkiCW+6D6R/KwCMNZVduakTCSbV9O0rTtqYooUD16lDbzbVe0lG7lvj3eMuOXTLU7smRYrb2+IOw4nN47gnZ5PmCpjmUoGTDZmjR3LmmQql8rFgtOWJf6H4V1D3N9auKErrs2Al7/nH2e/CGqAbQvrX398OOXTKJtnGj0tVFFIeKCUVRFEVR/KIUgRFFURRFUZSiqJhQFEVRFMUvVEwoiqIoiuIXKiYURVEURfELFROKoiiKoviFiglFURRFUfxCxYSiKIqiKH6hYkJRFEVRFL9QMaEoiqIoil+omFAURVEUxS/+DxzA4PiVsUjMAAAAAElFTkSuQmCC;" vertex="1" parent="yAmNTWqrZYA3S9iadCmw-12">
          <mxGeometry y="60" width="430" height="98.79" as="geometry" />
        </mxCell>
        <mxCell id="yAmNTWqrZYA3S9iadCmw-11" value="Fluxo de massa, com base nos dados compressor:" style="rounded=0;whiteSpace=wrap;html=1;" vertex="1" parent="yAmNTWqrZYA3S9iadCmw-12">
          <mxGeometry width="430" height="60" as="geometry" />
        </mxCell>
        <mxCell id="yAmNTWqrZYA3S9iadCmw-13" value="&lt;b&gt;&lt;font style=&quot;font-size: 36px;&quot;&gt;Compressor:&lt;/font&gt;&lt;/b&gt;" style="rounded=1;whiteSpace=wrap;html=1;" vertex="1" parent="yAmNTWqrZYA3S9iadCmw-14">
          <mxGeometry x="44.74000000000001" width="343.51" height="70" as="geometry" />
        </mxCell>
        <mxCell id="yAmNTWqrZYA3S9iadCmw-25" value="" style="group" vertex="1" connectable="0" parent="1">
          <mxGeometry x="1189" y="387" width="441" height="581.17" as="geometry" />
        </mxCell>
        <mxCell id="yAmNTWqrZYA3S9iadCmw-15" value="" style="shape=image;verticalLabelPosition=bottom;labelBackgroundColor=default;verticalAlign=top;aspect=fixed;imageAspect=0;image=data:image/png,iVBORw0KGgoAAAANSUhEUgAAAdsAAAIqCAYAAABsXOAVAAAAAXNSR0IArs4c6QAAAARnQU1BAACxjwv8YQUAAAAJcEhZcwAADsMAAA7DAcdvqGQAAP+lSURBVHhe7N13eFRV/vjx96T33nsggUAoofcuRREUBURAFNuuK7p2EbGtoFgQC2sDREVpAtKl95ZGQnohvbdJmSTT5/7++JL7IwOoqLCA5/U8eZR7zj13Mpm5n3u6QpIkCUEQBEEQrhkL8wOCIAiCIPy1RLAVBEEQhGtMBFtBEARBuMZEsBUEQRCEa0wEW0EQBEG4xhRXOxpZq9ViMBjMD8tsbW2xsrIyPwyATqejsrKSpqYmdDodgYGB+Pr6tsvT3NxMdXU11dXVuLq6EhoaioODQ7s8V0uv16PT6bC2tsbGxsY8WRAEQRCuqasOtpmZmSQmJqLRaDAajRgMBjnAarVaIiIi6N27N+7u7uanUlFRwffff09CQgK2trY8/PDDjB49ul2euLg4Nm3axJkzZxg5ciSPPfYYwcHB7fL8Xg0NDRQWFpKTkwNA//79CQsLM88mCIIgCNfUVTcjZ2ZmsnbtWvbu3cuqVat44YUXeOedd9izZw8//fQTa9asoaCgwPw0WW5uLrt27SIvL888CS7UbM+cOcPx48dRKpXmyb+LTqcjLS2N1atX8+qrrzJv3jw+//zzX31dgiAIgnCtXHWw9fLy4oEHHuDDDz9kypQpuLm5ERgYyLx583j33Xe57bbbsLGx4fz585w8eZIjR45QWFiIwWDA39+f6OhoudarUqlISUnh9OnTVFVVARATE0NkZKTZVaG+vp709HROnjxJQkIC5eXl6PV682wAtLS0EB8fT0JCAmVlZTQ0NJhnEQRBEITr5qqDbUxMDFOmTCE0NNQ8iX79+jFhwgQKCgpYvnw5r7/+Os888wwffvghqamp7fp6dTodJ06c4D//+Q/PPvss33//PWVlZe3Ka1NVVcXmzZv5/PPP+e9//8vixYv55ptvyM/PN88KgI2NDRMnTuTrr7/moYcewtHR0TyLIAiCIFw3Vx1sXVxcsLOzMz8ss7W15fz580iSRFBQEEqlkv/+979s27YNlUol59PpdBQXF1NXV0dubi7Lli1j3759l9RW9Xo9u3bt4sMPP6SpqYlBgwZRU1PD8uXLOXTo0CX5ARwdHfHx8RFBVhAEQbghXHWw/S3Ozs48++yzfPLJJzz11FN06tQJLjQZq9VqOZ+TkxMzZ87k9ddfp1evXlRUVJCbm0tTU9NFpUFlZSWHDh0iOzsbFxcXPDw8sLa2pqqqitzcXBobG9vlFwRBEIQbzV8ebFUqFQkJCWzbto20tDQ0Go15FpmzszN9+/aVm6Sbm5vbBWQuBNva2lpsbGzIycnhxIkTeHh4MGHCBMLDw9vlFQRBEIQb0V8ebE+dOsX8+fN59tln+eWXXy6pqZrT6/UYjUa40NdqbW1tngUupI0cOZKFCxfyxRdf8N133/HII4/g5eVlnlUQBEEQbih/SbDV6XTy4KeDBw8SGxtLt27deOCBB+jcubN5dplOp+PkyZNkZmbi5OREYGAgzs7O7fK4u7vj5eWFVqslJyeH+vp6nJycfvfiFDqd7rL9uoIgCIJwvfzhYFtXV0dlZSUajYba2lqKiopobm7G09MTDw8PamtriY+PR6lUYmVlRWVlpTwFx8bGBkmSOHXqFOvXr6e4uJi+ffsSExODVquVa8PNzc0EBgYyYsQIwsPDOXz4MMuXL2fNmjUcOnSI2tpas1fVXmNjI+Xl5bS0tNDY2Ehtba0IvIIgCMJ1Z/nmm2++aX7w9ygsLCQrKwtnZ2ciIyMJDg4mNDQUDw8PnJ2dUavVSJJEYGAgAQEBuLu7061bN7RaLdbW1kRERFBWVkZ5eTldunRh1qxZDBkyhKqqKioqKvDx8aFLly5ER0fToUMHXFxc0Ov1VFRUUFBQQGBgID169PjVEccVFRUUFRXh4uJCUFAQERERRERE/O5asSAIgiD8Fa56ucbfS6VSYWVlhb29fbv/Ly8vx87ODg8PD1QqFdXV1bi5ueHp6WlexCXaatI+Pj5/er1kQRAEQbherlmwFQRBEATh//zhPltBEARBEH4fEWwFQRAE4RoTwVYQBEEQrjERbAVBEAThGhMDpK4RjUaDVqvF3t4eCwsLdDodAFZWVjf91COTyYRer8fW1tY8SfgLqNVq7O3tzQ8LgnAT+0PBtrm5GZVK1W7LPC5sLmBra0t+fj5OTk4EBQVhZWXVLs+vqa6upqamBh8fH7y9vc2Tb3gNDQ3yPrtVVVUUFxfj6uqKu7s7JpMJrVaLk5MTMTEx8p6+l2MwGCgvL6eqqoqOHTvi4eFhnuW6M5lM1NfXU1RURH19PY2NjQwdOhQfHx/zrH8bJpOJo0ePEhkZSVBQkHnyVcvNzSUnJ4ewsDC6du2KQqEwz3JTaGhoICMjA1tbW7p27SoeHG5iKpWKyspKdDodzs7OeHp6ymsbGAwGmpqaaGxsxNLSEldXVxwcHNotudvc3Ex9fT1ciA9t972WlhaUSiVc2KXtRrjHXWt/aFGLqqoqfv75Z86ePUt5eTlFRUWkpqaiVCqxt7dnw4YNtLa20qlTJ6ytramvr0ej0WBtbY2Fxf+1XLe0tKBSqbCwsJAD8unTp9m3bx/u7u4EBwebXfXG1tDQwJ49e/jll1+oq6ujuLiYX375hfXr12MwGDCZTGRkZFBYWEiHDh1+9WFCp9Nx6NAhNm3aREREBP7+/uZZrlpTUxPl5eW/GuR/TVNTEwcOHOCnn34iKyuLxMREoqOjCQgIMM/6t6HT6Xjsscfo2LGjvLvVn7F9+3ZmzZrFpEmT6NChw00bbEtKSnjuuec4e/YsQ4YMwc3NzTyL8D/S1NREfX09FhYWV1yHnguBtLi4mDNnzhAbG0tKSgrp6elYW1sTGhqKwWAgNTWVkydPUlBQwLlz5ygrK8PZ2bld4CwvL+eXX37h9OnTuLi4yPf1yspKfvnlF06ePImzszMhISEXXf3W9If6bIODg4mLiyMtLQ13d3eCgoJwcnKiuLgYvV7PhAkTGDBggPxEe+rUKU6dOtVuP9ucnBxOnTpFVVVVu3LHjx9PZGSkfOxmkZGRwc8//4yLiwvPPPMML774InfccQe9evXixRdf5JlnnuHll1/miSeeoEuXLuant2NnZ0ffvn2577776Nixo3nyVTMajSQlJbFq1SrzpN+turqaw4cPEx4ezgcffMDixYvp27evebb/KUmSfnWXqb+alZUV//jHP+jXr5950h8yceJE+WH0f02j0fAHGr0AiIyM/NU9r/+XtFqtvPHJrU6v11+yPG16ejr79u2jrKys3XFzlZWVrFu3jkOHDtG/f3/GjRuHXq+nqKgIgLKyMjZu3EhSUhJ9+vTBysqKDRs2cOTIkXbX9PT0pLa2lqNHj7YL7u7u7jQ0NHD8+PFfXQXwVvKHarYAP//8M8HBwUybNo0ePXoQExNDUFAQNjY2WFhYIEkS9vb2VFdX88MPP5CVlYVCoUCSJHQ6Hfv37yc+Ph6DwSB/AdrSnZ2dsba2pqysjPPnz1NXV0dJSQlpaWnU1dXh4OAgB/KKigrS09MpKytDqVRSVVUlB3AnJyezV/1/lEolmZmZZGdnU1paitFoxMnJCUmS5Ovk5+dTW1uLhYUFtra2WFpaotFoyMvLIykpiaKiInQ6Hfb29uh0Oo4fP87Ro0dxdHTE0dGRrKwsjhw5QnV1NWFhYVRUVFBVVYVGo8HKykp+bTU1NaSlpVFUVERpaSlcCLaNjY3Y2Njg5+eHpaUlWq2W4uJiEhMTyc3NRaVSyZs2VFRUUFhYSFVVlbyMZmtrK/b29lhZWVFcXMzatWs5evQoHTt2lN/D5uZmsrOzKSgokFf2utzKXGq1mtOnT7Nu3Tqsra0JDw8nIiICvV5PTk4OGRkZFBcX09TUhJubGxYWFjQ0NMjvb11dHenp6XJTkzmj0UhFRQVJSUmUl5eTm5uLg4MDTk5OaLVaUlNTyc7Olpuw3d3dsbS0RKVSkZWVRUlJCSqVinPnzpGYmIi9vT1NTU0kJSWRnZ1NU1MT7u7uWFlZIUkSKpWKs2fPkpqaSkFBAfb29pdsgNFGkiRaW1vJysqioKCAvLw8jEYj7u7uKJVK1Go1/v7+2NnZoVQqSU1NRa1Wk5ubS0pKCkqlEk9PT/lGU1dXR2pq6iWfV71ej5+fH4sXL+b++++Xa7ZKpZK4uDgyMzMpLS3F0tISZ2fnX631ZmRkyK0oDQ0NeHl50djYSHp6OiqVioKCAlJTUykuLsbd3R1bW1u5vOTkZM6dO0dcXByWlpZ4eHhgaWkJF5ZoTUtLIyMjg+rqarnbSKFQoNFoSE9PJyUlhcrKSrZt24azszPjx4//1Zrtxd+3iooK7O3tsbOzk/+eRUVFFBQUoFKpsLGxwcbGBpVKRXZ2drv7QkVFBXZ2dlRUVJCcnExmZiYtLS04OztjY2NDbW0taWlpVFZWUlRURGZmJnV1ddja2mJnZ0dLSwvnz5+npqaGsrIy+fPq7OxMfn4+SUlJZGVlya/D1tZWrv3l5eWRl5dHS0sLjo6O8n0kMzOTvLw8ampqsLe3x97enpaWFrKyssjMzKSsrAy1Wo2dnR02Nja0tLSQnZ0tv4bs7Gx55b3CwkJyc3MpLCxErVbj5OR0xS66uro6MjMziY+Pp7CwEBsbGxwdHamtrWXnzp3ExsbChc+2ra3tJd95g8HAoUOHOHjwICNHjuTOO+8kMDCQfv360alTJywtLdm3bx+ZmZlMnz6d/v374+bmRkJCAnl5eQwbNky+v+l0OmJjY6mpqWHSpEnySoE6nY74+HgaGhq4//77sbGxobS0lKSkJAoLCyksLKSkpASDwXDLNDH/qWDr4uLCgAEDsLGxQalU4uLiQm1tLR9//DFpaWl06tSJzMxM1qxZQ2FhobxxgCRJbNq0iYSEBJRKJbW1tdja2nLs2DG2bNmCj48P/v7+7Nixg//+97/yF27t2rUcOnQIHx8fIiMjUalUbNiwgY0bN1JVVcWZM2dISEigsrLyik0TSqWSPXv2sGXLFhITEzlx4gQqlYpOnTpRWlrKhg0b2L9/P3FxcZw+fZqGhgYCAgJwdnYmISGBlStXsmvXLk6fPk1WVhYuLi7Y2Niwd+9ejh8/TktLC2VlZSQlJZGcnEx1dTWNjY2kpqayZ88eDh48SGBgIJ07d6ampobNmzezadMmzp8/z7FjxzAYDISEhPDdd9+xa9cuhg8fjp2dHenp6Xz99dds27aNU6dOkZSUhIuLC15eXhw/fpxVq1aRmZlJVlYWu3fvJi0tDUtLSyIiIoiPj2fFihVUVVXR1NRETU0N3t7eJCYmsn37dtLT00lOTsbFxeWyNWmlUsmuXbs4cOAATU1NWFtb06VLF86dO8eXX35JbGwsycnJnD17FkdHR/z8/MjNzeX999/nwIEDGI1GvvnmG3x8fOjWrZt58SiVSr755ht27NhBfn4+W7ZsITw8nNDQUJKSkvj88885d+4cZ8+eJS4uDnd3d0JDQyksLGTJkiVs374dGxsbtm/fzqZNmygsLESSJDZv3syWLVs4ceIE0dHRBAYGotFo+OGHH1ixYgVnzpxhx44d1NfXM2jQoMs2qxmNRk6fPs2aNWvIz8/n0KFDqFQqBgwYwKlTp5g7dy5Dhw4lJCSEc+fO8cQTT6DX60lNTWXXrl3s2bMHHx8fefertWvX8v3331NdXc3JkyfZt28fDQ0N2NjY0KFDh3bBVqPRsGLFCr7//nvi4uLYu3cvhYWFDBo0CDs7u8sGXLVazUsvvURKSgrnzp3j3LlzjBw5koqKCl566SWqqqrIzMxk3bp1rF27FldXVzp06ICdnR3nzp3jgw8+YO/evfLnu3///ri4uFBUVMTnn3/Orl27+OWXX/jll18ICAggPDwca2trdu7cyaeffsrOnTtRKpUkJCTg7+/PhAkTrhhsS0pKWLFiBUePHiU2NpaDBw/SoUMHAgMD2bp1K2vXriUvL48zZ85w+vRprKysCAoKory8nP/85z+kp6eTn5/P7t272bp1K9bW1pw/f57t27ezfv16EhIS6Nq1K35+fpw5c4bXXnsNrVZLZmYmmzdv5siRI9jY2BAaGkpNTQ3Lli0jLi6OnJwcNm3ahL+/P05OTnzzzTf8/PPP7N27l9jYWOzt7QkODqa8vJyff/5ZbmqtrKwkNDSUhoYGVq9ezd69e0lLS+PcuXMEBgbi5+fHoUOHWLNmDadPnyY9PZ20tDTc3NwIDAykpKSEJUuWkJKSQnZ2Nj///DO+vr7Y2NiwadMmTpw4weHDh2lsbKRz586XfUBs++zt2LGD3bt3s2fPHjQaDVFRURQUFLB69WqSkpJQqVQ0NTUREBCAn59fuzJUKhXr168nPz+foUOH0traSnl5ORYWFri5uaFSqdi8eTNKpZL77rsPZ2dn9Ho9SUlJVFRUMGTIELmbrC3YlpeXM27cuEuCbUVFBRMnTsRgMPDLL7/w7bffkp2dzb59+9i5cyeenp706tWr3eu7Wf2pNquSkhISExPZv38/mzdvprCwECcnJ2pqauTO7wEDBhAREcGYMWP48MMPeeKJJ7jtttvo0qULw4cP56233mLRokXccccdODk5yaN2nZ2dcXV1xWAwEBERwYIFC1iyZAnW1tacPHmSxsZGUlJSiI2NZfz48bz77ruEhobi6urK9OnTr/gHOnr0KPv27eP2229n9erVPP/883To0IGWlha2b99OQUEBCxcu5NNPPyUmJoZDhw5x7tw5qqqq2LRpE3V1dXz00Uc8+eSTZGVlsW3bNtzc3Ljtttu47bbb+Ne//sXq1av58MMPGTNmDAMHDuSTTz5h9erVPProo/JIZIPBwOHDh9m5cyf33HMPH3zwAfPmzSM4OBgrKyuMRiONjY1wIRjt2LGDzMxM3nvvPZYsWYKVlRXr1q0DICAggNbWVsLCwnjttdf4+OOPUSgUfP/999ja2tKtWzdGjBhBz549Wb16Na+//joODg4kJiYSExPDBx98wLPPPnvFvYF9fX2566676NOnDzNnzuT111+npaWFlStXYmFhwfLly/nggw/w8/NjyZIl1NbW4uXlhZWVFXZ2djz22GO89tpr9OnTx7xoAPmJ+/HHH2fJkiUsXLiQjh07Ultby1dffUVMTAyrV6/mk08+oWPHjixduhSVSoWXlxfW1taYTCZmzJjBV199xQMPPMDOnTvp0aMH33zzDUuWLKGmpob9+/djNBrJzs7mjTfeYPLkyWzYsIFnnnmGzz//nJKSEvOXBRf+Tnv27MHBwYE33niDpUuXEhMTg0KhwM7OjurqagAUCgUhISHk5eXh6OjIe++9x44dO3B3d+fjjz+GC4Fw+fLlDBs2jHfffZcuXbqQlZXFQw89xNixYy9pQk5OTmbx4sU8+eSTbNy4kUceeYSvv/6a0tLSKzbx5ubmkpqayqJFi/jmm2+47bbb5IejttaSBQsW8OWXX9KrVy8WLVpESkoKzc3NzJ8/n86dO/P111+zfPlyUlJSiIuLQ6PRsHz5cuLj43niiSf46KOPcHJyYvfu3TQ1NVFVVcX8+fNxd3dnyZIlfPDBB3Tr1u2KNS8uNOd+9dVXnDx5kueff57ly5czbdo0fH19qaur48svv2Ts2LG8++67LFu2DEmS2LFjB9XV1fj5+VFRUYFOp+Pxxx9n9erV9OrVi71799KtWzdWr17NW2+9RX5+PhkZGeh0OmxtbVGpVLi5uTF//nxWrFhBSEgIu3fvpri4GG9vb/R6PZIkMW3aNN555x0GDhzI1q1baWlpYcmSJSxfvhyVSsUvv/xCVVUVZ8+epba2llmzZvHRRx8xfvx4HBwcSE5O5tSpU9xxxx2sWLGCuXPn4uvrS3FxMd9++y1BQUF89tlnvPXWW5hMJg4cOEBFRQXW1tZyTXfGjBm8+uqr9O3bl+PHj9PQ0MBjjz3Gyy+/zKhRoy7bQsSF97VDhw7Mnz+flStXMnLkSPLy8qiqqmLQoEEMGjSI7t27s3DhQl5//XV69uxpXgR6vR6DwYCTkxMlJSV8/fXXLF26lK+//ppz587R0NCASqXC29tbHrPh4OAgb0BzuT3M6+rqSEpKIjY2ltjYWBITE+WWPC4MNuzSpQuLFy/mgw8+4LbbbqNHjx6MHTu2XTk3sz8VbNPT09mxYwc7d+4kJycHrVZLUFDQH672Ozs7t2vScHJywtfXF19fXxwcHIiMjCQ0NJTm5mZaWlqoq6vDwsJCHvSj1+tpamrC0tLysv0AbU9flpaW8o1/wIABTJkyBZ1OR2ZmJv7+/kRGRuLt7S3X2tuaidp2G9Lr9VRWVuLo6HhV01/s7e1xcXGBC6P08vPzcXR0pF+/ftjb2zNo0CAmTJiAnZ1duy9TW5NSWFgYVlZWFBQUyM1LXGh2dnNzw9bWFjc3N1xdXQkNDZXPv5y2JtXU1FQyMzNxdXWld+/e5tmuSKlUkpOTw/jx4/Hw8MDDw4NBgwahVCopLy/HysoKX19fPD09cXFxYeTIkVfsi7e2tsbOzo4dO3aQl5fHoEGDiIiIoKqqikOHDjFo0CC48P716tWLrKwszp07h6Wlpfz58PLywt7enqFDh2JpaYm3tzfW1tZER0fLWz5qtVoOHDhAYGAgo0aNIi0tDS8vL8LCwlBdNJ7gYgqFAgcHB2JjYzl8+DCSJDF69GgUCkW7kdgKhQJfX198fHzw9fWVj3fv3l3+/6amJnJzc4mIiAAgKCiIvLw8fHx8LltLPXToEJ6enoSGhpKSkkJkZCSRkZFYWFjIrSeJiYnyj16vp76+HkmS2LdvH0VFRfLnqY2XlxeWlpZ06dKFp59+Gp1OR1FREYWFhZw/f57hw4fLU7scHR3JzMxEq9WyY8cOIiMj5ZH14eHhNDQ0yA+NOp2O5557Tm6J+S1KpZKdO3cSExMjb8s5Z84coqOjiY2NxdbWlujoaBwdHXF3d6d///4UFRXR0NCAu7s7NjY27f47YMAALCwscHBwwMbGhqioqHY16ou/H7a2toSFhdGjRw9ycnKorKyUj7u6uuLj40P//v2xs7Pj4MGDGAwGWltbAQgJCUGv18vdNDU1NZw9e5aqqiq6du1KQEAA9vb2WFtbyy0LUVFRhIWFkZKSgk6no1u3bnh6ehIYGEhkZKT8HWy7/zk7OxMREcGQIUMICQmhtbWV8+fPEx8fj5eXF717976k6bdN2z3TaDRiNBqxsrJCrVZjMJs58mtaW1tRqVSoVCo8PDy49957GTx4MCdPnuSbb76RHzANBsMlfcJXUlpayu7du9myZQtbtmxh586dZGZmyukeHh4MGDCA8PBwuUVo6NChN91A2V/zp4LthAkTePPNN/niiy949tlnCQ8PN89yTYWGhuLl5UV+fj4nT56UP/BXeh2NjY00NDTg6Oh4SX9u24jpi497eXlha2tLbW0tarUatVot97nZ2toyY8YMJk2adNnmx9/S3NwsN+P81gdKo9HIfdrJycmo1WrGjBnDfffdJ9eUr1ZwcDB33nknSqWS5cuXs3HjRsrLy82zXZFOp0Or1cqBw9raGm9vb2xsbOSh/r+Xh4cHd911F/Hx8SxZsoQ9e/agVqtpaWlpl8/W1pYuXbrI/c1Xy2g0yv2e8fHxFBQUUFtby8svv3zZLgcu7L380EMPER4ezpdffsmKFSvIz883z/a7+Pr6MmbMGE6fPk1cXByxsbGMGjXqkhptG41Gg52dHQkJCeTn51NQUMBLL72Em5sbhw8fZuXKlaxYsUL+aWlpYcSIEYwYMYINGzbwxRdfcPTo0SveEPv164etrS3Nzc0UFxdjZ2cntxadP3+eJ554ggkTJsgPdZaWlqSkpHD+/HlGjBjBlClTcHZ2pq6uDl9f36v6Hmg0GkwmE8HBwZcEZ6VSiZOTU7vyOnToQH19vRz0fktb8Pw1Wq0WlUp1xfdHp9NhNBqprq6W+4HHjx/P7NmzCQgIYOTIkcTExLB7926WLVvGsWPHaGpqYvjw4UyaNImcnBy+/vpr9u7dS11dHU1NTfKDaZu2ZtVf+70GDx5MeHg4W7du5csvvyQtLe2KwVOtVpOSkiI392dmZqJUKv/Q98XHx4eBAwcyduxY7rvvPnr16kV+fj7V1dVYW1vT2Ngot2C2sbS0vOw9qWfPnrz66qu89957vPfee7zxxhuX1Fq1Wi1xcXHs2bOH7t27M2nSpHbpN7vLf8v/gODg4D88reSP6tWrF0OHDiU/P5/vvvsOT09Phg0bZp5NZjQasbCwuGxTh6urK05OTmg0GvnLZzAYsLGxwdnZGVtbW9wv7Ml73333MXv2bGbPns3w4cMv23fyW3Q6HfX19SiVSrnp/NdYWFgQFhbG9OnT5WuPHTv2is1Jv8XKyoqBAwfy0Ucf0adPH3bu3MnWrVvNs12RhYUFFhYW8vtoMpnkB4i22vvv5erqyoMPPsiHH35IaGgor776KkVFRXLwbhthLEkSLS0tNDU1XbZv+bdIkoTBYMDZ2ZmpU6fK7+N99913xalYCoWC0NBQVqxYwdChQ9m1axeff/65ebbfbdGiRezZs4cffvgBb29v3n777SsGW71ej7OzM3fffbf8WmfPnk1gYCAdO3Zk+vTp3H///fJPW9D67LPPWLBgAYWFhXzyySdXvNGmpaVhYWFBp06d0Gq1VFdXM3bsWGbNmiVfqy0g29nZ0b17d6ZNm9butbi6umJnZ4e1tTU6nQ6TyWR+mcsyGo3Y2NhQVVWFVqttl9b2ANDS0iKXp9Vq8fHxkQP/X6G0tBQ3N7crfn8NBgNWVlb06NGDe++9V/6dJ02ahL+/P/b29jz55JM8/vjjNDQ0sGbNGjIzM3FxcWHevHm8++672NjYsG7dOjIyMuQuj4sDpaWlJU5OTpc8cFysR48ePP300zz00EOkp6ezefNm6urqzLMBEB8fzxtvvMGBAwfw8vLC39//sq18v8bOzg4XFxcMBgNqtRoujB5u6xry9PTEx8cHlUolD0ZtaWmhsbERDw+Pdi07V6OoqIgNGzag0Wh4+OGH23Urmr9vN6PLf8t/p7Ynv4u1tfe3sba2xt7eXn6KvLhJo7W1Vb5BtwU5tVrdrsy2YxeXefE1TCYTHTt25MEHH2TKlCk4ODigVCov+4fx9fWlZ8+eVFRUsGvXLs6fP09ZWRnV1dU4ODjg6upKUVGRPOo188KIRj8/P4KDg/Hz8yMjI0Me5VdUVCQP+uJ3NKu0fXj1ej1ubm4EBQVRVVXFiRMnKCwspLi4WP7wcuGGpNfrcXJywsbGhvj4eM6cOSPnrayslPOp1epLgrbRaGx3TKfT0djYiFqtpqqqitTUVBwcHBg6dCidOnW65AHkYm2LcrRxcnLC29ubEydO0NDQQG1tLZmZmQQEBBAdHQ0Xft+GhoZLbqYXM5lMNDQ0kJ+fT48ePZg4cSK2trZUVVVha2tLeHg4Z8+eRa1WywNvIiMjiYqKMi9KJl00Beji/7e1tWX48OHySPG8vDzKysqoqKiQ85gzGo0kJiZiNBp5/PHH6dChw6+2AJiXI0mSfMPiQk0mKCiIyZMnM378eCwtLeX0i/MBDBs2jLq6Og4fPkxubi5lZWXk5eVhMpkYMmSIXItt+7Gzs6OgoICWlhb69+/P448/TnV19SXfUS5M7Vi/fj1RUVH07NmTLl264O3tzd69e8nIyKC0tJSysjLq6uowGo107dqVY8eOkZSURElJCWVlZZSVlWEwGOjSpQvV1dUcO3aMzAujpvV6PVqt9op9yxEREfTq1Yu8vDx51HFZWRkqlYqIiAjq6+tJSUmhrq6O6upqEhMTiYiIuOoHeu1lpvo0Nzdz/vx5UlNT6dKli9zvaH4/Cw0NJSYmhoSEBE6ePElxcTFlZWXU1NSg0+nkv8mIESOYNGkSjo6OaLVa+Z4SHh7O0KFDaWlpobq6mpCQEBQKhTzToa6ujuTkZLy9vdu1xl18f2trQpYkiXHjxsndAlfq9jh48CB5eXn079+fXr164e3tjcFgkMuzsrLCYDDIzcTmnzku1GhjYmLQarWkp6dTX19PamoqhYWF+Pn5ER4eTocOHTAYDCQlJVFdXc3p06fJzs4mKiqKwMBAuawr3RPb7k1t97j6+nr2799PXl4e9957L1FRURQVFZGenk5TUxPx8fEkJiZe8fN0M/hDo5Grq6vZs2cPWq2W7t274+3tLT+dFxQUsG/fPhQKBQMHDiQ4OJj8/HzKy8vlvtS24fSZmZnyYCCAs2fPkpycTKdOnejQoQMZGRmcPn0ab29voqOjUalUHD16lKamJnr37o2Hhwc7d+6UA2fbtIXW1lZ8fX0vaSrmwpNkTk4Ox44do7S0lPr6enQ6Hf7+/thcGH6uVqspKSnh8OHDhIaGcv/99+Pt7U1zczPJyclkZGRQVFRESUkJNjY2+Pj4kJaWRmxsLJ6envTu3Zuqqip5ztmgQYOwtbUlNjaWuLg4unTpwuDBgwFISEiQR+UVFBRgMpnw8vLizJkz5OfnExMTQ3R0NPb29iQnJ5OWliYPjdfr9YSGhspz5zw8PBg4cCCtra3ExsbKIwMdHR3lc9r+Vm2TzQ0GAyUlJeh0OsaNG3fZRSq0Wi1paWns3buX0NBQ+vXrh52dHa2trSQlJaFQKCgrKyMlJYXBgwczbNgwqqqq+OWXXygoKGDkyJFXHHxlNBrJz89n8+bNGI1GTpw4gU6n45FHHpFvXsePH8fNzU0eDTx79mw6d+6MUqlk//79tLa2Mm7cOCwtLTl37hyHDx8mJiaGyMhI8vPz2bBhA76+vowcOZKIiAiysrKIj48nKyuL8vJympqa8PX1vWwNQKPR8PLLL+Pi4kJ5eTkZGRlMnDiR6Oho0tLS2LVrF0OHDiU6OprS0lK++OILunfvztChQ1Gr1XLf1MyZM7G3t2ft2rWcOXMGpVJJfHw8+/btQ6fTERkZyblz59i6dSuDBg2iR48euLu7k5aWRmJiovxwV1ZWRo8ePbC8MB3H3Jo1a1BemFJUVlbG4MGDiYmJwdrampUrV8q/5+HDh0lOTubBBx+ke/fu+Pv709jYyE8//SRfp23Qjo+PD3Z2dhw9epTMzEyqq6spvDAFJTg4mI4dO5KZmcnx48cpLi5GrVZTWlqKtbU1Y8eOveJoZGtra44cOUJSUhI1NTXU19fj6upK165dKS8vp6amBkmSOHv2LIcPH+bhhx+mZ8+eVFVVsWPHDhwcHBg0aBAODg6cOnWK3NxcevfuTVBQEKWlpezfvx8nJyd69uwp/y3aBhNu376diooKHn74Yfr27UtTUxM///wzer2egQMHyp9XS0tLEhISSE9Pp6KigtraWkwmE+7u7hw6dIisrCyamprIz88nMjKS/v37c/z4cVJSUmhsbCQ/P59OnToxYsQIOnbsSGVlJTk5OajVanJycjh37hzjxo1j6NChVFZWcuTIEXQ6HT179sTLy4vy8nJOnDghPximpaXJ17lcc21lZaXc1Nvc3ExlZSX19fV069aNqKgoSktLyc7Ohgvvv62t7WVbotruEZWVlTQ0NHDo0CHq6uoYP348gwcPxtLSkoqKCoqLi2loaJBnCUydOrVdsK2oqODo0aPU19fTv39/Oa2yspKjR49SVVVFz549qays5IsvvsDR0ZHbbruN8vJyjhw5QnFxMS4uLrzzzjukpqYyefLkK7YE3ej+ULBNTk6mtbUV9wsLWvj4+Mj9K9nZ2Wg0Gtzd3YmKisLX1xdXV1csLS2pra0lLCyM4OBg+aZeW1uLp6cnDg4O1NfXY2NjQ0hICO7u7pSUlGA0GunSpQvh4eFUVlbS1NSEp6cnYWFhFBYWkp2dTbdu3YiJiSE4OJjk5GT52OUCh6+vr7yEnE6nIzw8nD59+uDv70/nzp0JDg6Wa6x9+vTh3nvvJSAgAGtrazp27EhkZCSWlpZIkkRERAT9+/entbWVvLw8tFotwcHBco21sLCQsLAwfHx8sLGxoaCgAFdXV7p160bHjh0JDQ2lb9++cnl+fn707t0bjUZDUVERHh4eeHl50aVLF0JCQujatas8sMnHx4e+fftiZWUlB96goCCCg4ORJImysjICAgLkJseQkBCsra1RqVT4+PjIN6S2ZfWGDx9+xdHCTU1NZGZmYmNjg6enJyEhIQQHB9O1a1dsbGxIS0vDysqKsWPHMmXKFAwXlpssLCyU/w5XWs7QwsICk8nE6dOnaWlpwcPDg0cffZSQkBDs7OyIjo7GwcGB06dPI0kSEyZMYNy4cZhMJqqqqkhLSyMwMJCQkBCcnJyIj4/Hz88PGxsbunfvTlJSElZWVrhfmC4UHBzM7bffjlarpb6+HhcXF/r163fFfn4u1DgTEhLQaDRMmDCByZMnyw8GAQEBKBQKBgwYQFxcHC4uLuh0Om677TZqa2uJj4+nc+fOhIaG0tLSwqFDh7j99tsJDg4mODiYgoICli5dyiOPPEJycjJ+fn7yg6qzszNDhw7Fzs4OSZKQJIkpU6bg5uZ22QFVXHitx48fR6lUEhYWxuTJk+UmypUrV6LX6ykvL8fW1pZZs2YxcuRIuW9z2LBhREVFyX1y4eHh8uI0UVFR9O/fH5PJhNFoxMXFhQkTJshNsBEREajValxdXenVqxe9e/emZ8+edOrU6Yp9p5GRkXTq1AnNhbnn3bt3p3PnztjZ2RETE4OFhQVFRUW0trYybdo0+vfvj729PWfOnIELTfy9evXC2tqa1NRUrKysCA0NJSAggJycHLjQJBoVFYVer2fnzp0YLzRfOzk5MW3aNPlhNCcnB82FhTy6desmN4WGhoYSFRWFRqPBYDDQuXNnevXqhbu7O83NzWRlZVFaWkpYWBijR4+WPw9ZWVnk5+cTGhrK7bffTlhYGLYXlq90dXWlrKyMhoYGJk2axPDhw7G2tiY3N5eWlhYcHBwIDw/H398fywtz7HNzc6moqGDAgAGMGjXqig8w4eHhdOrUCTs7O4KCgujatSteXl507NiR4OBgfHx8sLW1lUd1R0ZGXjZo+1yYXqlUKikuLqZTp07Mnj2bkSNHAuDt7U1kZCQmk4mamho6duzIPffcc8no5urqampra3Fzc8PX11fu/qmpqaGmpgY3Nzd8fHzw8fFBe2E52/Pnz8tzjAcPHiw3WYeHh9O/f/925d9M/tDayDcClUrFG2+8gVqt5t///jceHh7U19fz2Wef0djYyIsvvkiPHj3MTxOE/5lPPvmE3bt389///hcPDw80Go08/WXPnj1Y/cpUmb9CTEwMM2fO5Mknn7xsLf5Wlpqayj/+8Q8eeeQR7r///iuO5hWEa+XmrI9fmCbUVhM7dOgQe/bsYc2aNQA8+OCDItAKN5yRI0eiVCpZs2YNe/bskVfheeGFF65501jbWIDSCyt6/d6BTLcKpVKJg4MDra2tl/SrC8L1cNPWbLlQu62qquL8+fNys0jPnj3/8Gg4QbjW2uZeVlVV0aNHD3r27HnJCj7XwpEjR0hOTkav1zNixAi5+fXvYsuWLeTl5eHm5saECRMI/o3pdoLwV7upg60gCIIg3AyubduVIAiCIAgi2AqCIAjCtSaCrSAIgiBcYyLYCoIgCMI1JoKtIAiCIFxjVz0aubm5mdbW1pt6jUpBEARBuBbatno0XzjmqoNtUlISZ8+eveJC2IIgCILwd+Xk5MTAgQPp1q1bu+NXHWxzc3M5ePDgr+58IgiCIAh/R56enkyePPmS9davOtgKgiAIgnB1xAApQRAEQbjGRLAVBEEQhGtMBFtBEARBuMZEsBUEQRCEa0wMkBIEQRD+NkwmEw0NDVRXV2NnZ4elpSV+fn7XfMtJEWwFQRCEv4xaraahoQGTyYSLiwvOzs7mWf6nWltbOXXqFPv27cPHx4eWlhYeeOABOnTogMlkoqWlhfr6emxsbPD09PzLgrAItoIgCMJf5uzZsxw6dAhPT0/69+9PdHS0eZarotFoqKiowGg0EhoaKgc/vV5PbW0t1dXVmEwm3N3dCQwM/M3gqNVqUSqV2NnZUVBQwOrVq5kxYwZDhgxBq9WSk5PDwYMH0Wq1PPjgg/j5+ZkX8YeIPltBEAThL1NUVER1dTVDhgz5U4FWr9dTWlrK/v37eeONN1i0aBENDQ1yWnZ2Nj/++COfffYZb7/9Np988gnJycno9XrzotqxtbXF29sbnU5Hbm4ukiQREREhp3Xv3p2+ffsSHx9vfuqfIoKtIPwFJEmiurqapqYmtFotTU1N5lmEv1BDQwMNDQ2o1WpUKhUGg8E8i/AXaW1tpa6ujpaWFlpaWtBoNOZZrgmVSsWhQ4dYsWIFSUlJcqAFKCws5LvvvqO+vp6VK1eydOlSFAoF77//PmVlZeh0Ourq6i75aftetrS0EBsbS3JyMkOGDGlX9rUigq0g/EkajYb09HQ2bNjA6dOn2bVrF0ePHjXPJvwF9Ho9+fn57Nixg8OHD7Nv3z4OHTpEfX29eVbhTzIajVRWVnLkyBF++eUXDh8+zP79+8nLyzPP+rsYjcbLPhRd6biHhwdz5sxhxYoV3HXXXfJxk8lEbGws+/bto1+/fgCEh4czbNgwiouLycnJoa6ujlOnTl3yk5WVBYCrqyuTJ0/m4YcfJjs7+y+vxV6OCLaC8CeYTCaOHTvGwoULaWpqoqmpienTp5ORkWGeVfgLpKamsnTpUlJTU2lubub1119n+/btNDc3m2cV/qTS0lK+//57tm3bhkqlYtOmTSxdupTKykrzrL/JaDRSW1tLXl5euwejhoYGsrKyqKioaJf/1zQ3N1NTU4ODgwPe3t7ycTs7O2xtbampqcHZ2ZnOnTtf8hMUFITBYKChoYGKigrKysqwtLTEy8ur3TWuBRFsBeFPaG5uZuHChdx1110sWLCAXr16AdCpUyc5T2lpKTU1NWi12ovOFK6WXq/niy++wMfHh2eeeYaxY8fi7OxMUFBQu+3MWltbL1tTEn4/o9HIgQMHyM7O5pFHHmHmzJkEBgbi4eGBt7c3RqNRDli/50FHq9VSUVHByZMnOXjwIPX19TQ0NLBz505+/PHHq2qZ0Gg01NfXY29vj7u7+yVpDQ0NODk50alTp0t+AgICaGlpIT09nb1793L48GEiIiKYMGFCu3KuBRFsBeEPMplMZGdnk5OTw9y5cwFoamrCzs6OgQMHApCRkcHKlSs5fvw4J0+eNCtBuBolJSVkZGQwcuRIAgICaG1txcLCgm7duuHq6kptbS2FhYXs27fvD9W+hP+vrq6OzMxMfH196d+/PzqdDoPBQHBwMMHBwZSVlXHs2DF27NjBwYMHKSsrMy+iHQcHBzp16kTv3r1pampi165dbN26lYyMDO677z569OhhfsofYmFhgZWVlfnhdlxdXenbty/jx4/n3//+N/fff795lmtCBFtB+INMJhNxcXGEhobChUFSsbGx+Pv74+/vj8lkYs6cOQQFBTFw4EDef/99MXDqT0hPT8fBwQE7Ozu48CBjaWmJv78/tra2xMfH8+233/Lee+9x/vx589OFq1BeXk5DQ4NccywvL6e2thZ/f39sbGzIysrCzs6OAQMG8PPPP/Pf//73N1sT2gJuREQEp06d4sCBA4wfP56ePXuaZ/1VFhYWWFtbYzKZ5JHHJpMJrVaLpaUlbm5u5qdcwtbWFn9/fzw8PMyTrhkRbAXhT6ivr5dvSJIkkZOTg4uLC1yo5WZkZPDoo4/KAfjs2bOIqe1/TFNTE/b29vI8ytLSUgAsLS0BuP3227nnnnva9eMJf4xarUaSJBwcHABQKpU0NjZiZ2eHo6Mj48aNY9y4cQQGBhISEkJjYyOtra3mxVxCp9NRXFyMlZUVffr0obq6+qqakAEcHR3x9fVFrVbLfb0qlYrCwkIMBgOenp7mp9wQRLAVhD9IoVAQEhJCRUUFWVlZ5Ofnk5mZSUREBJIkcfbsWbnW20b02/5xfn5+tLS0kJubS15eHpmZmbi6usoBQfjruLq6YmNjQ2FhIbm5ueTm5qLVai8ZSFRUVIRWq2XAgAHyQ+aVtPXRZmZmMnPmTEaNGkVzczMHDhz41YCr1WpRqVTo9XpaWlqwtramc+fO+Pj4EB8fT1FRESkpKeTm5nL77bdz2223mRdxQxDBVhD+IIVCQefOnYmKiuL1119n3bp19O7dW75x2NraXvKUXVdX1+7fwu8XHBxM586d2bBhA1999RUuLi4oFIrfbL4Urp6HhwedOnUiOzubjz76iLKyMry8vNrVXpVKJenp6fj4+DBq1Kh255szGo0kJSVRXFzMfffdx8CBA+nUqRO9evVCr9eTkpJifoqsrVbt7u5OUVERKpWK/v378/jjj5Odnc3XX3/NunXr0Gg0zJkzx/z0G4ZYrlEQ/iSTycSePXu4/fbbqaiooLKykt69e1NaWsrYsWOJi4vDycmJWbNm8dxzz9G3b1/zIoTfqa6ujtTUVLp164ZCoaCiooKQkBC5VpWSksLChQt57rnnGDlypPnpwlVobm4mNzcXOzs7goODqaiowN7enqCgIOrr69m+fTu1tbXcfffdcl+ulZUVP//8M6dPn+bRRx+VR+W3trai1+txdXVtd43W1lZ0Ot2v9rOq1Wr5AdZ8BHJ9fT3p6ekAREdHXzI6+Y86ceIEH3/8McuXLxfLNQrCjcLCwoI77rgDhUJBQEAAvXv3BiAgIIBBgwZx5MgRCgsLUSgU9OnTx/x04Sp4enoycuRIvLy88PT0pFu3bu2aL1tbW1EoFGi1WlHj/ZOcnJzo1asXXbp0wcnJicjISIKCgtDpdOzatYvExERiYmIoLy8nISGBlpYW+VyNRiOvOsWFwVHmgbbt+K8FWi4E2ICAAAICAi4Jpu7u7gwdOpShQ4dekvZHmEwmeR7vby37eLVEsBWEa8TCwoJFixZRXl7O999/z3PPPYdCoTDPJvyFlEolnTp1Qq1Wt7v5C3+d+vp69Ho9Wq2WjRs38sMPP1BRUSEHU0dHR9RqNSdOnCAnJ8f89BuaXq8nJyeHY8eO4ejo+JubGlwN0YwsCIIg/GWqq6spKSnBwcGBgICAy9Zob2RNTU3k5ubi7OzcbnGaP0sEW0EQBEG4xkSwFa4rSZLQaDSo1Wrs7OzEtA1BEP4WRLAVrqvm5mbOnDlDXV0dnp6eREdH4+/vb55NEAThlnLdBkgZDAZaW1tpbm6+ZJSXVqu97PG/SttKI42NjeZJV61t94rc3FxqamrMk9sxGo20tLRQU1Mj73X6V46Q1Gg0FBUVkZeX97sWA/89VCoV586dIy8vD7VabZ78pymVSg4ePIiPjw/Hjx/niy++kNP0ej2FhYVkZmZSXl7e7jxBEISbmeWbb775pvnBa6G+vp7Tp08TFxeHvb09np6eKBQKjEYjycnJJCYm4uDgcE3WqszKymLt2rW0trYSFRVlnnxVWltb2bhxI4sWLQKgf//+5lngQuAoKirizJkzxMXFERsbS3l5OR4eHri6uqLX6zEYDL+5aPavKSoqYtmyZXz//fd06NCB8PBw8yxX7dixY0yaNImGhgaio6MvWZThz3J1dWX06NFYWVmRn5+Pra0tgwcPhgtzKD/44AM++ugjGhoaGDNmjPnpgiAIN6XrVrO1tLRk7dq1vPzyy2zevJmqqiq40Ky4f/9+tm3bds1qM56ennTo0OEvGRXn5OSElZXVb9aSz58/z/Lly9m1axcRERG4uLhw5MgRsrKy5OHliYmJ5qddlY4dOzJs2DCUSqV50p/SpUsX3nzzzb90JF4bSZJoaGjgzJkzVFZWyoEWkLdOE2vbCoJwq7mufbZPPPEECQkJuLq6MmfOHO677z5sbW359NNP0Wg0zJw5k6CgIIxGIyqVipaWFkwmE87Ozjg7O2NpaYnRaKS5uRmFQoEkSTQ3N2NlZYWjo6OcZjKZcHJywsXFBUtLS9Rqtbz1maurKzqdTm52VSgU8qLbrq6uODk5wUVNwM3NzUiShKOjo/wavvnmGz755BMee+wx5s2bZ/Zb/p+vv/6a1atX8+qrr3LnnXcCUFNTQ2NjIxqNhq+//hqdTserr76Kvb09Tk5OaDQaJEnC2tqa5uZm7O3tcXV1lfdoNJlMWFpa4urqKu988tNPP/H+++/z/vvvM2zYMFQqFa2trTg6OuLm5obBYKClpYXW1lYkSZLfyyvZv38/b731Fps2bWq3copOp6OhoQGFQoFer8fZ2RkHBwe5+d/BwYHGxkb57+Xo6EhLS4s819HLywtra2u5xn/u3DmqqqpwdnbmgQcekK9TWFjI448/Tr9+/Vi8eLF8/Eak1+t/c2uxv4PAwMC/dD7i5RiNRqqrq//2a0t7eHj85hrEf5bJZKKxsfE3KxR/BzY2Nnh4eMj32z/jugdbNzc3ysrK0Ol0PP/88/Tp04fly5fLwdbf35+srCyOHz9OSUkJKpWKLl26MGHCBEJCQqisrGTHjh3Y2dnh4uJCYmIier2enj17olAoyM3NpbKykqioKKZMmUJISAiJiYmsX7+e3r17c//995Ofn8+uXbswGo34+PiQk5NDTU0Nw4YN46677sLe3p6qqiri4uJITk5GqVTSpUsXJk6cSGBg4O8Ktj/99BPffPMN06dP57777pNH3dbU1PD999/zySef4OXlxbhx4+jSpQt9+/bl9OnTqNVqoqKiiI+Pp1u3bowePZrTp09z8uRJLC0tsbCwYPjw4fTr1w87O7t2wTY6Oprt27eTnJzMhAkTmDBhAoWFhRw6dIjS0lJaWlro1asXU6dOveKH53LBVq1Wk5KSQlxcHHZ2dmRmZjJ06FBGjhzJrl27KCwsZPz48Rw6dIiysjK6devGhAkTyMrK4vTp09TU1PDQQw/Rt29fDAYD1tbWGI1GUlNT+eqrr9r1294swVaSJCorK1mwYIF50t/OokWLCAwMND/8l2psbOSzzz4jLy/PPOlvZcaMGYwfP9788F9KrVazc+dOdu/ebZ70txMYGMisWbPo0qWLedJVu+7BtmfPnvj5+fHf//6XIUOG8Pjjj7Np0yY52BqNRl599VUMBgNPPvkkarWa1atX07FjR/75z3+Sk5PDm2++ibOzM8888wwKhYJly5aRl5fHo48+yqRJkzh06BCbN29m1qxZzJ07l+PHj/Pmm28ybNgw3nzzTTIzM3nrrbcwGAw8//zz2NjY8Pnnn1NbW8urr75K//79SU5OpqamhtDQUNatW8fZs2f517/+xfjx439XsE1PT+fDDz+kuLiYf/7znwwdOhQPDw9sbW05ceIES5YsISwsjAULFuDg4IBSqeSDDz6guLiYl19+mfr6enx8fOTVh+644w569+5Neno6CQkJzJw5k8GDB8vBdvHixfj4+LBt2zacnJyYO3cuzc3NrFq1ivz8fKZOnUpSUhIHDhzg/fffb9d8ezHzYGswGDhx4gQrVqzg5ZdfBuDw4cM4OTkxYcIE3n33XU6cOMF3332HpaUla9asYePGjbz44ovccccdJCQk8PbbbxMSEsLmzZvlLbFqamqIjY0F4Mknn5SvfzMFW6VSyenTp82T/nZGjBjxq60lf4Xm5maSkpL+9rWtrl270qFDB/PDfymNRsP58+cpLCw0T/rbsbOzo0OHDn/Ney5dR//85z+lL774Qqqvr5f+85//SAMHDpS+/fZb6b333pPee+89qaSkRFq9erU0bNgw6fvvv5fP+/zzz6WRI0dK69evl+Lj46Xbb79devzxx6WioiJJkiTpvffek0aNGiXt2LFDkiRJOnjwoDRx4kTpww8/lAwGg5SUlCTddddd0htvvCFJkiTV19dLzz33nDRv3jxJqVRKkiRJP/74ozRnzhxp//798nUNBoOkVqulb7/9VrrvvvukXbt2SZIkSatWrZJ69OghffbZZ3Ley4mNjZUeffRRadSoUdJjjz0m7d+/X2psbJQSExOlmTNnSi+++KKct6KiQpo/f740Z84c+dj58+elf/3rX9LcuXPlY+np6dKTTz4pLVy4UJIkSdq4caPUu3dv6dNPP5Veeukl6eOPP5bzbt26Verevbu0ceNGKS8vT/r555+liRMnSp9++qmcx9y+ffukIUOGSBUVFZIkSVJJSYn07LPPShMmTDDPKjU0NEifffaZNGTIEPnY2bNnpb59+0pff/21JEmSVF5eLj3zzDPSnXfeKel0Oik5OVl67rnnpOnTp0sbNmy4qLT/U1BQII0dO1ZasGCBeZIgCMJN67oNkLqYm5sbc+bMoVOnTuzevZuMjAw5raysDBsbmz89SEalUlFWVoZKpTJP+k1Go5GGhgaysrI4efIk586do7y8nKamJvOsv6p///58/PHH/Pvf/yYnJ4cFCxawb98+82xXZDKZcHNza/dUZW9vj729fbv9H7VaLbGxsSQnJzN58mT5XIPBgFqt5tSpUyxevJgdO3bQqVOnq3pKa2pqoqioiIiICPOk38Xa2lr+W1pbW9OzZ0+WLl3Khg0bmD59unl2QRCEW9L/JNgChIaGMmXKFGpqaoiPj5fn2Lq6usoDndoYjUa4MKL5eqiurubHH3/knXfe4eDBgzQ2Nl71tU0mE0ajEUdHR+666y7mz5+Pl5cXpaWl5lmvSK/X09zcLP/+XCiXC3ultrG3tycyMhIHBwf27NkjD8JSKpWEhITw4osvsmrVKlatWsVHH33ExIkT5XN/i06no6qqirKyMjQajXmyIAiC8Dv8z4ItwKhRo+jZsyfFxcVUV1fDhak1lpaWNDU1odVq5Zt929zcK2kLbr/H5fIajUZ0Oh3GC5scb9myhS5duvD2228zbtw4nJycLjnnStpG3Obk5GA0GtFqtVhYWBAeHo6Pjw8WFhbyqF6j0YjJZJKvffFr8/b2JiAggJKSEpqamjCZTCiVSvR6PT169Gh3zX79+jFr1iw2bdrEunXrMJlM2Nvbo9fryczMRKPRYDKZ0Gq1VxU0nZ2dCQ4OJjs7m5MnT8ojpg0Gg/zftlr05bTlEW5ser0enU7HdRzC8bfVdq9pe3AW/h6uW7BVqVTodDq0Wq08fN/V1ZW5c+cyfvx4uaY2evRounbtyunTpzl16hRnzpyhuLiYvn370qVLF/lDajQa2wWrpqYmucm4LVgZjUY0Gg0qlQqNRoNOp0Oj0VBTU0NdXR0ajYaWlhaMRiONjY2UlpZSV1eHra0t7u7uKJVKsrOzMRgMctDXaDSXBEVzdXV1/Pjjj3z00UecPXuWU6dO8dNPP1FTU0PXrl1xdXXF09OTsrIyMjIyqK6upqysjOrqahobGykqKoILW1X5+flRWFjIpk2byM7OJj4+HoPBwNChQ9Hr9fK0JZPJRO/evYmMjOSnn36itLSUXr160bFjR7766iuOHz9OXl4e6enpFBcXm7/kKwoKCmL27NlYWFiwatUqDh48SFlZGbW1tajVakpLS9Hr9RQUFGAwGOSpV62trajVatRqNfn5+RgvTOcSbiytra0UFxdz/vx5EhMTaWhoEAH3GtHpdFRWVpKXl0dKSgolJSXiQfRv5LqtIHX69GnS09NxcHAgLCxM3ujX19cXe3t7vL296dixI4GBgQwePBiTycSePXuIjY1l6NChzJ49Gz8/P9LT08nPz8fV1ZWoqCicnZ1JS0tDpVIxYMAAOnfuTH5+PiUlJXh5eREQEMDZs2fJysoiICCAkJAQKioqSE1NxWAwEBAQgK+vL5mZmVRUVNCxY0cGDBiAn58f58+fJyMjA09PT5ycnNDpdAQEBFBRUUFhYSHR0dH069fP/FdFoVCgUqmIj49n9+7dZGdnExMTw+zZs+nVqxe2trY4ODhQWVlJSkoKbm5uODk5kZycjCRJuLu707VrV6ytrenUqRMdO3bk+PHjHDhwAAcHBx577DE6duxIZWUlsbGxKJVKPD09GT9+PG5ubsTHxyNJEmPHjiU8PJzm5maOHDlCamoq3t7eDBo0yPwly/Lz8zl69CjTp0+XF/AIDQ2lV69exMfHk5CQgE6no0ePHmg0Gk6ePImNjY38Xh85coTy8nLs7e0JDQ3FaDSyceNGPD098ff3JywszPyS7TQ0NLBjxw4CAwNvmhWkWlpaqK2txWQyXXFK1eWUl5dTVVWFhYXFVZ33W/R6/WW7PdoezNpaVgB27drF6tWrsbW1ZefOnbi7uxMYGIiVlRVKpZKamhoaGhpwdHTE0tISg0miWWfAYJKwslBc9/1527pHtFot1tbWWFj8vvqCUqmksrISvV6PjY3NZd+fP6Ltgdv8fdBqtRiNxnbvdWJiImvWrKGsrIzU1FSUSiXBwcE4OjrSfGHD8vr6eiwsLLC1tcUoSaj1RrRGExYKsLzO77Ver6exsZHm5mYsLCyu+VzqW911nfoj3PjMp/5cbzfL1J82JpOJ2NhYPvzwQ+666y7mzJljnuWK5syZQ2pqKgsXLmTKlCm/O3BcSWNjI7W1tVhaWhIcHCwHlMrKSrRaLdnZ2djY2NCpUyf8/PwwGo2MGDGCNWvWyAulODo6ysHhhx9+YPfu3ZSVlfHDDz8QHBxMZq2K5MoGTCaJMR188HG0xeI6BoGsrCy+/PJLgoKCmDVr1u/exOLDDz9k27Zt3HnnncyZM+d3n3clra2t1NXVodfr8fHxkRfDaWhoQKVSUVJSQmtrKyEhIYSEhGBtbc2rr75KVFQUd911FxYWFjg6OsrLtR47doyffvqJrKws/vGPfzB16lTKmtQkVzWiVOvo6etKF29nrP/kZ+RqVFRUsGnTJkpKSpg+fTp9+/Y1zyJchev3lxNuCpaWligUCmpqaq6qb/evYDAYqKmp+ctreteShYUF3bp1Y/v27Vf95F9WVsbkyZO5++67/3Sgraur46effmLChAk0NDTIx9VqNa+//jqvv/466enpvPHGG7z55pvU1dVRWVmJhYUFCQkJ/PDDD/z88880NjbKzcizZ8/m3nvvpbm5WW7uPFtej5WFghVJhezPr0atv3xXyrUSERFBcnIy9fX1l9Qmf41SqSQmJoa77777TwdalUrF4cOHeeyxx9i/f798XKfT8f333/PKK6+wb98+vvnmGxYuXEh8fDxKpRKNRkNBQQE///wzGzdu5Pz583K/7fDhw5k1axYeHh7y4ND8+hbq1TqOF9WyIb2U8qbr+3309fWlpaWFzMzMv6wl4O/sz33DhVuOr68vHTt2ZP369dd9UntbwIiMjLziohs3GkmSKCoqwsLCgoiICBobG2ltbTXPds39/PPPZGZmUlZW1m7gzYEDB8jIyGDp0qU8++yzvPLKK2zfvp20tDTUajUeHh5otVoGDBjAt99+S3JysjwzwJzBJHF7pB9DQ7zo7edGk0aP3nR9G8YqKyvRaDQEBgZiMpkuGa1/PZw5c4YzZ85QVFTU7m997tw5EhISmDZtGm+++SYvvPACTU1NHDt2DKVSiaOjozxQMi0tjX379rV7MLqYUZLo6efK2A4+9Alww9bSgmbd9e3fbWxsRKlU4u7ujrOzszzuRvhjRLAV2omOjubbb79l8eLFf3qHpKvl6+vL+++/z2effXbT9NeaTCbOnz8PF6azbdy4kR07dvyplY4aGxsvG/CampquOHjp0Ucf5Z577sHGxqbd8c8//5zRo0fLLQUTJkwgPDycuLg4qqurqaioYMSIEQwcOJBJkybJA94up7ChlRWJBXwWe57z9c0YrvBarqWysjLUajX+/v7ExcWxdetWCgsL//BAo9bWVnmkvvnxK70PY8eOZebMmQQHB7c7/ssvv8hjUgB69+5NTEwMJSUl5OXlUVVVRYcOHRgxYgRjx47F1tb2ipuI1LRo2ZpVziex5zlRXEfrdW5B4MJObXV1dbi6ulJTU8PmzZs5e/bsdW/xulWIYCsIf4LJZCIhIQFnZ2c2btyIWq3mjTfeYN26deZZf7cDBw4QHx/fbtH9kpISdu/efdVBJSkpCT8/v0uaAc+dO0fXrl3x9PQkLy+PsrIytFotffr0aTeH+2IZNU3kKJuZ1T2ESA8nkOB6h9vMzEyMRiPHjx+ntLSU1atXs2LFCnkZ0KuVlJTEqVOn5AFuALW1tRw/fvyqdyErKChAurDZx8UKCwtxdHQkNDSUuro6CgsLUalUhIeHX7FJu7RJTWatil7+bowI9cLWygLTdX64aRvAV1hYSGJiIseOHePjjz/+07uV/V2JYCsIf5JOp2PWrFnMmzePf/3rX4SEhBAfHy+n19bWUllZSW1tbbvzrmTQoEF8+eWXJCUlodVqqaqqYv78+QQFBf2hvl0vL68rnjdjxgzS09P58ssvaWhowM/P74p7LIe5OdCsM7A9u5x6jR6t0XjFmva1otVqGT16NP/4xz+YN28effv2bbdSnMFgoLGx8Xc3d0ZFRXH69GkOHTqEUqlEqVTy1VdfUV1dfUnQ/D1cXFyuON5g6NChWF7YajQlJQVXV1ccHR3NswHgfWHg2fGiOjJrVeiNpuvekmAwGIiMjOThhx9m3rx53HHHHeh0OkpKStBqtTQ2NlJfX49KpbruTfk3o8t/AwVB+F1MJhMnT55k4MCBcGEKiI+PjzxYqrKyklWrVvHhhx+ybNmy39WfGxAQwJIlS9i6dSsJCQksXryYf/3rXwwaNOiSGupvsbKyoqKiol0zqV6vlwPqQw89xFNPPcWiRYt499135Sl5l9PD15UNUwfwyrAo3h3TjecGdcLDvn2z9bV27tw5AgMD5b2p3d3d8ff3x9bWFq1WS2FhIStXrvzduwN5enryz3/+k4aGBo4ePcqKFSuIjIxk4sSJeHh4mGf/VZaWlpf02RuNRhQKBRYWFowaNYqnnnqKhQsX8u677zJgwIB2518s1NWBlwZ34p0x0bw+vAsLhkXRy8/NPNs11RZU25rFHRwccHFxwcLCgpycHHbs2MG2bdvYvn27vDaAcGUi2ArCn6DVaklISJDXjtbpdOTl5REVFYXJZGLevHmMGjWKZ555hpqaGo4cOfK7aoMBAQHcc889LFu2jPDwcHr16nXVgRbA398fvV4vX9NgMFBRUYGXl9cfKq+Nr6MtVha/fzTwX8FgMJCZmYmLiwsODg4YDAZKSkpQKBRYWVlRUFDA4cOH2bZtG1VVVeanX5GnpyejR48mNjYWlUpFz549cXO7+sDm7u6OtbW13NRvNBpRKpVYW1vLW2xeDVc7a5xsrOT/Xk8mk4nS0lJUKhVeXl6YTCa5qd3X1xeDwUBoaChTp06lqqqKb775RtRuf4MItoLwB0mSRHFxMTY2NvTr1w9JkkhNTSUjI4Np06bR2trKnj176N+/P0FBQYSGhnLq1CnzYi6rrKyMZcuWMX36dBITE0lJSWnXh/t7ubu7c+LECVpaWgDIzc3FYDDg5ub2p4Lt/0LbohRdunTBxcWFgoICUlNT6dOnD35+fkRFRTFgwICrDpR1dXWsX7+egIAANBoNZ8+eRalUXjJo6rc4Ojpy/vx5SktLMZlMVFRU0NDQgJOT0xWblm9UjRc2jw8KCiI4OJiamhpSU1NxcXEhJiaGXr16MWzYMHlAXm1trVgh7jeIYCsIf5DJZCI/P5/Q0FCqqqrIz8/niy++YMqUKQQEBBAXF0fv3r3l/IGBgZSVlbUr43KUSiUvvPAC8+bNY+rUqbz//vts27aNvLy8Xw0A9fX1mEwm6uvr5T7Lf//736SkpHDmzBny8vL4+eefcXNz47HHHpMXYrhZlJWV4eLiglqtpri4mHXr1hEWFkbXrl2vOKjrt6hUKr744gvCw8OZM2cOCxYsoLGxkcTExF9t8m9ubkar1dLc3Exraysmk4lJkyZhY2PDyZMnyczM5NChQ9TX1zNp0iSio6PNi7ih1dfXo9frsbW1paysjIMHD1JdXc3gwYPlJnwuLDKiVCoZOHDgVT/k/N2IYCsIf5AkSeTn59OrVy+WLl3KY489hr+/P99++y1c6C+9OLiq1Wrs7e0vKuHy1q1bx9NPP82gQYOwsLAgICCAp556iubm5l9tgt65cyeBgYHs3LlTrl1NnDiRBQsW8N///pdHHnmE2tpavvrqq1/d1ONGVVpaSlhYGHv37uWpp56ioqKC119/nW7dupln/d2OHj1K37595T5aDw8Ppk2bhr+//6+2JLQtW5qRkUFKSgoajYY+ffrw9NNPk5+fz5NPPsmRI0f4xz/+cdNMY7uYUqnExsaGqqoqXnnlFXbs2MH06dOZOXOmnKdtXe3IyEjuvvvuducLlxLLNQrCNVJcXMzYsWM5ffo0zs7OzJgxg+nTpzN9+nQUCgVjxoxh6NChvP766zdsk+7mzZt555132LRpE+Hh4ebJN5yUlBQWLlzIc889x8iRI+XjCxYsQKVSMW/ePDp37tzunBvFmTNnWLZsGbfffjsPPfSQefINpbW1lf3795OXl8eYMWMIDQ3Fzs7upmsuv55EzVYQrpGgoCBiYmL49NNPyczMJCEhgcGDB7dbZlClUt2wfV2NjY2oVKp2i+nf6CwtLXF2dsbCwuKSVgC1Wo1KpbrqucrXQ2trK01NTfLmBTeythH4586dw8PDg+PHj7N27Vqys7PNswoXubH/qoJwE7OwsGDp0qW4u7tz5MgRTp482W7VobYdqfbv3/+rfbH/Kz///DPHjx+nU6dOf7hP9Hrz9fXl4YcfxtPTs10zsIeHB6WlpRw5coSampp259wI4uLi2LNnD7a2tvj6+pon31BaW1txd3cnOjoaZ2dn/P39GTJkCD179jTPKlxENCMLgiAIwjUmaraCIAiCcI2JYCsIgiAI15gItoIgCIJwjYlgKwiCIAjX2FUPkNLpdKjV6hty+LwgCIIg/C9ZWlri6Ogob0bS5qqDbVJSEr/88stV7/UoCIIgCLc6Ly8vpk6desnKZlcdbNPS0khLS5MXNhcEQRAE4f84OjrSq1evS1Yqu+pgKwiCIAjC1REDpARBEAThGhPBVhAEQRCuMRFsBUEQBOEaE8FWEARBEK4xEWwFQRAE4RoTwVYQrhOtVovRaDQ/3I7RaPzNPOZ+7ZxfS7vZmUwmjEbjJfvWXo5er8dgMFwxr8Fg+NX0q7nWrcpoNKLX6//0dpCSJP3pMm5GYuqPIFxjdXV1GAwGEhMT8fHxISwsDHd3dywtLeHCTayhoQGDwUBFRQVGo5Ho6Gjs7OzMi7qETqcjNTUVFxcXOnTogKWlJUajkcbGRiRJoqysDJPJRFRUVLvyqqqq2gVhS0tLvLy85Nd0ozKZTDQ0NABQXV2NTqcjNDQUFxeXy25w39zcTEtLC9nZ2VhaWtKhQwe8vb2xsrKCCw9ATU1N5ObmolAoCAsLw9PTE2traxQKBQaDgcbGRurq6lCr1bi7u+Pt7Y2dnd1lr3er0ul0ZGdn09jYSNeuXfHw8KClpYXGxkbzrNjZ2eHi4iK/x200Gg0tLS20tLSg0+lwc3PDwcEBBweHdvluVSLYCsI1JEkSEyZMoK6ujmHDhnHq1ClsbW355JNPiImJQaFQcO7cOZ5//nlUKhVBQUGcP3+eBQsWMGXKFGxsbMyLlBmNRvbu3ct9993H2rVrmTBhAtbW1qSlpfHGG28AoFAoaG5uZv78+QwcOBA7OzuMRiMdOnRAo9HIwdXf35+dO3fi7+9vdpUbS15eHi+//DIODg4YjUasra259957GT58+CUBV61W89FHH7Fu3Tp8fHwwGo1ERETw1FNP0b17dxQKBTt37mTp0qX4+PjIQWLy5MkMHjwYR0dH4uLiWLhwIQ4ODri5uVFbW8v06dO5++67cXNza/fablWSJHH48GH+85//EBkZyXvvvYeHhweff/45r732GtbW1lhY/F8jqVqtZuzYsSxZsoQOHTq0K2PXrl18+eWXeHp6olarqays5P777+cf//iHfP4tTRIE4ZoxmUzSBx98IBUXF8vHoqKipGHDhklGo1EyGAzS8OHDpXHjxkk6nU6SJEn66aefJBsbGyk5OVkyGo0XldZeamqqNHjwYMnS0lLavn27pNPpJIPBIN1xxx3SG2+8ITU3N0uSJEmfffaZ1LlzZ+nUqVOSXq+XiouLpYEDB0rl5eXmRd7QjEaj9OSTT0rPPfecVFBQIEmSJP3444/S5MmTpe3bt0utra3t8q9evVqKjIyUdu3aJR977LHHpBdffFEqKCiQSkpKpLFjx0o///yznP7vf/9beu6556Tz589L5eXl0h133CHdd999Unp6uiRJkrRy5Upp9uzZ0tGjRyWTySSfdyurqamRXn31VcnBwUF69NFHpbq6OkmSJCk7O1s6evSoVF9fL0mSJOl0OmnVqlXS22+/bVaCJKlUKunw4cPS3r17JUmSpNzcXOmxxx6Tpk2bJlVVVZlnvyX9DR4nBOF/R6FQ8MILLxAcHCwf69+/P6WlpUiSRElJCadOnWLQoEHy0/3UqVOxsbEhNjb2in1bLS0tvP7667z99ts4OjrKxysrK4mNjSUmJkZeCP2ee+6hvr6e2NhYdDoder0ef39/tFotzc3NaLXam6IvsqSkhPj4eMLDw3F3dwege/fulJeXU19ff8nvkJ6ejrW1dbtmSl9fXwoLC1EqlZw6dQqDwdAufejQoRQXF1NSUkJ2dja1tbVERUXh7e0NQOfOncnPz+fs2bN/iyVrdTodp06dwtPTk4ceeqhdWqdOnRg+fLhcw4+Li6O4uJhBgwa1ywfg5OTEyJEjGTduHFxYPzgkJERuxv87EMFWEK4jo9FIfn6+3H9qaWkp95deLCgo6Io7a+n1epYuXcrAgQMZPHhwu76xwMBArK2t0el08rGAgAAsLS3R6/VwYTMRg8HAV199xbvvvsvWrVupq6u7JFjdaA4fPkx1dTXR0dG4uroCyP2nlZWVaDSadvmbmppwdHTEyspK/t28vLxQqVS0trbi4+NDQEAANjY2crqnp6fcz2tlZYWVlRVubm7y38vDwwMHBwdMJtMN/379WUajkZMnT5KcnEzHjh1/tdlckiRycnIAGDNmjHmyTK/X09TUREpKCnl5efTt25eIiAjzbLckEWwF4TrKysoiPj6ehx56CAsLC4KDg+nSpQsbN26krq6OpqYmmpqasLCwID4+/pKRxEajkT179pCamsqTTz552UFUkZGRnD59murqahobG1Gr1UiSRFJSkjygqC1g5efn88QTT7Bw4UKqq6tv2gBSU1NzSbC97bbbaG1tJTk5mcrKSpqamtBqtdTU1KBWq/Hz86O8vJykpCTKyspobGxEo9FQW1uLWq2mS5cudO/encLCQvLy8uR0k8lEXV0dra2t7a53K5Ekiby8PE6fPk1YWBgjRowwz9KOUqmkrq7uV8cYcGEjm9dee43ly5czaNAgnn322Su23txqRLAVhOukqamJ999/n9tvv50XXnhBHszzyiuvoNVqmTt3Lq+88gqvvfYafn5+BAcHXzLiNScnhwceeIBnn30WrVZLQ0MDkiTR0tKCRqNBkiSeffZZEhMTefzxx5k/fz4bNmxAo9Hg7++PpaUlffv25d1332X+/PmsW7eOJ554grVr13Lw4MFLAtaNxMLCAoVCcdla5eUG2IwcOZK77rqLdevW8cILL7Bw4UJOnjyJVqtFoVAQFRXFuHHj2LJlCw8//DDPP/88W7duxcrKCkdHRzw9PZk4cSLFxcW88MILPPPMM2zevJna2lqsrKwue81bRV1dHevWrUOn0zF58mT5QUOn09HS0iK3knAhMMfHx9PQ0MCECRPalWMuICCA6dOnM2PGDFJTU3nnnXeoqqoyz3ZrMu/EFQThr9fY2Cg98MAD0t13333FgTWnTp2SioqKJJPJJI0aNUpatGiRPGiqzTPPPCP16tVLuv3226WJEydKEydOlKytraWRI0dKq1atkjQajZw3NjZWKigokAoKCiQfHx/plVdekVQqVbvyJEmSjh07Jvn4+EhLly69bPqN4pdffpGioqKktWvXSmq1WpIkSSopKZGGDBkiLVu2TB6oY666uloqLi6WWltbpZdeekkaPXq0dOrUqXZ5ampqpJaWFmnDhg3SjBkzpKNHj7ZLz87OlrKysqRdu3ZJgwYNkn744Yd26beaPXv2SJMmTZKGDBkiTZw4Ubrjjjukzp07S2FhYdKzzz4rJSYmynnr6uqkDz/8UFq0aFG7Mn7LunXrpDFjxkhbt241T7ol3bqPZoJwg2hqamLevHk0NDSwadMmTCYTKpVKbiJubW1Fo9EwaNAgQkJCUKvVxMXFMW3aNKysrNBqtbS0tCBJEvfddx+fffYZr776Kq+88govv/wy9vb2DBkyhOHDh2NtbU1zczMGg4H+/fsTFhaGWq3Gzs6Oe++9F3t7e/R6PXq9Xq4dxsXFodfrCQ0NvWRu5I3ExsYGKyurdgsrJCcn09LSQo8ePXBzc0OtVqPVajGZTBgMBrRaLZ6engQHB2NtbU16ejohISF4e3tjMpnQ6XQYDAY8PT2xs7NDo9HQpUsXfHx8MJlMaDQa9Ho9kZGRREZGUl9fj4ODAy4uLuYv75YSHR3Nyy+/zHvvvccrr7zCvHnz6NOnD127dmXy5MnytB5JkkhLS6OhoYH+/fu3K8NgMNDa2tpu/MDFaUqlkoaGhht+bvdf5boGW4PBgFqtprW1FbVa3e4LfzlGoxGNRkNraytarfaSFV4uLu9y6YLwv6bT6fjXv/5FUVERb7/9NmlpaaSlpfHUU09RWloKwIcffsg333xDY2Mj9fX1fPDBB3Tp0oWQkBAUCgXr16/n5ZdfprW1lYEDBzJkyBD5JyAgACsrK3r37k1oaCgWFha8+OKLJCYmyuW98cYbPProo3Tu3BlLS0tOnz7NL7/8Ql1dHfX19ZSVldGpUycGDRp02T7gG8Xo0aPp378/x48f5/z589TX13Pw4EHGjRtHhw4dMBqNfPXVV6xfv566ujoyMjLYsGEDWVlZNDY2EhcXR0tLC9OnTyciIoLa2lp27NjBiRMnqK6uJj8/n82bNxMYGEhISAhKpZIff/yRvXv3UlVVRUFBAZs2bcLf35+OHTuav7xbSlBQULvP2aBBgwgLC8PPz4+uXbvKg6UaGhrYv38/lZWV9O3bt10ZKSkpLF26lD179mAymVCr1TQ0NKBUKjl27Bh79uyhQ4cOREVFtTvvVnXdFrXQ6XQcP36cpKQktFotjo6OdOnShd69e+Pl5XVJ35TBYCAjI4NTp05RW1tLUFAQnTt3plOnTnh6eqLVaomNjSUhIQGNRoOvry9du3aV0wXhf02SJE6ePMnTTz9tnkRISAhbtmzBwsKCDz/8kPXr19OvXz/i4+MZOHAgy5Ytk6fu3HXXXZw6dYrt27fTv3//djWBzZs389FHH3H77bfz/PPPY29vz5gxY3BwcCAoKIizZ88yceJEnnvuOZycnAD4/PPP+fDDDxkxYgRZWVl0796dJUuW4OHhIZd7o0pLS2PRokUolUpUKhWRkZEsWLCAqKgocnJymDdvHoGBgSxYsAC9Xs+7775LZWUldnZ21NXV8eCDDzJt2jQ8PDyora3ltddeIz8/n8DAQEpKSrj77ruZMWOGfA+ZP38+Z8+eJSgoiNLSUiIjI3nyySfp2rWr+Uu7pZWVlbFq1SqysrJ47LHHGDVqFAAJCQn8+OOPREdH8+ijj7Y7Z/369bz77rvMmDGDuXPnsmXLFrZs2UJxcTF1dXWMHz+e//znP3+b0cjXLdju3buXlStX0rdvX4YOHcqePXvYuXMns2bN4tFHH71kWPmpU6dYvnw53t7eTJgwgfj4eM6dO8fcuXO588472bZtGytWrGD06NGMHTuW7777joKCAubNmyd/EAThZlJSUkJQUNAlD54A5eXl+Pv7XzbtSsrKyvDz87tiM115eTm+vr5XTL+RVVdX4+LicklNvLa2Ficnp3bH20Yfe3t7Y29v3y5/m9ra2l9dOvC30oVLqdVq1Go1jo6O2Nraysebm5vR6XQ3xcPdX+m6BVtz58+f56WXXsLBwYEFCxZc8qT4xRdfyFMkhg0bRm5uLq+99hr9+vXjhRdegAtNGBYWFri4uJCQkMCnn37KgAEDePLJJ9uVJQiCIAj/S9e1z/Zibm5uODo60tzcfNnpBpGRkdTW1nL06FGqqqrIycmRBzu0cXNzw8nJCa1WS3V1NVZWVqIJWRAEQbjh/M+CbWVlJc3NzUyYMIHevXubJ9OnTx969erFDz/8wPz589mxYwcDBw5k7Nixch5JksjNzeXbb79l3bp1dOjQgcGDB7crRxAEQRD+1/4nwVan07F27VqcnZ0vGS7extnZmZdeeok777yTLVu2cOzYMezs7NotrdY2wvD48eNyX82V+mQEQRAE4X/lugdbvV7PmjVryM3N5b777rtsrRbgzJkzPPLIIzg6OrJ7927Gjx/P8uXLWblypbyHopubGw888AA//PADL730EklJSezatUtM/xEEQRBuKNc12BoMBnbu3Mnx48eZO3cuEydOxGQyyRPULw6SmzdvprGxkTvuuIOhQ4cyZ84cOnfuTElJyWV3iQgODsZgMJCenn7ZdEEQBEH4X7luwdZkMnHy5En27NnDXXfdxejRo2ltbSUjI4OysjKMRiN1dXU0NDRgMpnkUcZ2dnYYDAYCAgLkaQwKhQKDwSCvhKPRaMjOzqakpARPT095RxBBuJkYDAYMBsNvLszels/8x5zRaGz3MHurafv9fqslS5Kk38xrNBoxGAwYjcYr5uHCfey38vwdXe378lt/E0mSLnu8zW+dfyO6blN/srOz+eCDD9BoNPIk5ry8PJydnXn44YextrZm4cKFdOjQgRdffJFffvmFlStXMmrUKEaPHs3hw4c5ePAgTzzxBFOmTCE5OZmGhgZ0Oh0pKSns2bMHX19fXn31VTFISripqNVqDAYDiYmJ8l6zkZGR7eYmtjEYDBw8eBCTyYRCoZDn3RoMBsaOHYuNjQ2tra1IksTZs2fx9PREoVDQsWPH39yR5WYgSRJqtRqA1NRUbGxsiIiIwMnJ6ZI5yEajEa1WS11dHSUlJdja2hIeHo6bm5u8iYDBYECj0ZCVlUVdXR0eHh506tQJFxeXS8ozmUwkJyejUCiIjIyUFwn5O9Pr9eh0OioqKqiuriYkJAQ/P7/LLvspSRJ6vR6j0UhtbS1lZWW4uLjg4eGBn58fkiTJD45tKwN6e3tjY2Mj/y2MRiM6nY6amhrKyspwc3OTF3C50eeLX7dgGxcXR2xsLM3Nze2O9+3bl4EDB1JeXs6aNWsICQlh6tSpeHh4cODAATZu3EhraysuLi6MGjWK8ePH4+LiQmFhIcePH+fEiRM0NzfTo0cPJk6cSLdu3dqVLwg3un/84x+cPn2aF154gdjYWPbt28fTTz/NE088cclN6+TJk0yZMgVvb29CQ0PlVp6TJ09SXFyMh4cHU6dORa1Wc++993Lu3DnS0tJ499136d279yXl3UwkSaKwsJDnn38eGxsb9Ho9KpWKf/3rX9x2222XBL/U1FTefvtteTvBnTt3EhwczPPPP090dDQAe/bs4Y033sDb2xsHBwdycnL497//zfTp09uVJ0kS586d49lnn2XIkCE89dRT+Pr6XnS1vx+DwcBPP/3EqlWr8PLyorW1FaPRyOOPP87kyZMveVipr69n8+bNJCUlMW7cODIzM9m/fz8PPvggc+bMobGxka1bt3L69Gk6d+5MZmYmnTp1Yvbs2fj5+WEymUhKSmLVqlUAdO7cmb179yJJEsuWLbvxl31svy+BIAjX29q1ayWj0Sj/e8KECZKFhYXU0tLSLp8kSVJxcbF04sQJSa/Xy8dWr14tLVq0SGptbZUkSZI+/vjjducOHDhQmjFjxhV3xblZVFRUSIMGDZLmzp0rFRQUSJIkSWvWrJHuuusuaceOHfLv36aqqkqKj4+X6urqJEmSpIMHD0oxMTHS22+/LdXU1Ejl5eXS2LFjpWeeeUYqLi6WJEmSnn76aemBBx6QUlJS2pVVWloqPf7445Krq6v06quvSpWVle3S/452794tjRkzRt7tp6ysTHrmmWekOXPmSNXV1e3ymkwmac2aNdK4ceOknTt3SpIkSSqVSioqKpJqa2slSZKko0ePSk888YS0ZcsWSZIkad++fdL9998vbd68WZIkSUpOTpZmz54tPfvss3K51dXVUmZmpvzvG9l167MVBOHy7r///nZ7owYHB1+xSSw4OJghQ4bINVSTycQnn3xCnz595GP//ve/2y0r2K9fP5RKJUazjehvNm392TExMfLyrj169KCsrIz6+nrz7Pj4+NC3b195WUAvLy/s7e2pr69Ho9GQkZFBXV0dI0aMIDg4GIC7776bzMxMMjMz5b5Ag8HAqlWruO222xg5cmS7a/xdSZJEZmYmLS0t9OnTBy7sVRsTE4NGoyEvL69dfpVKRWFhIba2tkRERKDT6bC1tSUoKEheiKimpoacnBy5qdnT05PIyEj5u1BQUEBpaSmDBg1Cp9Oh0Whwc3Ojc+fO7a51oxLBVhBuICaTCb1eT8eOHX/X5uSFhYVYWFgwaNAgeeOCixmNRoqLixkwYMBN32d74MABqqqq6N69uxxsfXx8sLOzo7KyUu7LvZKKigo0Gg0jR44kKCiImpoanJ2dL7vecW1tLa2trZhMJjZv3oxCoSA6OhpHR0fzrH9LKpWKhoYGuc+1TVvTsXnvZHl5Obm5ufj4+GAwGPjiiy/46quvSE1NlQf3BQQEAPDNN99w6tQpYmNjUSqVDBkyBEmSaG5upra2lvz8fJYtW8Zzzz3H6tWrKSsru+R6N6Lf/jYLgnDdnD9/np9++omXXnrpN/tXJUnixx9/5J577rlsIJUkiSNHjhAbG8vkyZMvG1RuFdXV1Zdd9rWNwWDg0KFDeHt74+3tLR//tc0J2vppT548yfDhwy9Zv/3vTLrCaGEnJyesrKxQKpXtjjc3N6NUKklJSWHbtm3k5eWxbt06XnjhBbZt24YkSQwcOJDXX38dKysrHn/8cc6ePctLL72Eu7s7ra2t1NXVoVarqaioQKVSUVVVxQcffMCrr75KdXV1u+vdiESwFYQbhFqtZt68ecyaNYvZs2f/ZrAtKCjgo48+4oknnrhswMjLy2PWrFm89tprREdHX7Fp+mbRNvr6cjd588E4FzMajfz444/ExcUxf/58Bg4cCBfOMS+r7d8KhYKqqipee+01wsPDiY6OlkeNGy5MO7xVp1T9Hm01W3NNTU0olcpL/h5tf7uYmBheeeUVPv30U5YsWYJWq2XDhg3y6OT4+HhGjhzJ6tWrKSgoYMaMGRw7dkwuw9vbmylTprBo0SK+/PJLZs+eTWZmJhkZGe2udyMSwVYQbgBarZa7774bS0tLPvvsM6ytrS8JBOZ+/PFHAgMDLxtENRoNL7/8MpMmTWL27NnY29v/Znk3Oj8/P+zs7KiqqpJrsW390P7+/pd94DCZTOzfv5+NGzcydepUevbsKb8PPj4+NDc309LSIuevra2Vt+M7cOAAjY2NbN68mZkzZ3LXXXdx7Ngxdu7cyapVqygsLLzoSn8vbc3HkiTJDx2SJKFSqTAYDHh5ebXL7+zsjKenp1zDBfD19SUiIoKWlhbq6+vZv38/Bw4cYNKkSQwcOJC3334bd3d3tm3bhqOjo1xm29/P29ubzp0709raSk1NTbvr3YhEsBWE/zGdTsdTTz1FaGgo27dvx9raGq1WS1FREdKFuYc6na7dOQaDgWXLlvHUU09dsqerVqtl9uzZREdHs2zZMnlnrJKSkpt6kFRbQDVdtFDH/v37Aejfvz/u7u5yzbMtCCQlJbFt2zb++c9/MnfuXFxcXKioqKClpQVfX19aW1spKCigpaVFfq99fHxwcnJi+PDhLF68mHfeeYeFCxeycOFCunXrRlRUFMOHD/9bT/1xcXEhLCwMjUbD+fPnkSSJxsZGamtrCQoKIiIiQh5/YDQacXZ2xsvLC+nCYhRt+evq6ggMDCQgIAClUomjoyNubm5IkkRYWBjdunWTg3PbVKyMjAw5sFdVVWFhYfGbrUA3AhFsBeF/SJIk/vnPf+Lj48MzzzxDfn4+OTk53HnnneTl5WEymVi5ciVPPfVUuwFAa9euJTAwkBkzZrRb/EKSJKZPn86IESOYNm0aZWVlHD58mKlTp152xO7NpEePHnTv3p3jx48THx9PY2MjaWlp9O/fn4CAACRJ4rPPPmPVqlVUV1eTnJzMm2++yeDBg+nUqRMlJSWsXLmSFStWUFZWRteuXenRowcJCQmcP3+esrIy1q9fT8+ePenSpQtdunRh+PDhDB8+nGHDhhEZGYm9vT2dOnWiS5cuf/vBUtHR0QQHB5OcnExlZSX79u3j1KlT9OvXDw8PDxITE3nrrbfYvn07/v7+9O3bl8bGRk6cOEFRURG7du1Cr9czefJknJycCA8Pp6WlhT179lBeXk5SUhIJCQny2gkdOnQgOjqas2fPUlZWxrlz5zh48CBjxozhnnvuMX95N5zrtqiFIAiXKioqYuLEiZetcSYlJWFnZ8fcuXPZtGkTcXFxdO7cGQsLC+655x7uvPNOZs+e3W5wVElJCdOmTZM362gTFBTE+vXrb4n9nl966SX2799PZGQknTt35uGHHyY8PJyKigoeeOABwsPDeeWVV1iyZAnHjx83P50333yTSZMm4eDgQE1NDUuXLiU5ORlvb2/Gjx/PhAkTLmkGra2t5ccff2TLli14eHgwf/58BgwY0C7P31FmZiY//vgjCQkJODs7c++99zJjxgwA1q9fzzvvvMOMGTNYsGABzc3NbN26lS+++AKdTkfXrl2ZNm0ad955J1wYRBUXF8fWrVvJycnB0dGRiRMn8vDDD8vXKygo4IcffmDfvn0oFAruueceZs2a1W7Q241KBFtBuAm0LSVoPvBEaK+xsRF7e/vLjs4Wri+dTofJZLqkm+PvSgRbQRAEQbjGRJ+tIAiCIFxjItgKgiAIwjUmgq0gCIIgXGMi2AqCIAjCNSaCrSAIgiBcYyLYCoIgCMI1JoKtIAiCIFxjItgKgiAIwjUmgq0gCIIgXGMi2AqCIAjCNSaCrSAIgiBcYyLYCoIgCMI1JoKtIAiCIFxjItgKgiAIwjUmgq0g3MROnDhBfn4+JpPJPAkubCZ/uY3pL1ZaWorBYDA/fMOrrKxErVabH/5D0tLSyMjIoKWlxTwJgIyMDNLT06+YfisrLi4mKSkJpVJpniRramr61fTLqaioIDs72/zwLUsEW0G4hiRJ4siRI1hYWLT7GTVqlBwgO3XqhKWl5SV5Fi5ciF6vNy8SgCVLlhAVFcVXX33FhAkTGDVqFGlpaRiNRkpKSrjrrrsYPXo0Dz74IGPHjuXcuXPtgu7p06fp27cvM2fOZO7cubi4uLB06VKam5vbXedGU1lZyb/+9S/uv/9+Hn74YR5++GEOHTp02aC7bNkyQkJCLnlfZ86cKd/kDx06RN++ffn3v//NQw89xLx58zh69CgtLS3U1NQwf/58/Pz8mD59OjNmzGDUqFGsX7/+bxF0T548ybRp03jggQd48cUXmTJlChs2bJDTm5qaWLFiBaNHj+buu+9m6tSpLF68mLq6unblXM6uXbsYPXo0b7zxBrW1tebJtyQRbAXhGissLOT1118nLy9P/vnmm2+wsPi/r19oaChZWVnt0m1tbZk1axZWVlbmxbFkyRJWr15NbGws33//PdnZ2XTv3p2wsDAsLS15+umniY6OZvv27Rw8eJA77riDmTNnkpycLAfje++9l5deeolvvvmGffv28d1339GzZ8/LXu9G8v7772NjY8PixYvZtWsXt99+O8uXL79swPX29mbZsmWkpaXJ7+vixYvp06cP9vb2VFdX89577/HYY4+xfft2YmNjsbe3Z/fu3dTU1ADg5eXFtm3bSE1NJSUlhYiICH766Sfy8vLaXetWJEkSjz/+OEeOHGHz5s0MHTqUAwcOyDXYffv2cezYMV588UUOHjzIO++8Q2pq6m8G3LYarSRJSJJknnzLEsFWEK6xwsJCFAoF4eHh7X7a7Nu3j8jISPn42rVrCQwMJCwsDIVC0a4sgHXr1vHss89ib2+PQqFAoVDw2Wef4eTkRElJCcePH6dfv37Y2NigUCiYPn06tbW1HD9+HK1Wy08//YS7uztDhw7Fzs4OhULB1KlTGTNmDHZ2duaXu2FUVlZy5swZQkNDcXd3R6FQ0LNnT0pKSqivrzfPzqxZs7jnnnvo2rUr4eHhODg4kJaWRs+ePQkJCeHQoUNoNBrCwsJwdHREoVAwYsQICgoKKCoqwtvbm+eff54BAwbI77O3tzclJSVUV1ebX+6WM3ToUG677TYUCgWurq64u7vT1NREfX09TU1NpKSkoNFoiIiIQKFQEBQUhI+PDykpKeTm5poXB4BKpeK7777j8OHDTJo0yTz5liaCrSBcB4WFhbz11lu89dZbFBYWtkszD6g//PADM2bMuGIts6ioiMGDB2NlZcXJkyfJz8+XawhttYWLywwJCcHS0lL+d2lpKVOmTMHR0ZEzZ86Ql5eH0Wi85HXcaM6dO0dDQwMxMTG4u7sD4Ovri52dHVVVVWg0mnb52wJkm0OHDhEZGUlwcDAAPj4+hIaG4uDgIOfx8fGhpaVFbiY2f09qa2vloPJ30Pb7l5SUkJ+fT1BQEB07dpT7aJ2dnfH09AQgKCiIyMhIsxLaO3bsGLW1tbz++ut4eXmZJ9/SRLAVhOsgNDQUSZL47rvviIiI4M0337xsE1pRUREFBQUsWLAAa2tr82SKi4sxmUycPHmSJ554gjfffJPx48fz0EMP0dzcTEhICGFhYZw5c+aS/t4zZ86g0+koKSnh1KlTPP3003z99ddMnjyZMWPGkJiYeEMPlKqoqLikqbjN7xkstW7dOvr06UPnzp3hQmAtKCggMzOT1tZWOV91dfVl+2QzMzOpqqpi+PDhdOjQwTz5lpSWlsaiRYt45JFHCAoK4oMPPoALgbVXr15UVVURFxfX7hyVSnXZwVKJiYkkJCQwfPhwoqKizJNveSLYCsI1pFAoeP311+Wf3Nxchg0bxqJFiygoKDDPzjvvvMOLL7542UDLRcF2yJAh/Pe//2XPnj08/PDDbN68me+//x6tVsvzzz/Prl27uPPOO5k7dy4rV65ErVYTGBiIpaUlpaWl9OnTh48//piVK1eSkpKC0WjkxIkTl9QObxXr1q2jvr6+XS02OjqaESNG8Nlnn3H//ffzyCOPsGfPHhwdHXF0dGx3PsBXX31FQEAAo0aNwsnJyTz5luTi4sKQIUOYNWsWycnJPPjggyQkJAAwcOBAgoODeeWVV5gyZQrPPvsse/bsgQstLBcrLy/n6NGjODk5/e2aj9uIYCsI19jFI2EtLS2ZM2cOkiRRWFjY7qZUVFTE999/L4+gvZzg4GAsLCxQKBRyeTNnzsTGxoaioiKMRiP3338/ycnJ/Oc//2HBggWMGTMGGxsbuYygoCCsrKzavaagoCASExNv6GDr5+d3xSbjtubkKzl48CBDhw5t18ypUCj4z3/+Q3JyMl999RUff/wxvXv3xtvbu11QBli8eDEpKSk88MAD9OjRo13arSwkJISRI0cyZ84c7rnnHkpLS4mPjwega9eufP7552zdupVXX32Vp556in79+rVrWm6zc+dOli1bxq5duxg7diy33XYbS5cu5cSJEyxcuJBTp061y38ruvw3WhCEa6akpARJkhg+fHi7PsEffviBgIAAZs+e3a6P9WIhISGEhoZSWloqTx0y71dUKBRYWloydOhQIiIi5L7fadOm4eDgQFBQEJWVle2mApWVleHj43PF695ILn5ASUlJob6+nh49euDh4dEuX5vq6mpaW1sZM2aM3F/bpu1hw8/PD2dnZxQKBV27dsXb21vOs3jxYnQ6HV9//bU8YOjvpK3vW6FQtJtP2/bAFxISQp8+ffDy8kKhUBAVFcWAAQPalTF8+HDefPNNZs+ezcyZM/nHP/7BHXfcga+v7yUPQbcqEWwF4RqSJInHHnuMoqIi+diaNWsYNmxYu9prUVERixcvZsaMGZc0IW/evJlXX30VrVaLQqFg6NChnDlzRu5f3bBhA1qtlhdeeAEHBweeffZZMjIyMJlMKBQKnn/+eebOnUvXrl2xtLRk6tSp7N69m+zsbAwGA6WlpRQWFspTYm5U48ePJyYmhmPHjlFRUQHA/v37GT16NB07dgRg1apVbNq0qV2f4bp16wgKCiI4OLhdoKyurmbXrl0kJibS2tpKTU0N33//Pb6+voSFhQGwaNEiysvLGTFiBFZWVhQXF/Pxxx9z5swZuZy/g/T0dLZt24atrS19+vQBIDY2lk2bNlFfX49CoeDgwYOcP3+e22+/HYVCQXp6Op9++in79++nc+fOzJ07l4ceeoiHHnqIqVOnEhUVhZ+fH3379m33cHPLkq6jnJwcacuWLdKyZcukdevWSampqVJTU5N5tsvauHGjtHjxYiktLa3d8cTEROmtt96SFi1aJB07dkxqaGholy4I/0v5+flSeHi4FBkZKT366KOSjY2NNGfOHEmr1bbLt2jRIqlDhw5Sa2tru+OSJEkjRoyQrK2tpWPHjkkGg0HS6/XSnXfeKd12223SbbfdJtnZ2UlbtmyRdDqdJEmS1LdvXykiIkKaM2eOFB0dLc2cOVOqq6uTyzOZTNL7778v3XHHHdJDDz0kubm5SU8//XS7PDeqhIQE6fbbb5eGDh0qde/eXbr77rullJQUyWQySZmZmdKgQYOkqVOnSpmZmZIkSVJVVZV0//33Sz/++KPU0tLSrqyqqippzpw50qBBg6T7779fioiIkN544w2psrJSkiRJ2rRpkzR69GipQ4cOUkREhPzz3HPPSefPn29X1q2muLhYmj9/vhQZGSn5+vpK1tbW0uDBg6Vdu3ZJRqNRkiRJ2vv/2Lvv+Kiq/PH/r0zJpPfeSSGEkpCQUEIJXRCkgygKIoqra8OPfXVXXdvaQFlcFRelKNKL9A4hQCB0UiCk915mMpN+f398yP0xmaB+97NAgPN8PPIQzzlzbnInmfc9ffduafTo0dLQoUOlsWPHSkOGDJFWrFgh569YsUIKCAiQ3n777Xa1/+/n9qxZs6TJkydLR48ebZ99VzKT2o9k3yQnTpxg0aJFuLm5MXLkSBISEsjOzuapp55i+PDh7Ysb2bt3L++99x6NjY28++67jBkzBq49xe7atYshQ4bQ1NREQkICw4cP55FHHsHe3r59NYJwy0mSRHNzMzk5OZiZmcljru2X9bS0tNDa2mrSqgVobGwkJyeHwMBAuZu3rVWbm5uLl5cX5ubmcku5bRZyQUEBHh4eqFSqDq8nSRL5+fm4u7tjbm5+x3Qht7S0UFxcjL29PZaWliiVSszMzJAkiby8PBwcHOQu4bbybePTHdVVWlqKwWDAxcUFGxsb+T60trbS2tpqMtmnra67uTtZkiT556+pqaGlpQUnJyd5pzOuuz+1tbU0Nzfj6OholF9bW0ttbS329vbY2tqa1N82jNH2/t3tblmwbW1tpaysDHNzc+zt7Tl+/Dh/+9vfiIuL48UXXzR5M9pUVVXxySefcOrUKXx8fHjwwQcZO3Ys+/fvZ/HixYwePZqnnnoKgM8//5wrV67w/PPP31OTGITOr+3P7D/9UJHarZ39vXR+J6/NHynTGd3o+75R+m/5v743wo3v+43S70W3bMxWoVDg5uaGo6MjCoWCmpoa1Go1fn5+vxloP/30UyRJYvTo0UZvWmZmpjw4r1QqUSqVODk5UVlZSW5urlE9gnC7mbXbYOH/1Y1ee6N0fievzR8p0xnd6Pu+Ufpv+b++N8KN7/uN0u9FtyzYcu3Gp6ens3nzZlauXEmfPn1+swt5zZo1lJaWMn78ePz8/IzyMjMzycvLM3ozHR0dsbe3N+n2EQRBEITb6ZYGW66N3S5fvpySkhLs7OxMxlHaJCUlcenSJUaOHElsbKzJE5IkSdjb22NnZ2eUXl1dTU1NjVGaIAiCINxOHUe6m+jhhx9mzZo1vPvuu+zbt48ff/wRrVZrVKaqqor169fj5+dH3759ycvLIycnx2gTbAcHByRJMnltRwFYEARBEG6nWx5slUol5ubmDBw4kODgYC5fvkxhYaFRmVOnThEfH89bb71Fz549CQsL46233mLLli3y9nNtLd32XcYODg5iJrIgCILQqdzyYNumurqauro6HB0d5X1IGxoaaGpqYsSIEezfv5/q6mrKy8spLy/n+++/56GHHmLNmjU899xzBAQEYGNjQ21trVznuXPn0Ol0+Pv7X3clQRAEQbi9lO+888477RNvhsTERC5cuEBKSgpr1qzhs88+4+LFizz44IMMHjyY5ORknn/+eZKSkujVqxdOTk6o1Wr5a8eOHVy8eJHBgwcTGhqKhYUFycnJZGVl4ejoyNmzZ0lMTCQuLo64uDiTMV5B6MyOHj1KfHw81dXV8nyE3/sdPnbsGM3NzR2WXb9+PWfOnOHChQtYWVlhb29/w/kRd6qLFy9SXV2NjY2NyTri65WWllJeXk5NTQ0ajabDtcwpKSmUl5djbW1tkn/06FE2btxIQUEBLi4uHR5ScK8rLCwkIyMDc3PzP7QLWXFxMenp6TQ2NtLS0iLvRZ2ZmcnatWs5d+4c1tbWJsfwlZaWcubMGXJzc+UvvV5/R+xAdcuCrUajITU1la1bt1JUVERISAivv/4648aNQ6lUUlZWxpUrV/Dz8yMqKsroFzozM5PS0lJsbW3x8vLCw8MDd3d3QkJCSE9PZ9euXeTk5DBhwgSmTZt2RyzOF4Q2H3/8MU899RQjRowgOTmZv/zlL4waNQonJyeTIJqXl8fjjz/OgQMHsLCwYNGiRaxatYqoqCicnZ0xMzPjlVde4d///jfh4eEkJSXx0ksvERYWZrQpxp2qpKSE+fPns379evbs2cO2bdvw8PCQD1e43sGDB3n44YcpLCwkJyeHL774gqSkJLp27YqzszMpKSm8+OKL7Nu3Dzs7OzZs2MD69euxtrbG09OTmpoaPvroI1avXi0fGr9y5UoUCgX+/v5GhzvcqzZv3syCBQvYsmULGzdu5OTJk/j4+ODt7d2+KDqdjnXr1rFw4ULKy8uJj4/nm2++wdramqCgIDZu3MgHH3yAXq/HwsKCtWvXcvHiRXr27ImVlRV1dXX8/PPPPProo6xcuZKVK1eyceNGmpqa5I2OOrX2W0rdLK2trVJTU5NkMBgkg8Eg1dfXS83NzXJ+S0uLVF9fLzU2Nkqtra1Gr21paZEaGxulhoYGqampSc5vaWmRGhoa5PqampqMXicId4L9+/dLO3bskBoaGqSGhgbp8ccfl+bPn2+ypaN07e/o/fffl6qrq6XGxkZJr9dLvXv3lubOnSvpdDpJkiRp1apVUkVFhdTY2CjV19dLffr0kYYPHy6Vl5e3r+6OUlxcLA0bNkyaPXu2lJqaKun1eun777+XZsyYIe3cuVMyGAxG5ffs2SNt2rRJKiwslBoaGqTt27dLUVFR0j/+8Q+pvLxcKi4ulr799lvp/PnzUlNTk3T27Flp6NCh0t///neptLRUam1tlX755RcpKSlJfm+ee+456eWXX5YyMzONrnUv2rdvnzR27Fjpr3/9q6TX66X09HTpzTfflF555ZUOt/5cs2aNdP/998tbi5aXl0unTp2SkpOTpdbWVikpKUlau3atVF9fLzU0NEhr1qyRJk2aJMXHx0vSte01//3vf0uLFi2StFqtpNVqJZ1OJ9XX17e/VKd0y/qVzMzMUKlUWFhYYGFhgUajMXrKVigUchdP+6d5hUKBWq3G3NwclUol5ysUCszNzeX62j/ZCsKdIC4ujtGjR2Nubo65uTn+/v64u7ub/B1w7e/olVdewd7eHrVaLXfZZWZmytvfPfjgg/IwjEajwdfXl+jo6Du+JSZJEvX19YSHh+Pu7o6lpSVRUVFkZWVRUVFhMlly+PDhjB8/Hg8PD8zNzfHx8UGj0VBUVIRer8fNzY25c+fSs2dPVCoV4eHhODs7U1JSgl6vx8zMjKlTpxIZGSm/N5WVlWg0mj/UVXq3S05Opqqqir59+2JpaUlQUBDBwcHk5uZy9epVo7I6nU7eiCgsLAy1Wo2TkxNRUVF069YNMzMzIiMjmTx5MhqNBnNzcxoaGtDr9fJpTqWlpeTl5eHl5YWNjQ02NjZYW1uj0WiMrtVZ3bJgKwhCx9p2QOPaXsdr165lwIABNxxjbR808/LyiI6Olh82r3/oTExMJCcnhylTptzxAWLfvn0UFxfTu3dvHBwc4NoZtxqNpsMzbpVKpdHDeXl5OQaDgSFDhuDt7Y2ZmRlqtVq+zxUVFRgMBpydneV71XbuL8CWLVtoampi8ODBuLu7X3ele09tbS3l5eXY2trK46pm147ck67tq3y9wsJCrly5goeHBwqFgm+//ZYffviBjIwM+f4qrtsz/OLFiyQmJjJo0CC6desG17b8LS0tZfPmzXz44YcsXbqUtLQ0o+t0Zh3/NQuCcEutXr2a3r1707NnTz788ENGjBjxh8ZXFy5ciF6v58EHHzR6wt+wYQP9+/dn7ty5LF68mMjIyDu+56e5uRlJklBcdwhA23+Li4sxGAztXmHs4MGD2Nvb4+bm1uGDzHfffYder2fIkCFGE262bNnC+PHjef311xk+fDj9+/fvsNfhXmTWbqtLW1tbVCqV0RGHAFqtlvLycjIyMti/fz/nz59n0aJFPPbYY+zYsUMud/HiRebPn8/MmTNpampi3rx58nvl5ubG6NGjGTduHIGBgZw4cYIFCxawefPm667UeZn+xgmCcMtNmzaNo0ePsmbNGt566y2ee+45Ghsb2xczkp+fz0cffcQPP/xAeHi4UXCeMGEC+/btY/Hixbz88su8//776HQ6o9ffTdp3Ibe3bt06jh49yquvvkr//v3bZ3PkyBFOnDjBCy+8YLKa4f7772ft2rWsXLmSo0eP8v3331NaWmr0+ntN2wZD7el0OqqqqkzeD0mSkCSJwMBA5s2bxxdffMGnn34KwM8//0xFRQUA3bt358svv2Tr1q34+vry9ttvc/nyZQDc3d0ZN24c06dPZ+rUqcydOxeDwcC6deuMrtVZiWArCJ2AWq3GxsaGUaNG8fzzz/PTTz+RlZVl8qHVJj8/n379+vH6668zfvx4k3GrtvqGDh1Knz592LhxI3q93qjMncbd3R0LCwtKS0tNuozd3NywsLAwSmtz6NAhli9fzrhx44iOjjbpMSgrK+Pzzz8nKiqK/v37m+Sr1WqsrKzk/JSUFLKysozK3GtsbW3lrvzr1dbW0tjYKI+ztrGxscHJyQmDwYBOp8PCwoKAgABCQkJoamqSf8+VSiWWlpYEBgYyZMgQWltbSUhIgOvm/bQtBw0ODmbgwIHycZOdnQi2gtCJqFQqNBoNTU1N5OTkmIx9cS3QvvDCCyxevJg//elPv7nuU6lU4ufn1+G5rHcaDw8PLCwsjO7JgQMHKC4uJjw8HEdHR6PyXJvE8/XXXzNjxgyeeOIJk/WYqampLFiwgNjYWObPn/+bY7EKhYKMjAxKSko6fF/uJXZ2dvj7+2MwGMjMzIRrXcWVlZV4enoSHBxsVN7W1hZnZ2e5hQug1+vlddLOzs5G5c3MzKioqODKlSs3DKaVlZUUFhaarMXtrESwFYTbKCEhgZycHHJzc5EkiWPHjvHpp5/i4eHBgAEDUCqVrFq1ijfeeIOGhgYAXnrpJYYPH07Pnj0pLy9n7dq1vPDCC9TV1cG1YNw2M3njxo188cUX9OjRw2Ri1Z0mPDycrl27kpCQwIULF6ivr+f8+fOMGjWKwMBAzMzM+P777/npp58oKysjOTmZ9957j/HjxxMbG0tNTQ27d+/myy+/JD09ndTUVN5//31GjBjBlClTaG5uZu/evcyYMYO9e/dSXl4ub5rAtffq5MmT9OrVi4CAgPbf3j3FzMyMsLAw3N3dOXv2LFVVVfLhMZGRkbi4uHDhwgU+++wzdu3ahaenJ5GRkVRWVnLy5EmKi4vZtWsXZWVl9O/fn7q6OnJzc+Xu5KysLPbu3YuVlRUDBgyAa9v4LlmyhPLycgCys7PJzc1l0KBBRt9bZ3XLDo8XBMFUc3Mza9eu5ZdffiEvLw8PDw+cnZ1ZtGiRvEnFo48+yqZNmzh58iQ7d+7k+++/h2utYDMzM5qbm3nmmWd48skn0Wg0LFq0iMzMTI4fP06PHj2IjIxk1qxZcn13srq6Ot566y3i4+MJDQ3Fx8eHOXPm0K1bN0pKSnjkkUcICAjgzTff5NNPP2Xfvn3ykkGAlpYW3njjDSZNmsTOnTtZsmQJpaWlRvljxozhmWeewc7OjtWrV3P58mUuX76Mvb09o0aN4v7778fHx6fDSVb3kubmZs6fP8/atWtJTExErVbz8MMP8/DDD6PRaPjll1/44IMPmDlzJn/5y1+orKxkw4YNrFixgpaWFgIDA3nggQeYNGkSTU1NHDx4kJ07d1JWVkZVVRVDhgxh/PjxREREoFQqOX78OP/+979xcHDA2toac3Nz7rvvPsLDw++IB0kRbAXhNmtsbKShoYHW1lYUCgUKhcKoa7iuro78/HyCgoJobm6msbHRpEu4ba05QH19Pa2trTQ1NaFSqVCpVJibm9/xgbaNXq+nubkZhUKBUqlEo9GgUChobW0lLy9PHk80GAwddkFaWlqiVqtpamqS7/v1zM3N0Wg0mJmZ0dDQQEtLC62trZiZmcmB+14PtG1aWlpobGykqakJMzMzeY0s17qVdTod9vb2WFlZIUkSTU1N8ni78tqhNGq1GkmSjH63JUmSx2bbxtCbm5tpaGiQZ0CbXVu61X6MvbMSwVYQ7gBtgVj4bW0fZ3fLg8WdTLwXxkSwFQRBEISbTDwqC4IgCMJNJoKtIAiCINxkItgKgiAIwk0mgq0gCIIg3GQi2AqCIAjCTSaCrSAIgiDcZCLYCoIgCMJNJoKtIAiCINxkItgKgiAIwk0mgq0gCIIg3GQi2AqCIAjCTSaCrSAIgiDcZCLYCoIgCMJNJoKtINwix44dIy8vr32yifz8fJPzam+koKCAvLw8kzNZ2xQWFpKXl0dLS0v7LACKiopumNfZlZWVyWej/p7y8nIMBkP7ZNnly5e5cuXKDctUVFSQl5eHXq9vn3XPKCws5OLFi1RXV7fPAkCn01FVVdU+uUN1dXXk5eVRWVnZPuuuJY7YE4SbSJIkvvjiCxYuXMjEiRM5efIkAQEBfP755/j5+cnlTpw4wcsvv0x0dDR5eXmcOnWKAwcOEBQU1OF5oP/85z9ZuHAho0eP5ty5c3h5efHhhx8SEhKCQqFgy5YtvPbaa8TFxVFRUYGZmRnvvPMO3bp1o6SkhL/97W/s37+fsLAwqqurmTt3Lg899JDRofWdUVlZGV988QU1NTVUV1fT2NjI008/zcCBA7GwsGhfnKVLl/Ldd99ha2tLa2sr0dHRPP300wQFBQGQkJDA+++/j6WlJXV1dXTv3p0ZM2YQERGBwWDgm2++Yd26ddjb2wNgbW3NU089xahRo7Cysmp3tbvX5cuX+eKLL7C0tOSvf/0rTk5OAJw5c4alS5dSXFyMs7MzVVVVDBkyhNmzZ+Po6Ni+Gvbt28e3336LlZUVDQ0NSJLEvHnzGD16dPuidx9JEISbprW1Vfrb3/4mLVy4UKqsrJSKioqkkJAQ6eOPP5ZaW1slSZKkvLw8ydPTU1q7dq1UXl4ulZWVSV9++aV06NAhqbm5uX2V0uLFi6XevXtLaWlpUkVFhXT69GnpiSeekKqrqyVJkqTNmzdL/fv3l3788UepuLhYKisrk5555hmprKxMkiRJ+vrrr6Xw8HDpzJkzUmlpqbR9+3YpODhYOnHihNTU1NTuap3L22+/LT3//PPSuXPnpPLyculf//qX9OKLL0rx8fGSwWAwKrthwwZp5MiR0oYNG6SSkhLp0KFD0pAhQ6Tly5dLer1eKisrk6ZMmSJ98cUXUm5urlRaWir96U9/kt5++20pJydHKi0tlf7xj39I27dvl4qLi6WSkhJpxowZ0qxZs6Tk5GSja93Namtrpffee0+ytLSUnnjiCamiokKSJElKSkqS5s6dK7311ltSaWmpVFFRIe3Zs0favHmz1NLS0r4a6dixY9Kjjz4qvf/++1J5ebmUnJwsffnll9IPP/zQvuhdSXQjC8JNZGZmxksvvcSTTz6Jo6MjHh4etLS0oNfr5a7iNWvW8NBDD3H//ffj7OyMi4sLTzzxBP3790epVLavklWrVjFr1iwCAgJwcnIiIiKCTz/9FDs7O7m+AQMG8MADD+Dm5oaLiwsffPCB3Br58ssvGThwIF26dMHV1ZWRI0fS2NhIYmLiH+6WvR3Kyso4cuQIvr6++Pr64uzsTHR0NImJieTl5Zl0vev1emxsbPD09MTNzY3Y2FhsbW0pLCxEr9cTHx9PRUUFoaGh+Pj44OrqSmxsLOnp6eTm5uLs7MzTTz/NyJEjcXd3x83NDTc3NzIyMiguLja61t1s//791NfXM23aNKP05ORkSktLiYmJwdXVFScnJ+Li4rjvvvtQKIxDi06n49ixY1RXVzN+/HicnZ0JDQ1l3rx5TJ8+3ajs3UoEW0G4yezs7OTu2by8PPLy8pg2bZrcPXzgwAFsbGzQaDScOHGC3NxcLC0t0Wg07Wr6X+np6QwdOhS1Ws2pU6fIz8/Hzs5Oru/IkSOoVCo0Gg2nT58mJycHW1tb+QPQ1tYWrVYrj/Oam5vj5eXF6dOnO3WwvXDhAmVlZYSHh+Pg4ACAl5cXCoWC4uJik+998ODBaDQalixZwpEjR7h06RIeHh7069cPR0dHbG1t8fb2xsbGRr53Xl5eaLVatFotCoUCW1tbzM3N5Tqrq6txd3fvsIv0bnTq1CkuXbpEjx498Pb2ltO1Wi1ZWVlUVVWhVqspKiri4sWL6PX6Drvzi4uLSU1NxcrKCjs7O9LS0sjOzsba2rrTD138t4hgKwi3QF5eHv/zP//DtGnT+Oijj+jWrZv8AZ+ZmUl+fj6vvfYaq1atYsaMGcyYMYPMzEyT1lpBQQFNTU2Ul5fz5ptv8tFHH/Hggw/yySefUF9fT2Fhofzft99+m48++oiZM2fy4osvUltbC4Cvr6/JxCilUkljY6PJ9TqTwsJCDAYDarVafnBQKBSYmZlRUlJiEmx9fHx47rnn0Gq1PPLII3zwwQeMHz+eqKgoFAoFrq6uFBYWcvXqVXlilEKhoLy8nLq6OqO6uPaQU1paSmxsLIGBge2z7zqFhYUcOXIEJycnRowYYdRalSSJlpYWCgoKWLVqFf/4xz947733eOyxx9i4caNRPQA1NTWUlZVx8uRJ/va3v/HOO+/wxBNP8Nprr5GUlNS++F1JBFtBuAVaWloYPnw4s2bNYuXKlXz11VdyYGtubqZPnz688cYbvPfee2zatIm9e/fyyy+/0NzcbFRPbm4ura2tuLu788orr/Dtt98yatQoFi5cyOrVq+Xu6d69e/PKK6/wzTffMHfuXNavX8/Vq1dpaWnhT3/6E9XV1cyfP5+PP/6YV199laqqKjw8PFCpVEbX60xaWlpu+DDQUZ5SqcTW1pawsDAGDBhAbm4uX3/9NcePH8dgMNC9e3eio6P57rvvePrpp/mf//kfDh48iEajwdLS0qgugB9++AFXV1eGDRsmd9nfrbRaLevWraOxsZHZs2ebtFa1Wi3V1dUEBgYyd+5c/vrXv/L222/j6enJ7t27TWYlS5JEa2srgwYN4osvvmDx4sW8+OKLZGdnk5CQYFT2biWCrSDcAj4+PowYMYJ58+bRo0cP9u3bZxQcNBoNjo6OODk54enpiaurK4cPHzZZluPu7o5CoUClUuHo6IirqyuzZs2ioaGB9PR03N3dUSqVmJuby/mPPPIIAJs2bcJgMBAXF8e2bduYP38+Y8eO5eWXX74jlrS4urresGu9o7z4+Hjef/994uLi+Prrr3n11VeRJIlt27ZRUFCAWq3mrbfe4vvvv+eFF15g9uzZ+Pr64uLiYjLT+MsvvyQpKYkZM2bQu3fvDmeI300SExPZs2cPv/76K/PmzePJJ5/k119/5fDhw3z++edcvXoVW1tb1Go1dnZ2ODk50aNHD6KioqipqSEjI8OoPmtraxwdHWlpaUGpVOLq6kpoaChWVlYkJSXdE0uARLAVhFtApVJhYWGBtbU1gYGBZGRkyMG2X79+nDp1yij4dtQtCuDn54ePjw9FRUXymKuVlRVmZmbyB5mXlxfnzp2jqakJro0ztra2yq1ejUaDh4cHw4cPp0ePHrS0tNDU1ETv3r1NWjCdiVKpxMzMjLKyMhoaGgBITU2lpqaGnj17moyj7t+/n/LychwcHHB2dmb8+PGMGDECCwsLucfA3t6esLAwevXqRY8ePbCzs6Nbt264uLjI9Xz11VdcvXqVt956i9GjR6NWq6+7yt3J2dmZ+++/n5kzZzJ48GCioqJwcXHB0dERHx8fPDw88Pf3l5dEcd1QRG5uLuXl5Ub1KRQKFAqF3MIFMBgMVFdXo1ar5TH4u5kItoJwC504cYIlS5YQFRUlt46GDBlCfHy8PKO2bVw2JiYGhULBnj17+Pzzz2lsbESlUjFgwABOnTolB4ytW7fS2NjIhAkT0Gg0TJo0iaKiInkzi7b/jh8/HktLS86cOcOmTZtoaWlBpVKxdetW7OzsGDRoUKcOtnFxcfTo0YNjx45RUlIC1wLqgAEDCAoKQqFQsHbtWnbt2kVNTQ0Gg4HU1FQyMjKor69Hp9ORkJAgv7aiooL9+/dTXFyMSqWipqaGDRs24OnpKa+BXrVqFQUFBYwZMwYfHx/Ky8vZsGEDaWlpRt/b3aZnz57MmTOHxx9/nMcee4zZs2fTp08fwsLCeOCBBwgKCsLHxwcrKyuys7Ph2ozjyspKevbsSVxcHOnp6SxfvpyjR48SGBjIkCFDqKqq4vTp03BtrkJKSgrOzs4ms5fvRrdtU4usrCx2795Nr169GDhwYPts2fnz50lKSkKr1eLv70+/fv3w8vKS8y9evMi+fftQKpX069ePsLCwu348Rbhz5OXl8eqrr5Kfnw/A1atXGThwIF9//TVubm5w7UPq73//uxxM161bxwMPPMBf//pXXFxcGDduHImJiWzfvp2YmBiqq6sZN24cfn5+KJVK9u/fz0cffcRDDz2ElZUVNTU1zJkzB6VSiVqt5vjx4/zlL3/hoYcewtbWliVLlvDTTz/Rp08fLCwsuHz5Mn//+9/p2bNnh0uNOpPDhw/z2WefYWZmhrW1NUqlkmeffZbo6GiysrJ4+umn8fLy4q233sLMzIxXXnkFnU5HaGgo2dnZKBQKXn75ZWJjY6mqquKvf/0r+fn5BAQEcPr0aYYNG8b8+fPx9/dn586d/P3vfyc1NRVLS0t5PHvo0KG88sorhIeHt//27lr5+fl8/PHHHD9+nAULFjB+/Hiampr4/vvv2blzJ97e3hQWFuLp6ckrr7xCnz59+OWXX3j//feZOXMmb731FpmZmSxdupSEhAQcHByoqqqib9++/PnPf74nJpzdtmD77bffsmjRIl588UWeeuqp9tkArFy5kk2bNtG1a1f69OlDQkIC5ubmzJs3j9DQUFavXs2ePXuIiIigpaWF8+fPM2zYMKZOnSoCrtApNDc3U15eTnNzM/n5+Xh4eGBjY2PUTcm1rt7m5mYKCgqwt7fH3t4eBwcHzMzMyMvLIyMjg759+8pjiYWFhSgUCgoLC3F0dMTd3R1LS0u5tVxaWkpraytFRUXY29vj4eEh59fW1qLVaklOTsbZ2RkPDw88PDw6faAFaGxspKqqiuTkZDQaDf7+/ri7u6NWq2lqauLixYs4OzvLS4IqKyspLi6mubkZe3t7bGxscHBwwNzcnJaWFqqqqiguLqapqQkbGxtcXV2xtbVFqVRSV1dHdXW13B3fxsrKSq7jXtHc3ExNTQ319fVGS9m0Wi11dXXo9XoaGhpwdXXF0dERtVpNcXEx+fn5eHp64u3tTUtLi7xkqKysDG9vb7y9vbGzsxMt25tl2bJlHDhwgFOnTvHcc8/x7LPPti/C4cOHWbx4MYMHD+bRRx/FwsKCoqIiFAoF3t7enDx5ksWLF9OvXz+eeOIJJEli8eLFFBQU8Oyzz9KjR4/2VQrCbdXc3Py7s307KiNJEs3NzR2OFXZU/nq/ld/Q0IBCoeiw3s6usbERMzMzVCqV0WSl5uZmeWy3TdtM5fbpfzRf+H1t47DXB83W1lZaW1vl8do2LS0t8u/lnfCA999yyx8n2p5qgoKC8PT0bJ8tS0tLo7W1leDgYJycnLCysqJLly74+/tjbm7OlStXaGxsJDg4GDs7O+zt7XF3d6esrIzc3Nz21QnCbXejoHe9jsqYmZndMCB2VP56v5Wv0WhuWG9nZ25ujlqtNgmO7YMv1ybudJTe5vfyhd/XPqC2palUKpN0pVKJRqO5pwIttzrYVlVVsWzZMjw8PBg6dOhv3uy2hea5ubksXLiQf/7zn5w+fVpebJ6ZmUlRUZFRHQ4ODlhbW5usTRQEQRCE2+mWBtv169djbW3NoEGDOlw0fr3m5mZycnKora2lW7duGAwGXn31Vf71r3+h1Wppbm7GysoKW1tb+TUKhQKdTifvlCMIgiAIncEtC7YHDhwgNTWVgIAAVCoVOp0Ork0Maft3e56ensTExDB06FDuu+8+HB0duXDhAgUFBfJesO23VbOxscHGxsYoTRAEQRBup1sWbLdt28ayZctYsGABcXFxzJkzh+PHj7Nw4UK++OILk1M07O3tcXR0xNLSEktLS8LCwvDz8yMzM5O8vDy5+7j9odkODg5GC60FQRAE4Xa7ZcH29ddfJykpifj4ePbt28eXX35J7969ee6553jmmWdwcXGhublZ3p7OyckJSZLkVq9er6e+vh4rKyssLCzw9fXF2toarVYrXyM5ORm9Xo+vr6+cJgiCIAi32y0Ltm5ubgQHB8tfPj4+WFpa4uLigouLC5mZmTz77LN89NFHlJSU0Lt3b9RqNampqeh0On799VfOnj3L/fffT3R0NL1798bLy4vk5GTS0tLYs2cPOTk5xMTE4O/v3/7ygnDHKCgooKCgwGRj/eslJSWRmJgof+Xl5Zn08gAUFRVRUFBgssfy3SAtLY2MjAx568bfcvnyZa5evdrhFpjXS09Pvyf26f1vKy4uJjk5merq6vZZN1RWVkZmZmb7ZJler6egoOCueT+U77zzzjvtE2+FS5cu0djYiJ2dHS4uLjQ0NHDy5EmcnJyIjIwkKCgIJycnTp48yZo1a8jIyGD8+PFMmzYNJycnHBwc8PHxISUlhQ0bNpCamsro0aOZOnXq706+EoTOqqCggOHDh6NSqejfv7/JsgmuBdpZs2bx008/sXbtWtauXYu5uTkxMTHy2aKvvPIKa9as4ezZs/zrX/9CpVIRGhr6m0uB7gRlZWW8+uqrbN++nX379rFnzx7c3d3x8vLq8Gf77LPP+Ne//oVOp2PPnj2cOXMGf39/k32UubYH8ltvvYWzszNdu3a9Y5dF3Uq7du3i3XffZefOnfz666+cO3cOLy8vPDw82hc1kp2dzaJFizh8+DCxsbEmn9nl5eV89913/PTTT8TExODs7GyUfye6LZtaANTV1VFfX49SqcTKygpJkqipqZFPkVAqldTX11NbW0tjYyOKawc5W1tbyx9ATU1N8q4mCoUCe3v7e+YgYuHu9Oijj3L48GFmz57N3/72tw4/8BctWkRWVhbjxo2T8x0dHenVqxdKpZL58+djZ2cn/3fJkiWsWrWKTZs2yWXuVC+88AJ6vZ4nn3wSb29vNm3axOnTp5k9ezaxsbFGJ/9s3bqVxYsX89RTTzFs2DCKi4t55ZVXmDVrFlOnTjXaBzo9PZ2vvvqKNWvW8O677zJ79mzxWfI7zp07x+LFi3F1deXZZ5+lsLCQDRs2oNFoeOmll254uEBpaSmbNm3im2++oWvXrixZssRoRzW9Xs+mTZv429/+RmBgIF9++SVhYWFGddyJTB+bbxFra2ucnZ3lbc80Gg1ubm44OjrKHwYWFha4ubnh4+ODl5cXtra2Rk/6arUaFxcXOV/8cQh3sq+//prCwkL8/Pw6bNG2MRgMjBw5ksGDBzNo0CAGDRpEjx49UCqVFBUVsWPHDqKjowkICMDDw4OHHnoInU7HiRMnaGxsbF/dHaOsrIyzZ88SEhJCUFAQ3t7e9O3bl7S0NKNTkNpkZ2fL6/Wtra3p1q0bCoWC/Px8oyMFKyoqeO+993ByciIoKMioDuHGTpw4wZUrV+jXrx8+Pj5ERUUREhJCRkbGb3YPHzt2jDNnzjBgwID2WXCt5+b8+fPcd9997bPuaDf+ixYE4ZY5deoUy5YtY+nSpSZnqbZ35swZKioq+OCDD/jXv/7FqVOn5N2PXFxc5B3X2nTt2hWVSkVWVtYdveHLoUOHKCoqIjw8XG41eXt7o1QqKS0tNRm7HTt2LOHh4axatYr4+HiOHDmCvb09ffr0MVqxsHz5csLDw7n//vtv2BoTjOl0OoqLi+XjGrm2e5daraa5ufmGD3UHDx7k1KlTTJ8+HR8fn/bZpKamcvz4cXr37k1kZGT77DuaCLaCcJsVFBQwc+ZMXnjhBQICAn5328ARI0YgSRLR0dEcOnSIRx55hEWLFlFfX49araZfv37s27ePnJwcWltb5a0I7+RAy7Whp+bmZqOt/pTX9jMuKSnBYDAYle/SpQsvvvgiarWap59+mn/9619MmjSJPn36yK/fsWMHtbW1DB8+HD8/v9+998L/atv3WKlUmgxL6HS6DidKJScnk5iYSHh4OJGRkSavKysrY/fu3VRUVPDAAw/cdQc9iGArCLfZ66+/ztixY5k4ceJvdh+3efjhh5kyZQqjR4/myy+/xMLCghUrVsgzbf/85z/T3NzMU089xahRo0hJSbkrZyNfr7m52WT2tkqloqKigp49e/Loo49SXV3NF198QXx8PPX19aSnp8vn4d7pY9m32o0CKtcCcfvft9LSUo4cOYJSqWTcuHEmgbRtnDYpKYl58+YZ7Qx4t7hts5EFQYAtW7bw0UcfYWtry+HDh9myZQt79+6lpKSEvLw8hgwZYhIENBoNFhYWqNVq7O3tOXPmDEePHuWFF17AysoKZ2dn+vbty5gxYxg/fjwajYbvv/+e0aNH069fvw4nXd0J8vPzOXDgAP379yc4OFjeiW7dunX07t3b6AhCgF9//ZVly5YxdepUpk2bRkxMDKdPn6aiooLu3bvzySefcOrUKTIzM9m1axc//fQTSUlJFBUV0djYiI+Pjziq8waam5s5ffo0hYWFDB8+HG9vb7g2HpuSksKYMWPw8/OTy2/evJmFCxdSU1PDoUOHWLt2Lbt376agoACtVktOTg579uzh6tWrpKSksHXrVvbt20dWVhZNTU04OjoanWN+J/r9x2hBEG6akJAQ3nzzTUaPHk1UVBSRkZE4OTnRtWtXvL29/1C3ZnV1Nc7OznKrWK1W4+HhQVBQEMHBwSiVSjw8PJg0aZLRDNw7jYeHBxYWFkat2ISEBEpLS+nRo4fJeGtSUhJarRZHR0d5tnbbw0ZTUxOjR4/mwQcfZODAgURGRjJixAg8PDxwdnYmKCjormxd/bfY29vj6+uLUqmUW7g6nY7Kykrc3NxMDoPv3r07s2fPZuTIkURGRjJo0CDCw8OxsrIiICCAiIgIJk2axKxZs4iJiSEyMhJ/f3+sra3x9PQ0mmV+pxLBVhBuo5CQEP70pz/x2GOPMWfOHObMmUOXLl2wtrZm5syZqFQqtm7dymeffUZjYyNFRUW8++67ZGVlyYfDnzhxgvvvv1/umvvwww+5evWqPDv3448/5sEHH8TT0/MPdVN3Vj179iQoKIhTp05RVlYG1yaLDRo0SH6oWLt2LVu3bqWqqgo/Pz9KS0vJysqivr6empoaEhMTcXBwwNHRkbFjx/L444/L9z0uLg4HBwe6d+9OeHi42GP9NygUCrp164aVlRUJCQnU1NRw/vx5Tp06hb+/P25ubqSlpfH9999z5MgRevTowZNPPinf6/Hjx+Pr6yvvfx8ZGcmkSZPk92P69On06NEDOzs7evbsSdeuXdt/C3ec27bOVhAEU0lJScyZMweAb7/9ltjYWGbNmsWBAwc4fPgwXbp0YebMmVhaWuLv709LSwvdunVjzJgxeHh4oFAo+PDDD0lLSyMqKkpeHjd06FBcXV3v6GALcP78eb755hsyMzNxcnLC3d2dWbNmERERQWVlJU888QS+vr688sorODs78/nnn3P8+HGcnJzw8PAgJCSEMWPG0KVLF5Pu+R9++IFvv/2WoUOH8swzzxh1gwqmDAYDJ0+eZPv27RQVFaFSqYiOjmbGjBm4urqyfv16PvnkE6ZNm8arr75q9Nrjx4/z8ccfo1AoeO211+jfv79R/unTp/n444/Jz8/nT3/6k/w3cScTwVYQOpG2Leq4duqVjY0NOTk5ZGRkMGDAACwtLcnNzaW1tVUee23bzKWty7m8vJy6ujp5Vx4rKyuj/DtZc3MzZWVl1NXVoVQqsbS0xMnJCXNzc5qamjh//jyOjo74+vpibm5ORUUFNTU1cO3AeRsbG2xtbU0CLUBlZSXV1dVYW1vj5OR0x45t30oNDQ1UV1djMBjkjYXallWVlJRQUFDQ4Y5SdXV1lJeXo1AocHZ2NlnuptfrKSsro6WlRR4GuNOJYCsId4Cmpibx4f8HNDc3o1Ao7vgW/N2gtbUVSZJQKBR3xYPe/5UItoIgCIJwk4nHP0EQBEG4yUSwFQRBEISbTARbQRAEQbjJRLAVBEEQhJtMBFtBEARBuMlEsBUEQRCEm0wEW0EQBEG4yUSwFQRBEISbTARbQRAEQbjJRLAVBEEQhJtMBFtBEARBuMlEsBUEQRCEm0wEW0EQBEG4yUSwFYRbpLCwkMLCwvbJRoqKivijB3EVFxdTWFhIa2tr+yxZSUnJ7+a3tLS0T74jVFRU0NDQ0D65Q5WVldTX17dPFv4f6HQ6CgsLqa2tbZ/1/0yv11NdXd0++a4mjtgThJtIkiSWLl3K0qVLGT16NKdPnyYgIIC3334bb29vALZv3873339PREQEiYmJ+Pn58Ze//AVfX98OzwFdsGABWVlZODg4UFJSQnR0NG+++aZ8WHxJSQmffPIJNjY28uHdY8aMISYmBrVaTUlJCZ9//jkJCQl06dKFwMBAIiIiGDt2rMkh3p1NRUUFS5cuRavVUlVVRXNzM7NnzyYmJgaNRtO+OD///DM//fSTfMh8SEgIM2bMwN/fn4yMDL799lvS0tKMXuPo6Mjzzz9Pnz59jNLvZRkZGXz33XdoNBpefPFFnJycKCkpYcOGDezatUsu5+bmxtSpUxk7dqzR69vEx8ezdOlSFAoFlpaWKJVKpk+fTlxcXPuidx3lO++88077REEQ/nu2bdtGSEgIjz/+OHFxcXz22WfY2NjQt29fzMzM2LRpE1FRUUyYMIG4uDi+/PJLLl++zLhx41Aqle2rIz4+nokTJzJ+/HhGjBjB4sWLGT58OI6OjpiZmfHVV19RX1/Po48+yqBBg0hNTWXPnj2MGDECS0tL1q1bx5o1a3jvvfd44IEHqKmpYcWKFYwdOxZbW9v2l+tU/vnPf3Lx4kWmTJnCfffdR2VlJefOnSMoKAgnJyejsjt37uTHH39k8uTJPPLII3h4ePDTTz/h5uZGcHAwpaWlqFQqYmJiGDBgADExMQQHB9Pa2kr37t3x8PAwqu9epdPp+Omnn/jyyy/x9fVl1KhRWFpaUlBQQEpKCgEBAYwbN46YmBh69+5NcHAwjo6O7avh9OnT/Pjjj3h4ePDMM8/QtWtXqquraWlpISIion3xu47oRhaEm8jMzIwnn3yS5557ji5duhAeHk5jYyPl5eVyd/EjjzzC1KlTCQoKIjw8nJ49e7Jly5Ybdu/++c9/ZuTIkXTv3p3w8HCysrLYvHkzjY2NAOzZswe1Wo2/vz+hoaH079+f1NRUmpqaAFi3bh0ajYbIyEjCwsIYPHgwV65ckV/fWVVUVLB37166detGr1696Nq1KwMGDOD48eNcuHDBpEu5oqICgLCwMHr27MmwYcNQq9Xk5OSg1+sJCgpi7Nix3HfffQwbNoxhw4bR0NBAeHg4fn5+RnXdy+Lj48nNzTVp6dfU1GAwGOjWrZt8/wYOHNjhvdPr9SQkJFBUVMSECRMICwsjJiaGxx9//Iat4LuNCLaCcJN5e3vj4uIC18ZkCwsLuf/+++UuYm9vb+zs7OTyISEhv9nC9PLywsLCAoDz58+j1+sZN24c5ubmAPTv35+1a9eydetWGhoaOHHiBBMnTpS7maOiosjKymL58uVkZmZy7Ngxxo0bh42NjdF1Opvk5GSKi4uJjIzE2dkZAB8fH5qamsjLy8NgMBiVDwkJQaFQsGLFChITE8nKysLDw4Pw8HDs7OywtLSU/6vRaNDr9Zw6dQoLCwvs7e2N6rpXnT9/nvPnzxMREUF4eLhRXktLCzU1NSQmJrJixQri4+Opr69HpVIZlePa/IKUlBQsLCwICAigvLycwsJCXF1dcXV1bV/8riS6kQXhFigsLGTRokVs3LiRMWPGMH36dNRqdftiADzxxBOMHTuW+++/v8NuZK59CP74448sXbqUt99+m0GDBskfcj169KCsrIzt27fz66+/Ymdnx7x583B1dcXMzIywsDC0Wi379u1j3759aDQa5s+fj7e3NwpF533+Pnr0KHv27GHq1KkEBgYCYDAYWL9+Pc7OzvTp08fogcHJyQlnZ2cOHTrEqlWrOH36NA8//DBDhgyRHzyut3nzZoqLixk4cCBeXl7ts+85JSUl7NixA41Gw9ixYzl37hx1dXVyN3J+fj5ZWVnU1dWRlJTE+vXrSUpKwt3dHV9fX6O6srOz2bFjB5cuXaK4uJh9+/axYcMGMjMzsbe3x93d3aj83ajz/mUJwl2ksbGRsLAwHBwcOHjwICtWrOhw1vGyZctoamri5ZdfvmEwBtBqtYSEhBAWFsbFixcpKCiQZx17enpSWVlJWFgYly9fZvXq1WzatEmejevp6Ym3tze+vr5YW1uzZs0atm3bhl6vb3eVzqWpqemGM6s7yrOyssLHx4fg4GD8/PzIz89n1apVnDlzxmRmclVVFVu3biUiIoJu3boZ5d2LdDodW7duRafTMWPGjA5b+r169eKpp57ihRde4MMPP+Thhx/m1KlTrF+/npqaGqOyLS0tNDc3Ex4ezjPPPMPzzz/PpEmTOH/+PAkJCUZl71Yi2ArCLeDp6cno0aNZsGAB7u7ubN++3STY7ty5k6VLl/LPf/6TgICADmcit4mIiGDUqFG88sorcqBoG3N97bXXcHFxYcGCBaxZs4bJkyezZMkSrl69SktLC19++SWbN2/mpZde4pNPPmHixIl8++23JCQkdOpxW2dn5w5nHHOtFds+7+TJk3z11VcMHjyYhQsX8uyzz1JZWcmvv/5KUVGRUdkTJ05gbW1NSEhIh63ee82ZM2fYuXMnJ06c4LvvvmPRokWcPHmSS5cu8euvv5Kfn4+NjQ0+Pj74+/vL47ahoaHk5uZSWVlpVJ+VlRX29vZoNBrc3d3p1q0bffr0QaPRcOrUKZPgfDcSwVYQbgGNRoOdnR0+Pj7Y2dlx5coVo2C7c+dOli9fzuLFixk9evQNu4/b2NraYmdnh7e3N56enhw+fJimpiZKSkpYu3YtUVFR+Pv7ExERwbhx46isrCQnJ4eWlhaWLVtGcHAwISEhBAUF8corr2AwGDr9JCm1Wo2ZmRmVlZXy91lZWUlDQwPdu3c3aX3t27ePzMxM3NzcCAoKYsqUKQwePJjW1lajyVRVVVWsXr0aCwuLe6I784+wsrIiNjaWQYMGYWdnh7m5Oa2trbS2tlJfX2/SMwDI+c7Oznh6ehrlKZVKVCqV3MIFaG5uRqfTIUkS1tbWRuXvRiLYCsItVFRUxI4dOwgLC5NbrmfPnmXFihU8/vjjeHl5UVVVxc6dOzl9+jStra0kJCTI3cvtnT9/ntWrV+Pl5YVCocDBwQFra2uys7Pl2cxt/+7atStqtRqlUklRUZGcr1QqMTMzo2vXrvIkq86of//+dO3alcTEREpLSwHYunUrXl5e+Pn5oVKp2LlzJ0ePHkWr1VJTU8PVq1fJzc2loaEBe3t7rl69atLqOnHiBHl5eQwcONBkrPFe1b17d+bMmcNjjz3GQw89xPTp0+nZsychISGMGDECHx8fsrKyOHXqlLzJRUZGBkVFRQQGBmJhYUF2djabNm3i9OnT+Pn50a9fP2pqarh48SJc+71MS0vDycmpw0lVd5tbuqnFpUuXuHjxotHYUI8ePQgPDzdZTF9bW0tSUhJZWVlymq2tLdHR0fLkiOsVFhZy9epVvLy8CA4Obp8tCLdFYWEhH374odxtmZOTg7u7OwsXLqRr164UFxczZswYsrOzCQoKkgNwbW0t8fHxuLm58eCDD3Ly5Ek2bNiAQqHgs88+k1sWbb/zbfUpFApee+01jh49Sq9evVCpVOzevZsnnniCZ599Fmtra9588022b99O37598fX1Ze/evfTt25dXX30VNze33+y+vt22b9/O0qVLsbOzw87OjuzsbObPn8/IkSMpKSmRu+lfffVVamtrefPNNzE3N6dXr14UFhZSXl7OU089xfDhw7G0tKSqqooXXngBnU7H22+/TWRkZPtLCtd+jz/66CNSU1N59dVX6dWrF9u3b+eXX36hS5cucC14jho1ikcffRRPT082bNjAZ599xpQpU3jllVdIS0vj+++/Jy0tDTc3N4qKiggICODpp582mel8N7qlwfbzzz9n7969RmMr06ZNY+LEiUZLH7jWPfTBBx9w7Ngx3Nzc4Nq4zKOPPsrw4cONymq1Wr766iv279/Ps88+y5QpU4zyBeF2qa+vJyMjg/r6eoqLi3F0dJQ3VQBoaGjgzJkzJuO3XGvJKRQKkpKSSE9PZ+zYsSgUCjIzM2lpaaGkpAR7e3tcXV0JCgqSu54LCgooLS2lsrISSZKwtLSkW7duODk5YWZmRmFhoZyvUqlQqVQEBATg7u7+u93Xt1tdXR25ubmkpqai0Wjw9PSka9eu2NjYoNfrOXr0KK6urnTr1g2VSkVWVpb8oFNfX4+7uzshISFyt2VTUxPp6emoVCp8fX3FeO0NNDQ0UFBQQF1dHV5eXtjY2FBRUSH/bltaWmJjY4O3t7e8lCcrK4vk5GSCgoIICwujsbGRkpISrly5QkVFBe7u7gQGBuLp6Slatv9tzz33HC4uLkydOlVOc3V1xcXFxeSPPDs7mxUrVuDq6srgwYMBUKlUuLu7m+xOsmnTJr7//nuqqqp4+umnefTRR43yBaEzaGhoMJnE80e0jTG2DwS/V1/buKS5uXmHrdXfy+/M6urqUCgUaDQao+VKDQ0NqFQqo8+T62cqq9XqTr286U7TNgbbNibbUV7796OxsZHGxkY0Gs1vzri/29yy37q22WZdunShZ8+e8teNnqYrKyuxtramV69ectlu3bqZBNqkpCRSU1Px8vKSF7oLQmf0W4Hxt7TtI9ve79Wn0WjQaDQ3DKS/l9+ZWVtbY2lpaRI4NRqNyeeJWq2Wf9b25YX/G6VSiUajMQm01+e1fz/Mzc2xsbG5pwIttzLYNjc3o1AoWLZsGdOnT+eJJ57g559/pqysrH1RuBZsz5w5w/vvv8+8efP4y1/+wt69e6mrq5PLFBYWcvDgQdzd3RkwYIDJmyoIgiAIncEt20HKYDDg7u5OZGQkXbp0obq6ml9//RWVSkX37t1NnnKUSiX+/v4EBwfj7e1NamoqBw8exNPTk6CgILRaLT///DNKpZJp06ZRUlLChQsX6N69+z2xqbUgCIJw57hlLVs7Ozv69OnDqFGjmDhxInPnziUgIIC9e/dy6dKl9sXx9vZm4MCBTJgwgSlTpjBp0iR579K6ujr27t1LdXU1cXFx98zemoIgCMKd6ZYFW7VajYWFBRYWFtjY2BAaGoqtrS3FxcVotdr2xVGpVHJZe3t7oqKi5L1b207/WLZsGU899RRDhgzh7bff5ujRo3zwwQesWLGifXWCIAiCcNvcsmDbnl6vR6fTYWVlJa+xbW1t7XAJBNfWJ2q1WhwcHHBzc+OFF15gxYoVfPrpp7z//vs89NBDhIWFMW3aNIYOHdr+5YIgCIJw29yyMdtjx47Jm6E3NjayYcMGDh06xPjx47n//vspLCxk4cKFpKamEhgYyLp169i8eTOurq5UVlaycuVKampqGD16NKGhobi4uODv7y9/lZeXk56ezuDBgxkyZEj7ywtCp1ZcXMzVq1cpLi6Wv35vg4mSkhL5gfVG5UpLS9Fqtb9Z5k5VWVlJTU0NarW6w9mwbU6fPs2FCxdobW3Fxsamw7JZWVnU1NRgYWHRYX51dTXV1dUolUqT+SUClJWVUVBQIM/8/j16vZ6KigpaWlrk4yK5tkb82LFjVFRUYGtra5R3vfr6enQ63Q3zO6Nbts42KyuLPXv2kJKSglKpRKfTER0dzcSJE3F3d+fixYssWrSIgIAAnnzySc6dO8fGjRupqqrCwcGBLl26EBsbS1RUlMkGGIWFhWzevJnjx4/Tq1cv+SBuQbhTDB482Gg4JSIigqVLl5psn1hSUsIXX3xBQ0MDISEhpKSkoFKpePHFF/H395eXtvzyyy8kJSXRt29f0tPTOXz4MH/5y1+IjY29o4NFZWUlX3zxBVxba2swGHj00UeJjo42+ZDPyMjgs88+w8rKCldXVy5fvkzXrl2ZNWuWfMD5mTNn+Oabb+DasqGAgABGjBhBt27dKC4uZvny5RgMBry8vCgqKkKn0zFp0iRiY2M7XI51rzl8+DCbNm2ioaGB6upqgoKCePjhh+nevXv7ouj1eo4cOcKRI0fw8/OjtraWq1evMmnSJIYNG0Z8fDwbNmzAxsYGDw8PsrOziYyMZNq0aTg4OGAwGDh+/DjLly+nqqpKPgt35syZ9O7du/3lOp1b1rK1sbEhICCAHj16EBkZycCBA+nbt698qLaNjQ3h4eFER0fj6uqKp6cnERERREdHM2DAAGJjYwkNDe1ww2q1Wo2Pjw/9+/cnIiICNzc3kw8pQeisiouL+eyzz3j77bcZMmQIgwYNIiYmhuDgYJN1oSqVisOHD/Pggw8SERFBz549WbJkCTU1NQwcOBC1Ws0vv/zCd999x5/+9Cd69+5NSEgItbW1jBgxAnt7+zu6hfvhhx9SWFjI+PHjGTRoEBUVFSQnJ8tn117fKs3Pz6e6upphw4YxaNAgWlpa2LdvH97e3gQEBKDVavnwww9pbGzkwQcfZOjQoezZs4fy8nJCQkJQKpUkJSURERFBXFwcPXr0ID4+nvPnz9O1a9d7/tCClJQUli9fjlKpZN68eQQHB3P58mXy8vKIiIgwefg5cOAAP/30k3xilZ+fH46Ojnh6euLr60tJSQmSJDFjxgx69epFZWUl8fHxdOvWDS8vL86ePcvq1asJDQ3loYcekg/gSEtLY9CgQZ2/lSsJgnBbbdmyRXr66aclrVYrGQwG+etGcnJypJaWFvn/e/fuLY0aNUqqqamRJEmSxowZI82bN0+qra2Vy5SUlBi95k5UUVEhDRs2THr//fel0tJSSZIk6ejRo9KwYcOkNWvWSHq93qi8TqeTSkpKpPr6ekmSJCkpKUl64IEHpO3bt0stLS3Szp07paFDh0o//fSTfL/XrFkjPfnkk9Lx48elxsZGKTc3V76vkiRJzz//vBQbGyvt379fTrtXff/991JcXJy0Zs0aSZIkqb6+XvrXv/4lPfLII9K5c+eMytbV1Umff/65NG7cOOns2bOSJElSc3OzpNPppLq6OkmSJEmr1UplZWXya1atWiXFxcVJhw8flvR6vbR06VIpLi5O2rt3ryRJklReXi79/e9/lwYOHCglJibKr+usbtsEKUEQ/ldaWhrFxcUcOXKENWvWkJqaSlVV1Q0nC/r5+Rm1eEtKSoz2Rr506RJOTk6kpKTw008/8eOPP2IwGK6r4c509OhRCgoKCA8Pl3eS8/X1paGhgeLiYpPjAa2trXFzc5NbWPHx8YSFhREUFCTfP7VajbOzs9wqcnV1pbS0VB4L9vX1NRq2qqmpwcHBwWQo615TV1dHQUEBSqUSb29vuNYNb2lpSWNjo8nvW2lpKVevXsXa2pqmpiY2bdrEjh07qKyslCfI2tjYyD2dBQUF5OTk0KdPH8LDwzE3N8fW1hZHR0d5qaeDgwMBAQHU1tZSWFhodL3OSARbQbjNHBwc6Nu3L2ZmZmRnZ/PWW2+xadMm+Qi837J//350Oh2TJ09Go9FQWlqKwWCgtLSUTZs2sXnzZpYuXcrzzz9Penq6vEfwnajtHNvrJzmZm5ujUCgoKSkx+YBv88knn/Dwww9z+fJlHnjgAQICAgAIDQ3FzMyMtLQ0o8PLy8rKjHaqa3P+/HlycnLo27evXMe96vp9j9vPAairq5OP3WtTVVVFcXEx1dXVJCcns2fPHv7+97/zxhtvkJCQIJcrKChgyZIlvPzyy+j1eubMmYODgwNKpRJPT0/s7Ow4e/as0WS11tZWkwetzkgEW0G4zSZMmMCcOXPo378/s2fPpl+/fixcuJD8/Pwbtm651lp48803efPNN+nbty9KpZL6+nokSSIoKIiHHnqIN998k7lz53LixAmOHz9+R3wo/ScaGxtv+CDxwAMP8Oyzz+Lj48O+ffvIy8uDaxvnzJw5k+PHj/Pyyy/z1VdfceTIEZqamkwCSHV1NUuXLqV79+5MnjzZZI/2e01HAbVNS0uLydnLbWlubm6MHDmSZ599ljlz5pCRkcGaNWvkhx0nJydGjx7NjBkzqK+vZ+fOnXJeaGgocXFx7Nu3jyeffJJPP/3U6CGpsxPBVhBuMw8PDzw9PXF0dKRLly7Mnz+f/Px8Tp48ecMAUlpayksvvcTgwYOZM2eOPPHJzc0NhUKBvb09oaGhREZGMn36dMzMzEhPT6e5ubl9VXcMJycnzM3NqaqqMnlocHR0vOGkyLCwMGJjY5k9ezYXL17k9OnTNDQ0YG5uzqRJk3j99deZP38+9913H56enri7uxtNxKyurubrr7+mtbWVhx9+mG7dut3z+7C3dRm3p9fraW5uNulmt7KyktPs7Ozo0aMHcXFx+Pv7U1JSIgdnS0tLQkJCGDNmDIMGDSI3N5fTp08D4OLiwoQJE3jllVdYsGABI0eOpLGxEQsLCxwcHIyu1xmJYCsInUzbbOEbBY/S0lI+/vhj+vfvz3PPPYe7u7v8GgsLC9zd3UlLS5MDa1tgamv13qk8PDywsLCgoaFBfghJSkqioqKCsLAw7O3t27/EiI2NDTqdjry8PPR6PVwL0r179yYmJobQ0FAcHBzks3+5Fmh//vlnzMzMmDt3LlFRUTd8X+4ldnZ2+Pj4oFAo5BauXq+nqqoKZ2dn+UD5NjY2Njg7Oxu1etu6oi0tLU3eO0tLS1QqFRcuXODChQtwbb98FxcXIiIiiI2NpWvXrlhYWNC9e3diYmKMXt8ZiWArCLfZqlWr2L17txxAli1bRvfu3enXrx8KhYIDBw6wbNky+UPqk08+wdnZmSFDhmBubk5ycjKLFi2Sxyzvu+8+Tp8+TUFBAa2traxcuRJra2sefPBBeTLKnSgsLIyAgAAuXLhARUUFXAu2kZGRhISEoFar2blzJwcPHiQnJ4e0tDRyc3NpaGjgzJkzrFq1ipqaGgIDA7GxsSE7O5stW7Zw4cIF6uvrqa6uJjExkT59+hASEgLAxo0bKSoqIiYmBnd3d3Jzc1m1ahUpKSntvrt7i0qlIjQ0FCsrK06ePIlWq+XSpUucPXsWf39/3N3dyczMZN26dZw6dQp3d3d69OhBbW0tycnJGAwGLl68SFlZGRERETQ3N1NcXCx3CxcWFpKQkEBjYyOBgYFwbanR+vXr5TJpaWmkpKQwfvz4O6Jb/5ZtaiEIQsfee+89jhw5wqhRo+S9v6dMmUJ0dDQKhYK5c+dy5MgRdu/ezcmTJ3n55ZdxcHDA0dERMzMz6uvriYuL4+9//ztWVlbk5OSwaNEi8vPz8fHxoba2lvDwcJ544okO16nfSY4cOcLq1auprq7G1dUVhULBpEmT6NevH1qtlmeffRYvLy+eeeYZ9Ho927Zto6KiguzsbDQaDeHh4Tz88MMEBASQn5/PN998g8FgwNXVlZaWFrp3787gwYNxcXHh8OHDvPfee2RnZ+Ps7Iy5uTlNTU2EhYXxwgsvEBkZ2f7bu6fU1NSwe/dutm/fjkKhwNraGn9/f6ZOnUpgYCCbN29m0aJFTJw4kQULFpCVlcXatWtJSUnBwsICnU5Hv379mDZtGnZ2diQmJnLo0CEqKytpaGjA3t6enj17MnnyZBwcHDh37pz84BgcHIwkSbi5udG/f38RbAVB+H2ZmZkUFhbKHxgWFhYEBgbKXcNnzpwhJSWFCRMmUFFRQWZmpslYbkBAAIGBgfJYYnZ2NoWFhZibm2NhYYGHhwdOTk4mm2TcaRobG8nIyKCqqgqVSoW9vT1+fn5YWlpSX1/PoUOHcHFxoXv37rS2tpKbm4ter6exsRErKyvc3d1xcXFBrVbT2NhIdnY29fX18n27fqlPSUkJmZmZ6HQ6o+/Bzc2NoKAgbGxsjNLvRTU1NeTk5KDX6+UhDE9PT7i2a2BqaipBQUGEhobS0tJCSUkJhYWFtLS0yEur2h50KioqKC4uxmAwYGZmhqOjIy4uLvLfRdsQQFNTE9bW1pibm+Pk5HTHPECKYCsIdwCDwdDhhBTBWENDAyqV6p6fwNQZtLS00NLSgkqluuMf8v4bRLAVBEEQhJtMPG4IgiAIwk0mgq0gCIIg3GQi2AqCIAjCTSaCrSAIgiDcZCLYCoIgCMJNJoKtIAiCINxkItgKgiAIwk0mgq0gCIIg3GQi2AqCIAjCTSaCrSAIgiDcZCLYCoIgCMJNJoKtIAiCINxkItgKgiAIwk0mgq0gdDKlpaXcqsO4ysvLaWlpaZ98R6iurqaxsbF9coeqq6tpaGhon/wfqa2tpb6+vn3yXU+v11NaWmpyvm9bnlarbZ/cIYPBQG1tbfvku544Yk8QbiJJkvjll184cOAAPXv25NKlS7i5ufHcc8/h4eFhVPbgwYMsXryYl19+mf79+9/wDNCUlBSWLFliFGimTJnCyJEjUavVclp8fDxff/01X3/9tXwAd5tPPvmEkydP4unpia2tLRMnTiQyMhJzc3Ojcp1NVVUVu3fvpqSkhJKSEiRJYurUqYSHh3f4vW/ZsoUtW7agVqvp0qULHh4ejBo1Cm9vb3Jycvj555/JzMw0eo29vT2PPfYYPXv2NErPy8vju+++o0uXLkyYMAEXFxej/LtZ271SqVTMmzcPJycnEhISWLlyJY2NjVhbW9Pc3MywYcMYO3Ystra2Rq83GAwcO3aM7du3U19fj0KhwNnZmfvvv59+/foZlb1bdfzXLAjCf83ly5dxcXFhyJAhzJgxgy1btrBt2za59ZqcnMxf//pXfvzxR7Zu3dphy+F6R48epampiUGDBjF06FCGDh2Kk5MTZmZmcC3IvvvuuyxbtozNmzebtOi2bNnCpk2bmDBhAjNmzKClpYU33niDK1eudPpW7urVq9m/fz+BgYFMmDABa2trjh49SllZWfuiHD58mJ9++okePXowc+ZMQkJC2LBhAydPnqShoQGtVou7uzsDBgyQ72NkZCQqlYqmpiajumpqali1ahU//vgjmZmZnf4+/Tfp9Xq2b9/OkiVLuHLlipyWn5+PUqkkLi6OadOm4eLiwg8//MDevXvbV4FWqyUrKwtbW1umT5/OyJEjKS4uZsWKFRQUFLQvflcSwVYQbiIzMzMeeughnn76aSIjIxk1ahQGg4G8vDw52Hp4eDBmzBjmz59/w9bs9SoqKoiIiGDixIlMnjyZyZMn06tXL5RKJQCBgYGMHj2aQYMGddja++KLLwgKCmL8+PEMHjyY+fPnc/nyZRITE00Cc2dSVVXF9u3b8fLyIiYmhv79+zNkyBD27dvH+fPnTbqU8/Ly0Ov19O/fn2HDhjFq1CiamprIzMxEr9fj5+fHhAkTmD59unwfHRwciI6OxsfHx6iurVu30traipubm1H6vSAxMZH09HS6dOkip5mbmzNo0CAWLFjAtGnTiIuLo2/fvpSXl3Py5Emj1wPY2dkxcuRI5s2bx7BhwxgzZgxRUVEUFBRQWFjYvvhd6ff/sgVB+D8JDQ3Fz88Pro3HlpaWMmzYMLkl6uzsTGxsLAMHDvxDwTYtLQ2NRkNSUhK//vorVVVVWFhYyPV5e3szYMAAunXrJgfg62VkZKBUKuXyQUFBeHh4kJSU1KnHItPS0sjLyyMyMhJnZ2cA/P39qaysJDMzE4PBYFQ+ICAAlUrFgQMHSElJoaSkBHd3d0JCQrC2tsbOzg4XFxdsbW2xsrKiqamJkydPYm1tjZOTk1zPsWPHyMzMZODAgUYB516QmprK6dOnCQ0NpU+fPnK6SqXC29ub4OBgrK2t4dqQCdceMNuzsLAgICBA/juQJInGxkZaWlqwsLBoX/yu9Pt/2YIg/J+VlpayePFi/vGPfzB37lyio6M7/FD6IxQKBampqaxatYpvvvmGxx9/nKSkpD/ctRkaGkpJSQnNzc1ymqWlJdXV1X+4jtshOzsbvV6Pvb29PDat0WhQKpWUlJSYBNtevXrx0EMPcfHiRV544QXef/99xo4de8MW/8GDB5EkCVdXV/khpba2lm3bthEYGEhUVBQajab9y+5a5eXlxMfHo1arGTFihBxUO2IwGMjIyMDMzMxkrLsjubm5pKSk4OPjc888wIhgKwi3QFuQaGhoID09nV9//fU/nnH84osvMmvWLJ544gneeOMN0tPT+fbbb/9wq3T8+PFUVFTwj3/8g5UrV/LLL79QV1eHs7Nzhy3hzqKhoeGGDwP19fW0trYapdnb2xMWFoanpydmZmYcPXqUHTt2kJ6ebtJdXlNTw5YtW+jZsyehoaFy2tKlS1EqlfTt2xc7Ozuj19zN9Ho9u3btoqKiggkTJvxu93lKSgoXLlwgLi6OESNGtM82YjAYSEhIoKioiMmTJ2NjY9O+yF1JBFtBuAXc3NwYO3Ysf/7zn1Gr1WzcuPE/DrYRERFERUUxaNAgRo8eTb9+/dixY4fJmOWNTJ8+nY8//pjQ0FA8PT3p2bMnWq0WtVr9H7e2bwUHB4cOW6TcIO/8+fMsX76c2NhYPvroIx588EFOnTrF+vXrKSkpMSp7+vRpJEkiNDRUnkl76NAhdu3aRW5uLtu2beOf//wnV65c4cSJEyQkJFBdXW1Ux93kwoULbN++nbNnz7J9+3aWLVvG+fPnuXz5Mvv376e4uFgue/78eZYtW4aFhQWzZs0ymWV/PYPBwN69ezl27BgTJkxgwIAB7YvctUSwFYRbwMrKCldXV8LCwnBxcSE1NfU/DrbtSZL0/xQkfXx8GDFiBFOnTmXAgAF4eHjQ0NBASEiIScDqTCwsLFAoFEbra9v+HRoaatLy3LdvH2fPnsXHx4c+ffrw9NNPM3r0aOrr69Hr9XK5mpoa1qxZg42NjVGgcHBwYNiwYXTt2hVJkqivr6elpQWFQoFOpzNpHd9NzMzMCAsLo0ePHtTX16PVaqmrq6O+vp7y8nJ5xvz58+dZuXIl9vb2PPPMM3Tv3r19VUbOnz9PfHw8gwcPZuLEiSZLhO5mItgKwi1UWlrKoUOHCAgIMAmQZWVlHQbgs2fPsnHjRnmMNT4+nuLiYiRJory8nNOnTzN8+HCjNbbXKy8vN+pivXz5MocPH8ba2hpra2sOHDiAlZUVAwcO7NSTVSIjI+nSpQunT5+moqICgJMnT8rjfubm5sTHx3PmzBl5A4bs7GyKiopobGzE19cXnU5nFGi51qpNT0+nT58+RrOQIyMjmT17No888gjTp0/nvvvuw83NjbCwMKKionBwcDCq527SrVs35syZw2OPPcb06dOZNGkSYWFhdOnShcGDB+Ph4SEHWmtra+bNm0evXr0oLS3l/PnzaLVaCgsL2b9/P8nJyQAkJSVx6NAh4uLiGD9+PNbW1iQmJnLgwIH2l78rKd9555132ifeTFqtlrS0NE6ePElGRgYtLS1YW1t3+EFx9epVEhIS5C4Lc3Nzk3I6nY4rV65w8uRJ0tPTaWpqwtraulM/oQv3jpKSEj799FPWrl3L9u3b+fHHH7G1teX999/H29vbKOB+88037N27l8jISAICArCxscHMzIw333yT1atXM3jwYAD++te/cujQIfLy8li0aBGWlpa8/fbb+Pr6Gs1mXrNmDQcOHCAgIIDevXvLfzvbtm1j4cKFcG1Zx9q1a5k9ezbDhg3r1MHWxsYGtVrNoUOHuHDhAmlpaRw/fpzJkyfTr18/SkpK+Mc//kFGRga9evXC09OTs2fPkpubS25uLlu2bCE3N5fJkyfTp08fNBoNNTU1LFq0iObmZqZPn46/v798PY1Gg52dHQ4ODjg4OKDT6dixYwdqtZqoqCjc3NxQqVRG3+PdwsLCQv65HRwcaG1t5fjx4xQUFMj3bv369fz444/k5+dz+vRp1q5dy7Zt21AoFPTv35/4+Hg+//xz1Go1Li4ufPfdd6xbt44rV66wZ88e1q5dy9mzZ/H396dHjx7tv4W7zi3dQaqwsJA1a9ZgMBgICAigsLAQhULB2LFjCQsLMyp79OhRtm3bhrm5Oe7u7qSmpuLn58fMmTPl6eOZmZns2bMHnU6Hl5cXFy9elMcNgoODjeoThNuhrq6OpKQksrOz4drEk+jo6A5nI58+fZrs7Gy6deuGv7+/PHFkx44dpKWlMWvWLGxsbEhISODSpUt07dqVhoYGfH19iYqKMvngP3fuHFlZWQQFBdG9e3c5/8qVK6SmptLY2IiVlRUKhYJ+/frh6Oho8j11NtXV1Vy6dIn09HTs7e1xcHAgMjISR0dHamtr2b59O25ubvTt2xe1Ws358+cpLCykrq6OlpYW/Pz8iIyMlFulDQ0NnDx5EnNzc8LCwky6oq9XW1vLuXPnUKvVBAUF4eTkZHLP71Z6vZ7Lly9TXV1NSEgItra2ZGZmkpGRYVROrVYTEhJC9+7dSU5O5sSJE/Ts2ZOuXbuSkpJCUVGRUXkHBwe6d++Ol5eXUfrd6JYFW61Wy1dffUVxcTGTJ08mLCyMgoICWlpaCAkJMVrXxrXuoZKSEgICArCwsOCrr77iwoULvP7664wdOxadTseKFSvQ6XSMGTMGFxcXsrKyaGlpISIiAnt7e6P6BOF2qqurk//9W0soOtLc3ExdXR12dnZyMCwvL8fS0hIrK6v/OEBWVFSg0Wiwtrb+j+u4Xaqrq1EqlVhZWRnNoK6rq0Oj0RgFwYaGBurq6lCpVFhbW3fqGdd3k6amJhoaGjA3Nxc9jbcy2B47doyPP/6Y0aNHM2/ePCwtLWlsbMTMzMyka5hr3cNKpRJLS0sAvvrqKw4fPszTTz/NyJEjSUpKYvXq1fTv35/p06cD/GZ9giAIgnC73LIJUjk5OdTU1FBfX8/u3btZsWIFKSkpRgvrr2djY4OlpSU6nY4TJ05QVlbG4MGD5TVw+fn5aLVadDod27ZtY/ny5Vy4cMFkT1NBEARBuN1uWbBtmz1YVVWFTqejrKyMZcuWsXz58htuRN02IeHf//43er3eaEylurqampoaSkpKqKmpIS8vj4ULF/LLL7+YzDYUBEEQhNvplgXbxsZGFAoFwcHBDB8+nEmTJuHu7s6hQ4dIS0trXxyuzT7u1asXDz/8MJ6enmzbto1z587Btfqamprw8fFh6NChTJ8+HScnJw4dOsTVq1fbVyUIgiAIt80tC7Y2NjY0NzdjbW2Nl5cXQUFB9OvXj+bmZpPdXNq0zRAcNmwY4eHh8skker0ea2trrKyscHR0xNvbm9DQUGJiYtBqtSLYCoIgCJ3KLQu2zs7ONDY2UlhYaLRheGNj4w3Hba9nbm4ut2bVajWOjo4olUqjutq6j9smVQmCIAhCZ3DLNrVwcHAgOTmZqqoqunfvTlVVFT/++CPm5uaMHz+elpYWfvjhBzIzM1Gr1ZSWllJWVkZZWRmXLl1i9erVVFVVMWHCBLp3746trS1paWkUFxcTEhJCZWUlv/zyC3Z2dvK5lIJwJyovL6euru4PLeu5UdkrV66QkpKCVqtFkiST/HtJTU0NWq0WvV4vf6lUqg7XyNbW1sK1I+SuT6utrTV6vVKp7PD19yqDwUB1dTWSJP3mMp+ioiKOHTtGTk4OXLvPHZ2kVF9fj8Fg6DCPa8u59Hr9DfM7o1u29AcgISGBTZs2UVNTg52dHRYWFgwbNoyBAweSnp7O559/TpcuXZg1axZlZWUcOXKEK1euYGZmhpOTE/369WPo0KG4uLjAte2/tm7dSllZGVZWVmg0GoYNG8bQoUPF8h/hjpKamsqmTZuIjY3l7NmzHDlyhGeffZahQ4d2uC50y5YtJCcn06tXLzIyMsjJyWHBggX4+Piwfft2NmzYQGxsLGVlZZw5c4Z//OMfBAYG/qHzcju7nJwcdu3aRXp6Ok8++aS8QqEjO3bsYOPGjZSVlclpTz75JMOHD8fKysqo7Pr169m2bRszZ85k2LBhaDQa8vPz+fbbb7lw4YJcLiYmhocffpjAwECj19+LEhMT2bNnD83NzfKGF9OmTTM5jMBgMLBnzx7Wr1+Po6MjCoWCuro6hg4dyoQJE7C1taW6upqDBw9y/PhxLC0t5Z26Bg8ejK2tLQ0NDZw5c4aNGzdSVVWFo6Mjbm5ujBs37nf3ZO4MblnLFsDd3R0/Pz+8vLzo0aMHcXFxdO/eHSsrK8zNzQkMDJS3qrOzs8PJyYmAgAAiIyMZNmwYffr0MdqswsXFBW9vb9zd3enWrRtDhgyhR48enXrLOUFor7y8nL/85S+MHTuWgIAAnJ2dqa2tZdCgQbi4uJi0SLdu3crBgwflpXAuLi5cvXqVIUOGYG1tTUJCAlZWVowePRofHx+++eYbKisrGTRo0B3VEujIkSNH2LdvHwcPHuTYsWOMHDlS3lGuIz/99BPW1tb07NmTwMBAAgMDiY6Oxt3d3ejBIz8/nzVr1rBx40Z69+5Nr169MDc358SJE5w9e5aAgAB69epFYGAgQUFBBAYG3jNHw91Ieno6K1eupKqqijFjxqDRaDh37hxVVVWEhYWZtHBTUlKoqKjgwQcfxMnJiWPHjpGeni5vQrRr1y6WL1+Ov78/gwcPpqmpiSNHjtDU1ETPnj25dOkSa9aswdramsGDB2NjY8OBAwfIycmhf//+nf93WxIE4bZasWKFNGfOHKmpqUlOKykpkVpbW43KtRkwYID097//Xaqvr5fTsrOzpebmZvnfRUVFUktLiyRJkjRmzBjpiSeekKqrq+Xyd6qMjAzp5MmT0rvvviv16dNHOnr0aPsiRv70pz9Ju3fvlnQ6nfzVdp/a1NTUSG+88Yb05z//WQoLC5O+/vprSafTSZIkSWvXrpW+++476cqVK0Z1XP9e3atWrFghDR8+XFq5cqUkSZJUXV0tff7559KcOXOkS5cutS8uFRcXSxkZGZJ07ff7zTfflEaNGiWdP39eysvLkxYsWCDFxcVJiYmJkiRJ0qVLl6Q5c+ZI8+bNk0pLS6UffvhBGjhwoLRu3Tq5jrffflsaPHiwdObMGaNrdUZ3fp+SINzhdu3ahb+/P+Xl5cTHx//mWbfl5eUkJycTGxtLYmIimzZt4tKlS/j4+Mjdzf7+/nh4eKBQKKioqCAvL4+xY8feFT0+gYGBxMTE4O/vb9Jyaq+mpoba2lpOnjzJrl27SE5Oprq62uQA+q1bt2JmZsbIkSPx9PQ0yissLESr1XLhwgV27dpFTk7ODcd77yUGg4GcnBwkSZIPb7C3t8fZ2RmDwYBWq23/Etzd3eWu95KSEsrLywkPDycgIACDwUBtbS0ODg54e3vDdfVVVFTQ3NyMWq2Wj6kEcHJyIjg4WN5nobMTwVYQbrOUlBQkSWL37t3s2LGDr7/+mqeeeorCwkKToKvX65EkifT0dHbt2sXatWv54IMPWLt2rdHh8VeuXOGNN97gjTfeYO7cuQwePPh3g9PdpqSkhMjISDQaDZcvX2bp0qW89dZbnDhxQr5Xx48f5/Tp08TFxcmn2VzP09MTc3NzGhoaOH78OG+//TaLFy8mNzfXqNy9pqmpicbGRtRqtck9MxgM8nm37WVlZbFkyRJ++OEHAgMDmTFjBnZ2dnh4eBAeHk5jYyNpaWlotVpUKhUWFhY0NDRgMBjw8vLC0dGRy5cvU1tbK0+u0uv1RmPynZUItoJwm+l0OlxcXIiIiGDChAk899xznDp1ip9++slkWVx5eTmSJOHp6cn48eOZN28e1tbWfPrpp+Tl5cnn1jo6OjJo0CCCg4O5evUq+/btu6sPO++Iq6sr06dPZ8qUKUycOJH+/ftz7tw5Dh8+TFVVFfn5+ezatYs+ffoQHR1tEjQA4uLiGDt2LHFxcTz44IO0tLSwbds2eTbtveq3AmrbAQQdsbe3JyIigqCgIHJycjh79ixarRZbW1v69++Pn58f33zzDS+99BLr1q1Dq9XS3NxMQ0MDISEh9OzZk9WrV/O3v/2NX375Ba1Wi1KpvCMeJEWwFYTbzMXFBWtra3r16sWAAQOYOHEigYGBHDlyxKTLs20NeZcuXejfvz8jR45kwYIFZGZmkpWVJQdbV1dXxo0bx9y5c6murmbTpk1Ga9LvBY6Ojvj7+xMUFESPHj2YOnUqbm5unDt3joqKCr7//nvi4+O5cuUK69ev57vvviMrK4vExET27dtHWVkZ7u7uBAUF4e3tTUxMDLGxsZSWllJaWtr+cvcUlUrV4YoPg8FAS0vLDSePOTk5MWjQIKZNm4aPjw979uzh0qVLAISFhfH0008ze/ZsxowZg5+fH/X19djZ2eHl5YWHhwdTpkzh8ccfZ8SIEQQEBFBfX4+1tTWurq7tL9XpiGArCLdZQEAAV65cMeoyzsvL63Dcy8/PD1dXV9LT0+VA7OHhgZmZGZaWliYzl9vGuE6dOnXD1sa9QqFQYGZmRmtrK5Ik4ebmJrdoq6qqaGlpwczMjKqqKpqbmztcJqVQKJAkyaR7/15jZ2eHt7c3CoVCbuG2rbW1t7eXx3FvxN3dHW9vbwoLC+UHF1tbWyIiInjggQeYOnUqwcHBNDU14ebmhr29PSqVioCAAMaOHcv48ePp1asXGo2GkJAQIiMj21+i0zH9bRIE4ZYaPXo0R48epaysDEmSSEhIoLi4mAceeAClUkliYiIbNmyQtzsdOXIkJ06coKSkBEmSWLt2Lba2tvj7+8uTotpauOnp6ezfvx9LS8sOg8fdJj4+nsTERHQ6HXl5eSQmJlJZWQnAwYMHqa2t5b777sPX15cpU6bw1FNPMXPmTKZNm8bQoUNxcnIiKCiI8PBw7O3t2b9/P+fOnaOhoQGtVktqaip9+/alW7du7S99T1Gr1XTt2hVLS0vOnDmDTqcjLS2Nixcv4ufnh6enJ/n5+ezevZtLly5RX19v1O2clpbGgQMHsLS0xNPTk/r6ek6fPs3u3bvlh8y2yWkDBw6Eaw+gR48elfMLCgooLS1l7NixuLu7y3V3Vrd0UwtBEEyVlJTw2muv4e3tjY2NDbW1tZiZmfHMM8/g7e3Ns88+y7Fjx9i4cSMBAQEkJyfzz3/+E0mSqK+vR6FQEBMTw+OPP46FhQXffvstVVVVSJJEWVkZubm5PPLII4wdO7bDcck7TW5uLm+88QZ79+7l+eefZ/78+bi5uVFRUcHLL7+Mu7s7zzzzDBcvXmTTpk106dIFNzc3UlNTcXd3Z+bMmR22vJYtW8ZHH33EsGHDeO2113Bzc2PRokXyLnUqlYqKigqGDh1Kv3797orZ3f8XZWVl/Prrr8THx2NtbY0kSbi7uzNx4kQiIiLkyX5jx45lxowZJCQkkJqaSnV1NSUlJVhbWxMbG8sDDzyApaUlhw8fZtOmTQQFBdGlSxdqampQq9WMHDkSd3d3Tp06xerVqwkMDCQiIgKtVktLSwt9+/YVwVYQhD/mwoULFBcXI0kSNjY2BAYGyt3De/fu5dy5c8ydOxdnZ2fMzMw4ceIERUVFaLVaAgICiIiIwM7ODjMzM06ePClvnce1ruRevXp1OMZ2J6qsrOTYsWNUVFQQFBREREQEtra21NXVsXnzZtzc3OjXrx/l5eVcvnwZjUYjP2S0Bd6Olu6cO3eOy5cv4+HhQUREBBYWFiQnJ1NeXo6FhQUqlQp3d3d8fHzu+UDbpqysjJSUFMrLy7GysiI0NFRe3pOSkkJiYiI9e/akR48eZGVlkZ+fj8FgQJIkgoOD8fPzkzcqKi0tJSUlBYVCgZ2dHZaWlnh4eMj5bddqex9UKhUODg53zNa8ItgKwh2gtrYWW1tbkzFZwVhdXR0ajabDYCrcWk1NTTQ3N2Nubt7hlqP3GhFsBUEQBOEmu/tnTAiCIAjCbSaCrSAIgiDcZCLYCoIgCMJNJoKtIAiCINxkItgKgiAIwk0mgq0gCIIg3GQi2AqCIAjCTSaCrSAIgiDcZCLYCoIgCMJNJoKtIAiCINxkItgKgiAIwk0mgq0gCIIg3GQi2AqCIAjCTSaCrSDcQhUVFe2TTFRWVspn0f6WP1KuqqqK1tbW9smy38vvzGpra2lqamqf3CGtVktjY2P75P+ITqejoaGhffI9wWAwUFdX1z6Z+vr6DtOF/584Yk8QbiJJkli4cCGVlZU4OzuTnZ2Nv78/s2fPxsXFRS6Xnp7OypUrCQwMJDc3l8bGRp599lnc3d1NzrBdsmQJKSkpuLq60tzcTFBQEGPHjpXL7tmzh2PHjmFra0t+fj7e3t7MnDkTLy8vFAoFmZmZ/PLLL5ibm1NYWIinpyczZszA19cXhaJzP3/X1tYSHx9PeXk56enpWFlZMWHCBEJDQ1Gr1e2Ls3//fvbt24eZmRl+fn4EBwfTp08fHB0dAUhKSuLw4cNUVVXJrxk/fjxRUVGYm5tfVxMUFRWxZs0aPD09GTVqFE5OTkb5d7Oqqip27dqFwWBg0qRJ8s+emprKnj17qKiowMzMjJCQEEaPHo2bm1v7KmRXrlzh+PHjhISEEBsb2z77rtW5/7IE4Q5XUVHBsWPHUCqVBAUFERMTw/Lly1myZIncKq2oqOD1119HkiR8fX3p3bs32dnZZGdnm7RcKysrOX78ON26daN3796Ym5uzcOFCduzYIbfcDh06REtLCwEBAcTExLBhwwZ27dolt8bS0tKoqKjAz8+P6Ohojhw5wj/+8Q+qq6uNrtUZbd68mW3btmFubk5ERAR5eXns37+/wx6DkydPsnz5cpRKJb1798bCwoIff/yRkydPyvfq7NmzZGVlYWlpiZubG25ublhbW5s8dOh0OtatW8fixYu5ePHiH25R3w0MBgM7duzggw8+4Pjx43J6UVERv/76K2lpafTs2RMbGxt2797Nr7/+2mEr98qVK6xYsYIffviBNWvWcPny5fZF7moi2ArCTWRubs6f//xnnnrqKSZMmMAjjzyCp6cnS5culbtv9+3bR1NTE0888QTDhw9nwoQJLFiwAF9fX5NWrbm5OfPnz+fpp59m0qRJPPnkk9TV1bFr1y45ANx///08+eSTTJ48mYcffhh/f3/2799PfX09AKGhocyfP58pU6bw8MMP06NHDzZt2oROpzO6VmdTW1vLpk2bcHBwYMiQIUyfPp1x48Zx8OBBLl26ZBIAr1y5Qnl5OWPGjGHGjBk88MADlJaWkpKSgl6vB6CsrIzo6GjmzJnD3LlzmTt3LmFhYahUKqO6du/eTWVlJVZWVkbp94KzZ89y9OhRk+GGhIQEjhw5Qv/+/ZkxYwYTJkzAwsKCI0eOdPjwY2Njg6+vL25ubmg0mvbZdz0RbAXhJrKzs2PYsGF4eXnJaRYWFnLgA9i+fTuRkZF4e3tTVVVFRUUFUVFReHt7mwRbGxsbhgwZIgcDT09PmpubsbKykssOGjQIPz8/uXWm0WiwtraW84OCgggNDZXrcHd3x8LCQr5GZ3XlyhWysrKIioqSu+B79OhBaWkpV65cwWAwGJW3s7PDzMyMxMREMjIy0Gq1uLu74+PjI/+8paWlVFZWcvHiRdLT09HpdCZB5ezZs1y6dIkBAwYQHBxslHe3y8jI4MiRI3h6ejJw4EA5vb6+nsuXL1NXV0eXLl0AcHZ2xsXFhbKyMiorK6+r5X95eXkxbNgwoqKicHBwaJ991xPBVhBuoYqKCk6fPs3IkSPl4Hfp0iUqKirYuXMnX3/9Ne+//z6LFi2itLTUpBu5vcrKSrRaLePGjTMZY+TaWNu5c+eIjo6+YWvi7NmzdO3a9Yb5nUVmZiZ1dXW4uLjI36ulpSVKpZKSkhKTYBsZGckDDzzAqVOnePPNN/niiy8YPnw4gwcPloOtg4MDJSUlbNu2ja+++ooPPvjAqJtZp9OxdetWfH19iYmJuadatlVVVezZsweDwcD48eONxmFramqorKzE3Nxcvpd2dnY4OzvT2Nho9DAp/C8RbAXhFlqzZg319fW8+OKLcrBta3G5ubnRq1cvoqKi+PLLLzl58qRJK6u9ZcuWMXjwYAYNGmTS9Qnw448/4ujoyKBBgzoMxgcOHODSpUs88cQT2Nvbt8/uVPR6Pc3Nze2T4VpeS0uLUZqvry+xsbE4OTlRWFjIjh07uHr1KlVVVXIwnTJlChMnTmTChAncd999ZGdns2vXLkpKSgDYsGED9fX1xMTE3FMTogwGA9u3b+fMmTMMHDiQoKAgo/zGxkaTGdmtra20tLSImck3IIKtINwiK1eu5Oeff+bNN9+kX79+Rl3EXl5eREdHM3HiRB599FGam5vZsmXLDYMLwDfffMOePXt46aWXcHV1Nely3rdvH/v27eOll14iJCQEpVJplJ+VlcX333/PqFGjGDVqVKfvSrazs+twxjE3yEtLS2PTpk0MGDCAd999l7Fjx7Jr1y7Wrl1LWVkZAOHh4cTGxnLffffx0EMP0aNHD7KysigvL+fIkSOsX7+e8vJyjh8/zsqVK8nKyuLcuXOcOXMGrVZrdL27SWpqKtu3b6egoID09HTWr19PamoqWVlZHD9+HJ1OZ9LKb2vRKhQKk981QQRbQbglVq1axbp163jyySeZN2+eUWB0cnIiIyPDqMvY1taW9PT0G3Yjf/PNNxw8eJB58+YxYMAAk1bt6dOnWbNmDY8++iijR4826SLOysriq6++YtiwYcyfPx9bW1uj/M7IysoKpVJptL5Wq9XS1NREcHAwdnZ2RuX37dvHkSNH6NKlC8OHD+e5554jODiY/Pz8GwZKS0tLNBoNCoWChoYGevXqhbu7O2VlZeTm5qLX69Hr9RQXF8uTrO5G9fX1BAQE0KtXL6qrq8nOzqaiokL+tyRJeHl5mQRcADc3N/z8/Non3/NEsBWEm0iSJDnQzp07lzlz5mBnZ8fPP/8sz9gcMWIER48epaKiAkmSqKyspKKigsDAQMzMzEhLS2P//v1yN+natWs5dOgQc+bMYcqUKZibm8szmrkWaH/66SdGjhzJ5MmTsbCwYOPGjaSkpNDc3ExWVhaLFy8mLCyMhx9+mKCgIC5cuMDly5dNZvR2JmFhYfj4+HDhwgV5As6ZM2dwc3MjKCgIjUbDmTNnSEtLo76+nry8PPLz8ykvL6epqYmuXbtiZWUl30etVsulS5fkunQ6HTk5Obi5ueHo6EifPn14/PHHmTVrFlOmTJHXj4aFhREREXFHPKD8p0JDQ5k9ezaPPfYYU6ZMYdy4cXTt2hV/f3/69u2Lt7c3fn5+qFQqcnJyACgpKaG4uBhfX1+8vLwoKyuTJ6dd717tZla+884777RPvBlKS0s5d+4cly5dIj09Xf4qLCzE0tISGxub9i8BICcnh7Nnz1JeXo6VlRWWlpZyXl5eHmfOnCE1NVWuz8zM7J4aWxE6t/T0dP785z+Tk5ODhYUFO3fuZOfOnfz666/MmjULCwsLvL29OXDgAKWlpeTl5fHtt9/S0tLCa6+9RkBAAO+//z6rV68mNjaWM2fO8O6771JQUEBDQwP79u1j586dlJaWMmDAAHQ6HS+//DIHDhxAqVRy4MAB+Xpjx45FrVbz9ttvs379eqytrTly5Ag7d+5k/fr1DB06FDc3N5M1pp2Fg4MDzc3NHDt2jJycHLKzszl8+DCjR48mNjaWqqoqPv/8czIzM+nWrRu2tracOnWKyspKysvLOXDgAGlpaYwaNYqYmBiys7P55ptvuHLlCsnJyaxduxaFQsEDDzxAaGgodnZ2ODk54erqiqurK42NjezcuRMrKyv69euHm5ubSY/C3cLKykr+uV1dXVGr1Zw8eZLS0lIGDRqEl5cXFhYWZGRkcOrUKSoqKuTNRsaPH0/37t05evQoX331FWZmZkRHR8O1iVWHDx/mwIEDODo6yutz7wW3LNiePXuW1atXk5CQQGpqKhcvXuTixYuUlZXh7++Ph4eHUfmysjL5Cb6pqYlz585x5coV+akTYP369axcuZLLly/L9bm6utKtWzejugThdjEYDFhbWzNw4ECcnJzkrwEDBsjjti4uLnh6emJnZ0dVVRUqlYpHH32UIUOGoFQqKS4uxtLSkoEDB9La2oq7uzt9+vTB1dVVrm/w4MH4+/vT2toqT+hxc3OT8/v27cvgwYPlbtgBAwbg4eEh5wcHBzNs2DCjh9nOyMfHB0dHRwwGA1ZWVnTv3p2RI0fi4uJCY2MjpaWlBAUF0a1bN4KCgggICJCDNEBcXByjR4/G2dmZ5uZmeW2xubk5Dg4O3H///URHR3d4HyRJwsXFhV69ehEQEICtre09MzYpSRK2trZ07dqVwMBAHBwccHR0xN3dHYVCgSRJeHt7M3DgQPr374+FhQXV1dXU19fTs2dPAgMDAWhpaUGlUhEYGEh4eDi+vr4d3uu70S3brjExMZHLly9jbm4uz4pMTk5Go9EwceJEQkNDjcqvWbOGDRs2EBsby5gxY7h48SLr1q1j5MiRzJ49m9bWVt5//33KysoYO3as/Lru3buLYCvcsQoKCrC1tTUaf2xoaKCmpqbDSVD3qvLycpRKJba2tkaty6qqKqysrIzGqPV6PbW1tZibm2NnZ2dU3mAwUFtbi1qtNskT/hidToder8fOzs5okl19fT0GgwFLS8tOP/nuVrhlwbaqqgpzc3Osra0BqKur47vvvsPFxYXJkyebdCW8/vrrlJaW8sorrxAWFkZNTQ3vvvsuLS0tLFiwAHt7e5YsWYKPjw+PPfaY0WsFQRAEoTO5ZYMzjo6OcqDl2rT80tJS3NzcTAItgFKpxMLCQn7StLe3x8XFhfz8fPLy8igvL6eiooK9e/fy3nvv8emnn3LkyBGThe2CIAiCcLvdsmDb3oEDB3B2diYiIqJ9FlzbYi4lJYVjx45RWFhIfn4+hYWFlJSUoNPpUKvVBAYG4u7uTkFBATt37uTjjz/m119/FQFXEARB6FRu2QSp66WkpLBv3z569+5N375922fDtd1I0tPTuXjxIsXFxTQ1NXHq1Cnq6uoYOXIkYWFh+Pn50adPH/r06YOVlRXx8fFotVqjI7QEQRAE4Xa7LS3bgwcPAhAQENA+SzZgwAAWLFjAtGnT6N69O0FBQTg4OKDRaOT9OH19fQkKCqJHjx6MGzeOXr16UVJSQmlpafvqBEEQBOG2ueXBtq6uTj5Au206eEcsLCyIiYnhkUceYerUqYSEhKBSqejatat8ysT1tFotOp0Oa2vrDnc1EQRBEITb5ZYH2zNnztDc3Ex4eLjR5hMlJSWsWrWKHTt2UFtby9GjR1mzZg3Z2dno9XoOHTqEQqFgzJgxeHl5ceXKFXbv3k1ycjIFBQUcP36cvLw8wsLC8Pf3N7qmIHR2VVVVVFZWmnz90cUCVVVVHZatrq7+3cMM7lRarZbKyso/vOtV29aO19PpdCb3vLKyUj6oQPjj6uvr/9AWlg0NDVRWVv5Hu0hptVpSUlI4f/48ubm5nf4M5uvdsqU/bZYvX05NTQ0TJ040CooXL17k008/JSAggKeffppTp06xY8cOXF1d8fHxwWAwEBgYSGxsLC4uLpw5c4bNmzdTUVGBra0ter0eZ2dnJkyYQGRkpNE1BaEz++ijj8jKysLBwcFoHW1UVBRTp079zbWfbYcJPPDAA0RHR6NSqfjhhx+or6+nd+/eHD9+HI1Gw+TJk/Hw8Oi0u0P9UVqtlg0bNiBJErW1tahUKkaMGEFQUJDJQQRcOwP30KFD1NfXU1lZSUhICKNGjcLNzY2zZ8+yZcsWCgoKsLGxMToVadasWYSHhxvVJXTsypUr7Nq1CwcHB8aPH9/hDn61tbUcP35c3piooqKCpqYmRo4cSY8ePeRyWq2Wc+fOcfz4cXx9fXnooYfkvKKiInbs2EFWVhbu7u5kZ2fTpUsXHnvssQ5XtHQ2t3yClLm5OV27dsXX19do95W2nXR69uyJn5+fvE2Yra0tjo6OREREEBUVJU98srKyws7ODisrK9zc3IiMjOS+++4z2RxDEDq7Dz74gJiYGLy8vHB2dkahULB48WLi4uLo3bv3DQNkVVUVn3zyCV999RXjxo0jODgYpVLJihUrCAgIwMfHB0mS+O677wCIiIjoMCDdSTZu3MjBgwfx9/fHzc2N7Oxsqqur8fPzM/nA1Wq1fPXVV+Tk5ODr64uzszNHjhyhpaUFPz8/cnJyuHr1Kk5OTvJnTtt+ytHR0fj6+hrVJxgrKSnhxIkTHDhwgHXr1qHT6bjvvvs63BGqoqKCgwcPkpeXR+/evWltbeXo0aNkZWURHh6OtbU1WVlZbN++nWPHjrFt2zZqa2uZPHmyXEdhYSFnzpzB3d2d3r17k56ezo4dO/Dy8rojNjK65cHW1dUVZ2dnk23OrK2tCQ4OxtfXF3Nzc2xsbAgMDKRHjx6Ehobi4eFhtCuMhYUFfn5+REREEBER0eGpH4JwJ3B1deWRRx4hOjqaqKgoSkpK2LlzJ++++y4uLi433DXq22+/paGhgcTERKZPny4HW2dnZ0aOHImXlxdhYWHs3r2b9PR0xo8f3+EH4Z1Cq9Xy4YcfEhoaysyZM4mJiaG5uZl169bh5+eHj4+P0efKyZMnWbFiBVOmTOHBBx8kJiaGU6dOcfXqVbp3705AQAARERGMGjWKAQMGEBUVxfnz5wkODmbgwIF39UED/w0NDQ3odDoaGhrIysrC2tr6hsHWzMxMPtyhX79+dOnShZycHI4cOUK/fv3w9PREr9djMBiwtbWlqKgIc3Nzo2CrUqnw8/MjOjqa0NBQJEkiMTFRTuvsOn5kFgThlrnvvvuMWq+rVq1i8ODB+Pn53TDQHjhwgMuXL/P444+bbIUXExNj1IK1srKSW8x3sjNnznD58mXCwsJwcHAAIDAwkNzcXC5fvmyyvj4xMREAPz8/OQAEBARQWVlJTU0NLi4uRnvz6nQ6MjIy8Pb2xsXFxaguwZSzszP9+/cnJibmd5da2tjYEB4eLncZq1QqNBoNZmZm8u+lt7c3Y8aMoX///h12RTs4ONC1a1ecnZ1pbGyksrISOzu7Gy4f7Wzu7L8+QbjLVFVVkZCQwDPPPHPDLt/q6mq++eYbpk+fTpcuXX4ziFZXV3PhwgViYmKMxiTvRFlZWdTV1eHq6io/YFhZWaFSqSgpKaG+vt6ofFlZGQqFwmjM283NDa1WaxKYAU6cOCGfwnSjey/8dxQWFpKZmYmfn9//09m3Op2OhIQEvv32W65evcqUKVPuiC5kRLAVhM5l06ZNdOnShdjY2A6DaHV1NQsXLqRLly4dHhp/verqav75z3/i4eHB4MGDTQ6Qv5vU1dXJJ/u00el0JrOPW1tbqaurM0nX6XRs3ryZ0NBQQkJCjPKE/67a2loSEhLQ6XRMnTq1w1bsjSgUCiwtLeXTq8rLy7l69Wr7Yp2S6V+zIAi3RVVVFUuWLGHMmDEmcxrabNmyhTVr1mBvb8+WLVtYu3YtjY2NHDp0iPT0dPlgdK51R+/YsYPnnnuO0NDQG9Z5p7C1tUWtVqPV/n/t3Xd8VfX9+PFX9t47kD0ghBH2XkGW4kCwVkGsitbR1tbaVmv9Vq1fV7V11NaFWlwgU9kzhLACZJC997o34yZ335t7c35/NDk/bhKo/dZggM/z8chDc87nfE64ubnv81nvj2ZAYO2/+w+9H8z9u+F1Oh2urq4DWq75+fmoVCrGjBlDQECAzTnh+2MymUhPTyc9PZ3U1FQWLlzYv8hlubu7M2nSJNasWcO4ceM4evQox48f719sWBLBVhCGiWPHjlFfX8/NN988aKuW3g+r+fPn093dTXl5OaWlpVitVhQKBfX19fKa2o0bN3LixAkeeughFi5ciLOzM11dXVf1mtvQ0FBcXV1tWrHl5eWo1Wri4uIGTJCMi4vD3t5+QCs2NjYWHx8f+XutVsv27dvx8/MjPDzcpqzw/TGZTBw7dow9e/YwefJkli1bNuhkqu/Cx8eHcePG4erqSlFRUf/Tw9Lgf9GCIFxRKpWKt99+m7lz5zJ+/HibYFtQUMDRo0exWq3ceOON/PznP+f222/ntttuY8GCBTg5OTF79mybpT8nT57kzjvv5K677sLV1ZXPP/+ckpISm5bv1SYhIYGwsDCqqqpQq9UAnDp1ioiICJKSknB1dSU7O5uCggL0ej3jxo3DxcWF4uJiurq60Gq1nD9/nri4OMLCwuR68/PzycnJISkpSQTb75FCoeD06dNUVFRgMpk4ffo0x44dY9asWfzoRz/CycmJI0eOsG/fPpvrzGbzoAkvLj6u1WopLi6murr6qumxueJLfwRBGGj//v385S9/4YUXXmDMmDE23Z9vvPEGX375JTfccAMjR44kJCRE/rpw4QLbtm0jNjaWefPmYbVaefjhh+WMUhkZGRw5coTNmzdz2223XdWJLTw8PLC3t6egoACVSkV+fj6VlZWsWLGCKVOmYDAY+Mtf/kJdXR2jR48mPDwcq9VKaWkplZWV5Obm0tXVxdKlS+UHE61Wy3vvvUdnZyc//vGPiY+P739b4TJMJhO5ubns3buX7u5upkyZQmhoKACnT5/mvffek5ejffLJJzhw6bAAAGtXSURBVKSnp+Pk5MTZs2fZt28fGRkZ+Pj4MHXqVOgNqBcuXGDXrl2YTCYmTZpEcHAwADU1NezatYusrCwyMjLkB601a9b8R5Osfigi2ArCMNCX3ej2228fkNu7ra0NgLlz5+Lp6WkTiFUqFXFxccTHx5OYmIijoyN2dnbExcXh4eGBq6srrq6uTJ8+ndTU1Kt+klRcXBzu7u64u7tjb2/PhAkTmDt3Lr6+vpjNZhobG4mJiWH06NEEBgYSExODh4cHjo6OeHh4cMMNNzB27Fj5dbBYLGi1WqZPn05KSsqA1164PKvVislkwt/fn5SUFBISEuRlQJ2dnej1epKTkwkPD8fOzo7Q0FA8PT1xdXXF29ubCRMmsHDhQnmc3Gq1YrFYCAgIYPz48cTExMjnDAYDnZ2d2NnZ4ebmxujRo7n99tuZNGmSzc80XF3xdI2CIPxnenp66OjoICAgYMCEH8FWV1cXbm5uV/0yp2uByWTCZDLh5uY2YELa9UgEW0EQBEEYYlfn4I0gCIIgXEVEsBUEQRCEISaCrSAIgiAMMRFsBUEQBGGIiWArCIIgCENMBFtBEARBGGIi2AqCIAjCEBPBVhAEQRCGmAi2giAIgjDERLAVBEEQhCEmgq0gCIIgDDERbAVBEARhiIlgKwiCIAhDTARbQRhmurq6uJKbcanVanp6evofHva0Wi0Wi6X/YeEHYDKZMBgM/Q8LFxFb7AnCEKupqeHbb7+1ORYVFcUtt9xisz9tXl4ex48fZ9asWaSkpGBvP/izcF1dHXv27KG7u1s+1neNo6MjX3/9NUqlckAAnTFjBhMnTsTJyQm1Ws2BAwdwcnKisbERq9XK7bffTnh4+CXvOxxotVqysrIoLS2lra2NgIAAUlNTiYmJwdHR0aZsfn4+WVlZqNVqm+MxMTHMnDmTwMBAlEol6enpqNVqzGYzzs7OzJo1i/j4+Ot+D9auri7OnTtHUVGRfGzkyJHMmDGD8PBwABoaGsjMzKSxsREXFxfi4+OZOHEi/v7+F9X0L83NzZw+fZqGhgb5WGhoKDNnziQiIsKm7LVo+P5VCcI1QJIkcnNzOXr0KG1tbfJXR0eHXKa2tpbPP/+cf/7znzz33HO0t7fb1NHfiRMnOHLkCAqFQq5PpVLJreGMjAxaWlps7vfee++h0WjkOt58803y8/MxmUx4eHhQWFhIVVXVsG8pHjx4kG3bttHS0oKrqytnzpzh8OHDqFSq/kW5cOECmZmZ1NfXy69Deno6J06coKurC51OxxdffMGxY8dQq9VYLBZ27drFoUOH6Ozs7F/ddae+vp60tDTy8/Pl10+r1crvs9bWVvbs2UNaWhoODg4olUq2bNnCgQMHBm3lVldXc/jwYflBqa2tjfb2dnQ6Xf+i1yTRshWEISRJEm+99RadnZ388pe/tDnn6+sLvS3fY8eO0dPTw09/+lP27NnDDTfccMkW5ssvv4yrqytr1qzB2dlZPu7j44OdnR0nTpxg1KhRcsusvr6eV199lbfffht/f3/OnDnD2rVr+fzzz5kyZQqOjo4UFhbi6upKVFTUgBbicKHVarn//vuJjIzk8ccfJyIigm3btvH111/z6KOPMnv2bJuf/cKFC5hMJkaOHIm7uzs6nY7XX3+dyZMnc/PNN9PR0cEDDzzAihUruP/++/H19eWPf/wjBoOBBx98kISEBJv7X2+OHDlCZmYm8+bNY+zYsQC4uLjg5uYGwK5du/j444+56aabWL9+PUVFRbzxxhtIksQLL7zAyJEjbeo7ePAgGRkZ3HHHHURGRsrHnZ2dcXd3tyl7LRr8r1kQhO9NZ2cnXV1d1NbW0tXVBRcFWoDo6Gh+8pOfcP/99+Pg4HDRlYOrr6/Hy8uLhoYGOjs7kSRJDrQAc+bMISgoCF9fX3x9fdm2bRvz58/H1dUVgP379zNhwgTi4+NxdHRErVaTlJREXFzcsA20AJWVlVRUVDB58mQCAwMBmDBhAnV1dZSUlAxoTU2YMIFp06YRHh6Or68vDQ0NWCwWEhMT8fHxwd3dHR8fHyoqKqirq6OzsxO1Wo2vr+918eH/76jVagwGAxaLBYVCgdFolM+ZTCYKCgro6OggPj4egKCgIIKCglAoFDY9N300Gg0dHR3odDpaWlowGAzXTaBFBFtBuDI6OzvZuXMnb7/9Ni+++CLp6en/50lQtbW11NXV8cUXX/DOO+/wv//7v5SVlQ0Yo6X3A3P37t1MnDgRFxcX6B1n8/LyorS0lM2bN/Puu++yceNGmpubB61juCgvL0ej0RAaGiq3rjw9PXF0dJQ/vC/nyJEjJCYmyuODISEh3HTTTZSXl/PGG2/wl7/8BQcHB+bPn09wcHD/y687RqORuro6Dh48yPvvv8+f//xn9uzZg8FgQK1W09HRgaurqxwsvb298ff3x2Qyodfr+1eHs7MzKpWK3bt388EHH/Dee++Rnp4+aNlrkQi2gjDE5s6dy4oVKxg7dixhYWFs2LCB559//v88LnjnnXcyfvx4kpOTCQ8P54svvmDjxo2YTKb+RdmyZQsxMTHExcXJreb6+nrMZjMWiwWTyYSLiwt//etfKSgoGNZjtpebfXy5cwBKpZKCggIiIyPlVjG9k8bi4uIoLCxk06ZNmM1mvLy8bK69XiUnJ7N48WLGjh1LXFwctbW1fPLJJ2RlZWE0Ggd9uLGzs8NsNg96buzYsaxatYqxY8cSHx+PUqlk69atlJWV9S96TRLBVhCGkJ2dHYsWLWLVqlWsWrWKJ598kvnz53Ps2DGqq6v/T63bdevWsXr1au6//35+/etfM2XKFDZv3mzTzUdvq/a9997j7rvvtumqkySJiIgIUlJSWLduHU888QQ9PT2cPn16QB3DiYeHxyW7uS93DuDo0aM4OjoSHh4uj2XrdDoOHz5MfHw8Tz75JA899BAVFRVs3bqVpqam/lVcd8aPH8/atWu5++67eeyxx1i7di0Gg4HMzExcXFzkYYk+fS1aSZIGfV/HxMSwatUq7rrrLh599FGWLFlCU1MTJSUl/Ytek0SwFYQrbOLEidDb7fZ98PPzG3Rt7oEDB3B0dGTu3LlyFzJAREQEBoPBpvzIkSNpamqyWU403Hh5eeHo6IhOp5NbsX3/HxcXd8kWqU6n4/jx40ybNo2YmBj5eGFhIbt27SIiIoJVq1bxyCOPMGHCBDIyMqipqbGpQ4Dg4GACAgIwGAz4+PgQFhY2IOACBAYGDpgcNZi+8dr+79trlQi2gjDE8vLy5IlR9K7/jIyMJCYmxmad7cVlLlZbW8u5c+ewWq3Q2w3cNzFKrVaTn5/PtGnTbNaF9rVqL54Y1Wf69OlUVlbS3t5OT08ParUatVpNeHj4ZVuHP7TY2FhCQkIoLCyUu+Dz8/NxdnYmOjoaNzc3SkpKqKmpwWw2y9cVFBRgb2/P9OnTbbqQW1pa0Ov18u/Aw8MDV1dXdDqdzfXXq9bWVmpqauTejtbWViwWC2FhYbi4uBAZGYmLi4vcC9De3k5bWxsRERGMHDkSlUpFQUGBvK62o6ND/n+z2Uxra6vcy3I9cHjuueee639wKDU2NlJSUiL/sTg5OV1yBmZzczM1NTXU1tZiMBgu2VXU0tJCcXGxPAPOyclp0HKCcKV1dnbypz/9idbWVlpbW9m+fTsZGRk88MADzJ492ybYbt++ne3btzNv3jxiYmJwdXXFzs6ON954g82bNzNz5kzs7Ox45513qKysRKlUsnnzZiorK/n1r39NUlKS/Ld07NgxPv30U371q1/ZjNfSO2v0zJkzdHZ20tbWxsGDBykqKmLt2rXyDOXhKCAggKamJnJycuju7qa5uZmDBw8yadIkFixYgMlk4m9/+xvV1dXEx8fj7e2NTqfjvffeIyIigtmzZ9u0fh0dHTl37hxmsxlJksjPzyctLY3Ro0ezZMkSAgICbO5/PTGZTBw5coRdu3ahVCrJyckhLS2NESNGsHLlSgICApAkidLSUgoLCzGbzZw6dYq6ujpuuOEGUlJSyMzM5P3330eSJEaOHMmBAwdIS0tDo9Fw8uRJjh8/TmxsLCtWrMDDw6P/j3DNuaLB9ty5c+zcuZPy8nKampooLi7GwcGBoKCgAQE3OzubnTt3UlVVRX19PdnZ2SiVSnx9feXut87OTo4fP865c+doa2sjNzeXhoYGQkJC8PHxsalPEH4Ier2empoaOjo60Gq11NTUcPPNN7N27doBSx7Ky8uJiYlhwoQJhIWF4ebmhp2dHefPn0en0zF37lxcXV0pKyujra0NBwcH6urquPPOO7nlllts1tw2NTURGRnJbbfdNqBl6+PjQ2BgoJwUo6urixtvvJElS5bIs3yHq5CQEBwcHOjq6sJkMhEWFsbq1asZMWIEGo2G/Px8AgICSE5OxtPTE7PZTFNTEzNmzCA2Ntbmc8bf3x8fHx88PT3RaDQoFApiY2NZuXIl8fHxAz6TricWi4Wmpibq6uqwWCx0dnbi5+fH7bffzpgxY6B3GMTHx4euri7UajXu7u5MmTKFhQsX4u7uTn19PVVVVfIM8IaGBpRKJUajka6uLoKDg1m9ejXR0dH9b39NumJJLSoqKnjrrbdwcHBg2bJl2NnZsXXrVkJDQ3nggQcGvOB79+6luLiYpKQkvL292b17N2VlZTz00EMsW7YMo9HIjh07yMvLY8qUKSQlJVFQUEB3dzepqamEhYXZ1CcIP6SqqiroHV/18/Prf/qydDodHR0djBgxQk50UVNTg7e3N3Z2dvj6+tq0kL+rrq4uVCoVXl5e+Pn5XTKJxnDU3NyMg4MDfn5+Nt3nSqUSDw8P3N3d/6PXRKFQQO/v5+KHluuZ0WiUM5O5ubnh6uo66MNYV1cXWq0WPz8/mwdInU6HVqvF09MTDw8PTCYTKpUKq9WKu7s7Li4uAx44r2VXLNhu3LiR3bt3c99997F8+XIA/vrXv3LixAkee+wxUlNTbcq3t7fj6Ogot1C/+eYbNmzYwOrVq1m3bh3FxcW8++67TJw4kQceeAAAg8GAnZ3dgCd5QRAEQfghXbFHWZ1Oh5OTk82TUWBgIBqNhtbWVpuy9I7PXNwVbDKZcHNzw9PTE3qzyVitVtzc3MjPz+f8+fO0tbX9R0+zgiAIgnAlXLFg6+/vT3NzM4WFhbS2tsr9/M3NzTYJ0gdjNBqprq4mMTGRSZMmAaBSqejq6qKpqYmCggJOnDjBhx9+yNGjRwdd3C8IgiAIP5QrFmzHjx9PQkICJ06c4I033mDjxo1UV1fT09Nz2XVWRqORtLQ0VCoV8+fPl8d2DQYDRqMRb29vxo8fz+TJk6moqGDbtm3U1dX1r0YQBEEQfjBXLNgmJSXx0EMPMWfOHJycnLCzs8PBwYGAgIBLLkand1byvn37iI+PZ8qUKfJxFxcXXFxcGDFiBMnJycydO5eFCxfS3t5OaWmpTR2CIAiC8EO6YsEWYPLkyTz22GP86U9/4mc/+xlubm64uLhccj1bbm4u6enpJCUlccMNN+Dq6opSqUSj0eDn54eLi4vN4vO+qfp9i/8FQRAEYTi4YsG2qamJjIwMysrKMJvNFBUVUVRUxLhx4xg1ahQdHR3s27ePkydPotPpyMnJ4auvvkKn05GYmIhWq2XXrl0cOXIElUpFUlIS/v7+1NbWolarUSgU5OXl4evrS2JiYv/bC8JVQa1W9z90SWq1etA0jfRuZ1ZcXCxvHTdYmetFbW0t1dXVtLe3X3azgsHo9Xq6uroGfA3ntJY/BLPZTFdX17/Nrd2XVaqsrGzQbfj6dHd3D7qZQZ/u7u6rbregK7b0p6SkhC+//BK9Xk9SUhJ1dXUYDAZ+9KMfMWXKFAoKCnjttdeIiori0UcfZe/evRw+fJgRI0bIe3+WlpYyffp01q5di6+vL/v27ePMmTOMGDECi8VCUVERM2fO5Pbbbx90PZggDFcHDx7E09MTlUpFS0sLo0ePZubMmYOufd2xYwfd3d24u7tTWlrKiBEjWLx4Mf7+/tjZ2XHu3DlOnDiBj48Pra2taLVaHnnkEcLCwq6J2fpKpZLS0lJqampITU1lxIgR/YtAb3rBQ4cOUVNTQ2BgIEajkdjYWGbNmoW/vz8AbW1tHDlyBHt7exwdHfH29iYxMZHQ0FDUajXffvstlZWVuLm5yet5DQYDt956KykpKf3ueP2pra3lwoUL8prtyMhI5s+fP2AtudlsJicnh0OHDmG1WnFxccHR0ZFZs2YxceJE3Nzc0Ol05OfnU1paKvdSJiUlMWbMGNzc3KitrSUzMxMfHx9cXFyor6+Xz18N63WvWAapvmw4fYnDw8PDue222xg3bhz0/jKcnJwYNWoUsbGxuLq6EhgYSHh4OP7+/vj7+5OYmMisWbPkJNcjR47EyckJpVKJu7s7c+fOHZCSTRCGuzNnzvDSSy+RkpKCo6Mjx44dY+fOnSxbtmzQ5AwvvPAC/v7+BAYG0tzczDvvvENUVBQJCQk4ODiwa9cuSktLmTdvHjqdjjfffBN3d3dSUlKu+oQNfQ8Su3fvZsuWLcyZM4fIyMj+xaB3eeCHH35IcHAwCQkJ5Ofnc/z4caKjoxkxYgRGo5HPPvuMPXv24OHhgZ2dHUePHsVoNBIVFYVGo2Hfvn20tbXJvwedTkdaWhpJSUkkJSX1v+V1pbm5mc2bN5OZmYm/vz8KhYILFy5gZ2dHbGysTdpPi8VCWloaJ0+eZObMmfT09LBnzx4qKyuZMGECXl5enD59mo8++oiWlhb8/PxoamoiLy8PHx8fIiIiuHDhAtu3b8ff3x83Nzfy8vLIzMwkICDgku+BYUUSBOEH9eSTT0opKSmSyWSSJEmScnJyJBcXF6mhoUHq6enpX1zaunWrZDab5e+joqKke+65R9JoNJIkSVJ2drZUVlYmWSwWSZIkKTU1Vfrxj38sdXR0yNdcrY4cOSJ99dVX0uOPPy6lpKRIJ06c6F9E1tTUJO3du1dqbGyUpN7X9dZbb5V27Nghmc1m6fz581Jqaqr0l7/8RX5t/vd//1f66U9/Kl24cEHSaDRSUVGR1N7eLtd58uRJ6bnnnpMyMzPlY9erbdu2ScuWLZPef/99SZIkqaWlRXr++eelBx98UKqoqOhfXKqoqJDOnj0rSZIkNTQ0SE888YS0aNEiKSsrS2ppaZGefvppadasWdKxY8ckqff3df/990tPP/20pNfrpZqaGiktLU1+n2dkZEi33nqr9Prrr9vcZ7ga2EclCMIV5eHhgV6v58yZM/T09FBWVsbo0aMJCAgY0KoFWLVqlU2KQgcHB5uJghMnTpRbuRqNBp1Ox+LFi6+JzGqpqan8+Mc/lrseLycsLIzly5cTHh4OvRuWREREEBERgZOTE42Njbi7uzNhwgS523P8+PEoFAqUSiWenp7y3BB6u48PHTpEeHg4cXFxNve63pjNZkpLS9Hr9fIcmZCQEKKioujq6ho0UVFcXBxTp06F3iWdkiQRFxfHyJEjUavVKJVKAgIC5OWd/v7+eHp6UlxcjFarJSoqigULFsiJjezs7HB2drbZPnI4E8FWEH5gN910E3Fxcfztb3/j448/pqCggN/+9rc2AfVSmpqa6OjoYMmSJQM2Iti5cyebNm0iJSWF1NTUq+ZD6ft24sQJNm7cyP79+5kzZ44cKKOionBxcUGj0cgTnjw8POjs7ESn0/Wr5V/zTlQqFQkJCZdcQXG9MBqNGAwGXF1dB4yXms3mS06UUigU7Nu3j+3bt+Ps7Mytt95KcHAwvr6+REVFQe8GM/Tud+vp6TnoZKm+XZ8MBoO8McJwJ4KtIPzApk6dyty5c/H392fnzp0oFAoiIyMHbdVeTKPR8Ne//pWxY8eyaNEim+BsMpmoqqoiLy+PmJgYefeW61FXVxf5+flIkkR3d7ccWOPi4oiMjOTYsWN8+eWXHD16lIaGBkwm04DZ2waDgd27dxMaGmqzAf31ymQyXTKgGo3GQR9W6A3EtbW11NbW4u7ujrOzMwaDgaCgIObNm4ePjw/bt2/nm2++obS0FFdXV8xms0193d3dctbA+Ph4EWwFQfhuDh8+THZ2Nr/85S/5+c9/jk6n43//939pb28f8KHfR6PRsG3bNo4cOcKvfvUrwsPDbYJzTEwM9913Hz/5yU9IT0/nk08+ueqWSnxfbrrpJp544gmWLl3Knj17yM7OxmKx4Onpydq1a4mNjaWjo4OOjg5UKhW+vr4D9lctKSnh1KlThIaGih3F/jXX55L5DJydnS/ZxR8REcHdd9/NmjVrMBgMfP3111RUVAAwZswY7rrrLnx9famtraW7uxtPT0/c3d3lrnyAuro6vvzySzo6Orj33nsJDQ296A7Dlwi2gvADe+ONN3BxcSE+Pp6lS5fy+OOPk5aWRnV19SWD7fbt2zl27BiPP/44K1asGLTL2c/Pj8mTJzNp0iR5k/TrVVhYGAsWLKCzs1MeawSYNGkSP//5z/nVr37F6tWrCQ0NJTIycsB+2MePH8fZ2Zno6Oirfkb398Hb25vQ0FCboQmz2YxarcbDw0MeJx+Mt7c3M2fOZMyYMRQXF8vbTwYFBXHjjTfy6KOP8sADDzBjxgycnJwICgoiJCQEgPr6er7++mtaWlpYs2YNKSkpg3YzD0ci2ArCD8zJyYng4GB5Q47Ro0djZ2cntw6qqqo4f/683JL49ttvycrKYtWqVdx9992YTCbS0tLk7lGNRiMH6ebmZsrLy9HpdJcM3NeS0tJSqqurMZlM6PV6m67zrKwstFotHh4eODg4oNfrqa6ull93g8FATU0NKSkpNktJDAYDJSUlTJkyRSTM6eXq6kpCQgLu7u6UlZVhNBppamqioqKCgIAAIiIi6OjooKCggIaGhv6X09jYSE5ODvQ+FHZ3d1NXV0dJSQk9PT14eHjQ3NyMSqViwoQJ0Nui3b59OwqFgrVr17J06VIaGhpIS0tDqVT2u8Pwc8XW2QqCMDhHR0fq6uqoqqqirKyM/Px8HB0defDBB3FycuJvf/sbmzZtYsGCBZSUlPDLX/4Sd3d33N3dycrKIi0tjdzcXBYsWICzszP79u2jvr6ekydPcujQIfLz81mzZg1z5sy5Jlplra2t7N27l7NnzzJ+/Hji4+NxdnZGrVbzt7/9jZqaGuLj42lubiYjI4PCwkJOnTpFeno63t7erFy5koiICFQqFV9//TV1dXW0trZSVFSEQqHghhtusJltfP78efLz87nxxhvlvADCvwJuY2Mj2dnZKJVK8vLy6O7uZtGiRSQnJ3P27Fk2bNggzzouKyvj/PnzZGVlkZ6eTk1NDXPmzGHx4sW4uLiQlZXFzp07UalUKBQKSkpKsLe3Z/ny5Xh5eXHo0CHeffdd/P39cXR0JDMzk3379lFUVERqaqo8S3m4EsFWEH5gYWFhuLm5UVNTQ2dnpxxog4ODsbOzIzc3l7a2NhYsWEBDQwM9PT24u7vT2dmJSqXCYDCwaNEiRo8ejYODA4WFhajVampra6F3qdCaNWsuOY52tens7KSlpYWgoCASExOJjIzE1dUVrVZLVlYWgYGBJCcnYzKZKCgooKOjg8bGRmJiYrj11lsZNWoUzs7O9PT0UF9fj9FoxGw2093dzcKFC0lMTJQzGNGbJSk8PJzx48eLhDkX8fX1JTQ0FJPJRFtbG25ubixbtoz58+cD0NDQQFVVlfw7amhooKamBoVCgbOzM4sXL2b58uUEBwfj6OiI2WymtbUVq9WK2WwmKCiI1NRUIiIisFgsqFQq9Ho9zs7OqFQqVCoVTk5OzJ49m+nTp/f/8YadK5auURCE/5vu7m6USuWASVDCQK2trXh5eV0Ta4qvdnq9HoPBgIeHh/h9iGArCIIgCENPTJASBEEQhCEmgq0gCIIgDDERbAVBEARhiIlgKwiCIAhDTARbQRAEQRhiItgKgiAIwhATwVYQBEEQhpgItoIgCIIwxESwFQRBEIQhJoKtIAiCIAwxEWwFQRAEYYiJYCsIgiAIQ0wEW0EQBEEYYiLYCsIVptFo+h/6weh0Oq7Wjb8MBgNWq7X/YUEYlsQWe4JwBTQ3N3P8+HE8PT2pra0lKiqKefPmyZuRb9myhZ6eHrl8aGgoc+fOxd5+8OfhlpYWTp48iaurKzqdDnd3d2bPno2vry92dnZUVVWRk5ODi4sLdnZ2jBs3jhEjRsiboh89epTa2lrs7e3x9/dn5syZ+Pv7X/J+w0leXh6VlZW0trYSEBDAtGnTCA8Pt9nwHaCiooKSkhJ0Op3N8b6N4H18fDAYDJSXl9Pc3IxWq8XR0ZHx48cTERGBo6OjfE11dTU5OTlMmDCBuLg4m/quVVqtlqKiIqqrq+VjwcHBjB07lqCgIFQqFUVFRSgUCuzt7enp6SE2NpakpCRcXFxs6hLA4bnnnnuu/0FBEL4/zc3NfPjhh5w9exY7OztaWlo4ceIEixcvxsPDA61Wy5133oler6eiooLy8nLs7OyYOnXqoMGvsrKSL774gurqajQaDQUFBaSlpZGamoq3tzdKpZK///3vNDQ0oNPpSEtLo6qqiuTkZDw8PCgoKODZZ5+lrq4ODw8PMjIyqKqqIjExEQ8Pj2G9Qf2ZM2fYvHkzNTU1qNVqTp8+jSRJREdH4+7ublN2+/btbNmyhbKyMqqrqykvLyc9PZ3m5mbGjBlDYGAghw8fZu/evSgUCpqbm9m9ezcmk4n4+Hg8PT3lILt161Zef/11Ro8ezbhx42zuc63qe58dPnyYxsZGysvL6enpIT4+Hl9fX7Kzs/n888+pqalBr9dz9OhRSktLGTduHH5+fv2rEyRBEIZMT0+P9Pzzz0uLFy+WSkpK5OPffPON1NPTI0mSJOXn50tz5syR8vPzpZKSEqmkpERqbW2Vz/f329/+Vlq6dKmk0WgkSZKk9vZ26bPPPpOMRqMkSZL0j3/8Q7rpppsklUolSZIkbdu2TYqNjZXS0tIks9ks3XfffdLs2bOl4uJiyWq1SgcPHpSCgoKkbdu2yXUMR3q9XlqzZo3085//XKqurpYkSZK++OIL6Z577pFOnTolWSwWm/IHDhyQtmzZIp0/f15+XR999FHpjTfekJqbm6XGxkbp9ttvl/74xz9KTU1NkiRJ0u9//3tp6dKl0okTJyRJkqRz585J//jHP6Q77rhDCgwMlL744gube1zLjh49Kj3zzDPSli1b5NdPoVDI58+dOyd99tlnUlVVlST1vu8WL14sHTt27KJahD4DH5sFQfjeaDQa3nnnHWbPns2oUaPQarUA3HLLLXILsrCwkMTERHx8fAgPD2fEiBEEBgZesoX59ddfs3z5cpydndFqtTg7O7NmzRpcXFzQ6XT885//ZNGiRXJX3oIFC9DpdNTW1mK1Wjl48CDh4eEEBwdjb2/P4sWLCQoK4uzZsxgMhv63GzaqqqooLi5mypQpBAcHAzBlyhTKysooKCgY8LMvWbKE1atXM3nyZEaNGoWjoyN6vZ7JkycTGhpKTk4ODQ0NTJ48mbCwMADGjBlDTU0NVVVVWCwWpkyZwsMPP0xqaqrc5X+96Orqwt3dncTERAIDA4mOjpZfd3pf+7Vr1xITE0N3dzcWiwUXF5cB3fnCv4hgKwhDqK2tjba2NjQaDR9//DGfffYZ+/bto7y8XC7T2NiIJEls2bKFzz//nH/84x+UlJQMOnFJq9XS3t6Ol5cXO3fulMufO3cOi8VCe3s7ZWVlxMTEyB96fWOxpaWlWCwWPDw8MBgMNvX7+flRW1tLd3f3RXcbXsrKytBoNERERMhdxt7e3jg5OdHS0jIg2Pa3Y8cOEhISiIqKgt4HIVdXV5ydneUy4eHheHl5odFoMJlMF119/TEYDDQ2NnLixAm+/PJLtm7dSl5ens3r0t3dTUNDA+np6SgUCmbNmkVCQoJNPcK/iGArCENEkiS5JWsymThx4gRVVVVs376dV199FbVaDcD06dOZM2cOFouF6upqNm3axGuvvYZKpRoQcOvq6pAkCavVSnZ2NpWVlWzZsoUXX3yRwsJCeZKVh4fHgPHelpYWrFYrc+fOpbW1lcOHD5OVlUVZWRkWiwV3d/cB1wwnXV1dl3wYUCgUlw22BoOBgoICudegj6urq81EKOH/i42NZdSoUfT09NDe3s6uXbt49913KSgokMsYDAZKSkrYs2cParWaqVOn4ubmZlOP8C/D9y9LEK4BRqMROzs7oqOj+fjjj/nzn//MT37yE7Zs2UJ+fj6SJDF79mzuv/9+fvvb3/Laa6/x8MMP8/nnn1NVVTUg2JpMJiRJYsaMGbz00kv8+c9/5tFHH+Xo0aNkZGTg7OyMnZ3doLNB/fz8sLe356c//SlLliwhMzOTw4cP09DQgFqtxtfXd1gHWzc3t0t2UTo4OFz2Z79w4QJOTk6MGjUKT09P6A20l6pTBOF/PQT+4he/4Gc/+xnPPfccq1atori4mOPHj8tlnJyciIqKYtGiRYSFhXHs2DGysrJs6hH+5dLvTkEQ/it9QdbT05OAgAD5+OzZs3FzcyMrK2tAMAWYPHky9vb2tLe3DzgfGRmJl5eXzXhuSkoKDg4O6HQ6/P398fLyoqGhQV6D2reWtm+m8dSpU3nhhRd47LHHmDt3LikpKWi1Wvz9/Yd1gPHx8cHJyclmfa3RaMRqtZKYmIi3t3f/S6C39bVlyxaSkpKIjo6Wj3t7e9PZ2Yler5ePGY1GHB0d8fPzG/SB5Xo2YsQIQkJCbJZSubm5kZCQwIoVK1iyZAmtra2cP3/e5jrhX0SwFYQhFBgYSHJyMgqFQj6m1Wppa2uT18T2HevT2NiIh4cHISEh2NnZ0dHRIS+7CAgIIDk5mZqaGrnLuKurC0mS8PHxwc7OjtGjR9PU1CSfz8rKwsnJicmTJ+Ps7IxSqUSj0RAbG8usWbMoKirC0dGRWbNm4erqKv8cw82IESPw9/enrKyMrq4u6F3/arVaGTFiBG5ubjQ0NNDe3m6T7KK0tJTs7GzGjBlDaGiofDwsLAxnZ2d0Oh0WiwWA8vJyAgICbB6Orlc6nY729nbMZjMASqUSvV5v0w1/MZPJhMlkumwPw/XsB1lnazKZUCqV9PT0DPjjbmtro6amRs6y4+joOGg3z8U0Gg0qlQo7OzubyQ59zGYzXV1dWK3WQc8LwlDSarUcPXqUwMBAFAoF3377LQC/+c1v8PT0ZMeOHRw5cgRXV1dOnz7Npk2bGDVqFOvXr8fR0ZFPPvmEbdu2MXnyZLy8vNDpdBw6dAgnJydaW1v5xz/+gbu7O7/5zW/w9/dHr9eTk5ODk5MTbW1tvP/++0RGRvLII4/g6enJ4cOHOXr0KPb29tTV1fH5558TEhLCunXrhvWM25CQEGpqaigoKMDZ2ZnOzk727t2Lt7c3N998M87OzmzYsIHGxkYiIyPx8PAA4KOPPqKjo4Nly5YRHh4u1xcUFERFRQVdXV3Y2dlRU1PDt99+y6RJk+Q1y30OHz7MyZMnmT59OuPGjRvWPQDfB7PZTGZmJhkZGXR1dVFSUsK+fftwc3PjRz/6Ef7+/tTV1XHhwgUKCgrIzs4mPT0di8XCihUriIiI6F/lde+KBluTyURFRYX8xvXz85On3PctUD9x4gTFxcWUlpbKT9xBQUGDBlyNRkNRURF79+6ltLSU4OBg/P39bcrU1dVx6NAhcnNz8fLyspm6LghDzc7Ojri4OMrKyigrK0Ov13Py5EleeeUVuUvzk08+4fTp07i7u3P69Gk50Pa1bD/99FMuXLjAkiVLCAoKIi4ujsLCQkpLS1EoFCgUCp544gkmTJiAg4MDMTEx8t+QRqOhs7OTn//850RFRWFvb09NTQ0HDx7EarXS1NSE2WzmgQceIDo6etC/s+EkKCgItVpNc3Mzra2tmEwm1qxZw5gxY1CpVOzYsQOz2cyECRPw8fHBaDRy+PBhZs2axcyZMwdM3nF3d6e9vZ2WlhbKy8sJDAzkjjvuICYmRi5jNBrJzc3FbDYzZswY4uLiBiTQuNaYzWby8/PJy8ujvb2dvLw83NzcWLduHZMmTcJsNlNVVcXJkyfJzMzkwoUL2Nvbc/vtt7NgwYL+1QlXOl1jSUkJGRkZfPbZZwA899xzpKamQm9Q/OKLL6B3zKqsrIzNmzczZ84cfvGLX8hBuY/ZbCYvL4/9+/fz7bffEh8fz1NPPcX48ePlMi0tLRw/fpyPP/6Ynp4enn76aRYuXGhTjyBcKcXFxQQFBUFv9/LF+pb6BAYGDlhjW1FRQU1NDQsWLLBpUZWVlWG1WgkICCAoKGjAutzy8nJ8fHwIDAwc0LXX0dFBW1sbPj4+BAUFDTg/3NXV1ckP4k5OTvLxrKwsvL29iYyMxMXFBbVaTWtrKyEhIfLEqME0NDRgZ2dHYGDggLFajUYjB3Zvb+9By1yLDAYDra2tcjrQwMBAubegT0dHBwqFAjc3NwIDAy/7Gl/vrmiwzc3NxWAw8MUXX1BWVsZTTz0lB1utVovRaMTDwwM3Nzfq6up46qmnMJlMPPvss6SkpNjUpdPpKCoqoqOjg927d6PX63n88cdtgm1xcTFtbW0cOHCAgoICHn/8cRFsBUEQhCvuij7OpqSkMHPmTHx9ffufwtPTk8DAQLmbx9PTEzc3N+zs7AY8sdO7jnDq1KksXbr0kuMDSUlJzJ07d0ArQhAEQRCupCsabP8TTU1NmEwmeQcOQRAEQbhaDctgq9FoOHToED4+PixdunTApCdBEARBuJoMu2BrNps5ceIEjY2NrFy5kunTp/cvIgiCIAhXlWEVbE0mE2fOnOHYsWNMnz6d2bNno9FobDK8CIIgCMLV5gcJtmazWc7YcvGxjIwMNm/ejJ+fHzExMZSXl/PNN99QUFCA0WgkJyeHzMxMOjs7B1x7qQTl9O5ModPpLltGEK6Ui9PdDebfnae3TP+vwRYW6PX6QY9fzVQqFQqFArVabZMp6lJaWlpoamqSE9v8X5hMpgGfWYKt7u5uOdvU5XR3d19yRyWLxTLgfX2psvSWv9z54eSKJrWgN0NUWloaHR0djB8/nsjISJycnKisrOTDDz9Ep9MRGhpKdXU1J0+e5Ny5c0RHR+Pn58e7777LiRMnGDVqlLzutqOjg+PHj9Pe3s6oUaMICQmxyRKl0+k4deoUlZWVjBo1iri4OJFFSvhB5Ofnc+TIEQICAgbMyM/MzCQ7O5uGhgZOnjyJl5cXfn5+g87Eb21t5auvvuL8+fPk5OSQk5OD0WgkMjISBwcHjh8/Lk8w7BuS8ff3x9XVddD6ribZ2dkcO3aM2tpaKisr6ejowM/Pb0AmOoDOzk6OHz9Oeno6DQ0NlJSUoNPpbPIed3Z2cu7cOWpqaqipqaGtrQ1HR0dcXFzo7u6moKCAwsJC6uvrKS0tpaqqCicnJzw9Pa+6tclDobm5mdzcXCoqKsjPz0ehUBAUFDRgHXJ3dzeVlZVkZ2ejUCgoLy+nvr4eJycnOVOXwWAgJyeH3bt3y+/r6upq3Nzc5PXpfSwWCxUVFWRkZGBnZ3dVJCu64sG2sbERR0dHoqOjCQ0NJSgoCDc3N+rr63F2diYsLAwXFxdcXFwICAhgxowZTJ06FScnJzo7OwkICGDs2LHypKmWlhYkSSI4OBhvb2+Cg4Ntsrv05Y0dOXIkYWFhBAUFDViYLQhDKT8/X94678knn+QXv/gFfn5+8vmCggKee+45Ojo66Ojo4OzZs2RlZTFnzpwBGY8ADhw4wNtvv41CoaCmpobq6mpCQkIYP348jo6O/P73v0ev1+Pp6UlBQQFffPEF3t7exMfHX/VpBj/88ENaWlrk1JdbtmwhLi6OESNGDAh+ZWVlvPbaazg5OTFixAhOnTrFiRMniImJITw8HLPZzI4dO9i8eTNqtRqlUsmxY8ewWq1ERERgNBr55z//SX5+Pi4uLpSVlfHFF19gNBpJSEi47hM4tLW1sWPHDvbu3YtGoyE7O5vs7Gy8vLyIjIy0ea91dXXxzTffsHfvXnx8fKiurubbb7+lq6uL5ORkXFxcaGhoYNOmTezevRuFQkF1dTU6nY7Y2Fh5D+I+NTU1vPnmm3z55ZeMHj2a5ORkm/PDkiQIwpDp6emRtmzZIv3973+Xfvvb30qAVFlZaVPmZz/7mZSamiqZzWZJkiSpqKhI8vf3l/bt2ydZLBabspIkSS+99JL06quvSg0NDZJSqZS/rFarJEmS9Mknn0j19fXy92vXrpVWr14tdXR09Kvp6nPs2DFJqVTK399www3Shx9+KGk0GptykiRJtbW10ubNm6WamhpJkiQpIyNDWr58ubR161bJaDRKeXl50qJFi6SXX35Zam1tlSRJkv74xz9Kjz76qFRQUCB1dXVJu3btksrLy+U677vvPmnZsmVSZmamfOx6tWvXLummm26S3nnnHUmSJOnChQvSunXrpIceekhqamqyKdvR0SEdPnxYOnbsmPz9Cy+8IC1ZskS6cOGCJEmSlJ2dLf3pT3+Stm/fbvO+7urqsqmrpaVFevvtt6WZM2dKy5Ytk77++mub88OV6AcRhCFkZ2fH6tWreeSRR0hKShq0G/f48ePMnj1bPte3FVxf/uL+WltbCQgIoK2tDY1Gg6urq01Kxp/85CeMHDlS/t7NzW1Aq+9qNX/+fLlLsa9Xy9HRcdDXNTIykh/96Edyq6izs1POx+7i4kJFRQXOzs5MnTpVTnwzceJEmpubaWlpwdvbmxUrVhAfHy/X6ezsjMFguGrGCYdKd3c3hYWFdHV1MWbMGABGjhxJTEwMbW1ttLe325T38/Nj0aJFzJ8/HwAvLy8CAgKwWCzyOK/RaMRsNuPo6Eh7ezsWiwVvb2+bDSG0Wi1paWnk5+dzyy23DOuNM/q7Nv4CBeEqpdPpKC4uxt3d3SZgBAUFUV9fP+jkpo6ODiRJ4ptvvmHjxo18+umn8hZ8/en1ekpKSpgyZco1M1ehpqaGI0eO8MUXX5CYmMjUqVMvOzSUl5fHvn37OHr0KNOnT5c3gIiMjMTT01PeE5fePW67uroGnaTWl2d59OjRjBgxov/p64rBYEDXmzO5rzvd39+fmJgYJEmio6Oj/yU2lEol9fX1hISEyDsxmUwmtFottbW1bNq0iU8//ZS9e/fS2toKveO0BQUFXLhwgaVLl151y0JFsBWEH1Bra6u8AUF/bW1tgwbb2267jbi4OJKTk3FycuL555/n448/xmg09i/Kt99+i8lkYtasWQMmrVytSktL2bNnD+fPn2fMmDF4enoO2gPQJysri6+//hqNRiPvewsQHx+Pv78/p06dYv/+/Zw6dYrm5mb0ev2A+kwmE3v37kWv1zN//nybrfquR5ebUWwwGOQtUgdjMBjIzMyktraWxYsXy69ldHQ0CxcuJCEhgZEjR5Kbm8vLL79MRkYG9M73OXnyJGFhYaxatapfrcOfCLaC8APy8PAYtAuU3u3fBnPbbbexcOFCVq1axTPPPMPEiRPZvXv3gGUXJ0+e5K233uLhhx9m8uTJV/3kqD7Tp0/n6aef5oEHHiAzM5M9e/agUqn6F5PdfvvtPPPMM0ydOpWvvvqKnJwcrFYrPj4+3HPPPTg5OclbxdXW1uLt7W3TUjaZTJw7d47NmzczadIkZs+ePejs5+tJd3f3JZdSOjk5XfLBzmKxkJOTw/79+0lKSmL16tXyuejoaG6++WaWLl3K+vXruffee7FYLJw9e5auri4OHz5MdnY2ERERnDt3jtLSUjo6OqioqKC+vt7mPsORCLaC8APqmx3f1tZmc7y1tZXIyMjvNNYaERFBY2OjTTfyyZMnefnll0lNTeWOO+64poKDr68vQUFB3HDDDfj4+LBz587Lftj6+PgQHx/PunXr0Ov1FBcXy4lyZs+ezXPPPcdLL73Er371K+Li4oiIiLAZJ8zJyWHHjh1MmDCBn/zkJ0RGRl5U+/XJx8eH4OBgm6GJvnwGHh4eA7ZEpTfQFhcXs3v3boKCgnjggQcuO+batxlNa2srCoWCqqoqAE6fPs2WLVvkJV19S+CGu3//lywIwpCaPHkyGRkZaLVa6A20RUVFzJ49G3t7e5qbmykrK5ODaUlJCRqNBkmS5DHZvmU/AKdOneKDDz5g4sSJPP3003h6enL69GmampoGHde9WhiNRnQ6ndzF29LSQk1NDSqVSj5WX19PS0sL3d3dNmOx9C6x0ul0ODg4QG+Lta/buO/7mpoakpOT5THZoqIiDhw4QGRkJPfffz+RkZGUlZUNmAB0vXFzcyMuLg4PDw/q6+sxm80oFAoqKyvx8/MjKioKjUYjr13uC7Q7d+7E29ubRx99FH9/f4qKisjPz4feCWy1tbVyAhGFQoHRaCQ2NpaQkBBWrVrFgw8+yI033siNN97IlClTCA4OZvz48cTFxfX/EYedK77OVhCuR30Tmo4dO8Ztt91GdHS03H3s7u7OmTNncHR0pKmpiQsXLqBSqXjxxRdxdnZmw4YNfP3118yZMweAP/3pTzg4OKBWq8nIyCAnJ4f169eTkpKCyWRi3bp1ODk5MXfuXKqrqykqKuLVV19l4sSJg65HvVr0tWLq6uooKChg//79VFdXc/PNNzNv3jzs7Ox4//33qa2tJTo6GqVSSUlJCdXV1eTl5bF//356enpYvXo1MTExdHR0sGPHDpRKJRqNhrq6OjIyMli8eDHjx4+noaGBV155hbq6OmJjY+UEGGlpaYSEhFz3k6ScnJzk17a7u5v8/HxaW1uZO3cuEydOJDs7m40bN2KxWPD39+fTTz/l+PHjjB8/HpVKxdmzZ9m5cyft7e1Mnz6d06dP880332Bvb09VVRWnTp3C3d2dO++8k7i4OMLCwoiOjiY6OpqwsDCam5vJyMggKSmJFStWDPthEhFsBeEKSU9PJygoiKioKJKTk+VgO2bMGDw8PDh9+jRlZWX4+Pjw05/+lLCwMOzs7NizZw8lJSUsWrQIe3t7zpw5I7d4L1y4wPr167nllltwdnamq6uLrKwsLBYLpaWlFBYWUlhYSEREBGvWrLnkOPDVoLOzk7Nnz1JSUsKZM2dQq9WsXr2aO+64g8DAQFQqFfv27cPV1ZXx48ejVqs5c+YMxcXFnDlzhuDgYO644w7Gjh2Li4sLFouF7OxsmpqaaGtrw2AwsHDhQsaPH4+LiwuFhYVUVFSgVqupqamRv09ISGDatGkDsoBdbwICAggKCqKlpYWCggK6u7tZsWIFN954I/ROZDt9+jRRUVGEhoZSUVFBV1cXdXV1FBYWUllZSWhoKDfddBNBQUHU1NRQWVmJyWSisrISd3d3HnjgAVJSUvrfGp1OR0VFBW1tbSQkJMiJMYYzO2mw6Y6CIAwbRqORxsZGYmJirtpW6ZXS2NiIn5/fVf1Qca3QaDRotdoBE86uVyLYCoIgCMIQE4/JgiAIgjDERLAVBEEQhCEmgq0gCIIgDDERbAVBEARhiIlgKwiCIAhDTARbQRAEQRhiItgKgiAIwhATwVYQBEEQhpgItoIgCIIwxESwFQRBEIQhJoKtIAiCIAwxEWwFQRAEYYiJYCsIgiAIQ0wEW0G4wgwGQ/9DPyij0cjVuPmXyWTCarX2Pyz8gCwWC93d3f0PC2KLPUH4fkiSRHl5Oc3NzcyfP7//aQAaGhrIy8tjzJgxREdH25xrbGykvLwcV1dX3N3dCQ8PJyAgQN5g/mIGg4Hz58/bBJrY2FhGjhyJvb09BoOBoqIiWltbcXFxwc3NjdjYWAIDA232w21ubqayslLebN3Z2Vk+N5xVVVXR1NREa2srfn5+jBkzhoCAABwcHPoXpampidraWkwmk3wsMTGRkJAQ9Ho95eXlqNVqm2sAkpOTCQoKorm5mbq6OqxWK25ubvj4+BAaGnpd7Jer0Wioqamhq6sLNzc3vLy8CAkJwcfHp39RLBYL1dXV1NbWEhMTQ1xcnM15o9FIfX09jY2NNscBQkNDGT16dP/D1xwRbAXhvyBJEg0NDdTX17NhwwaOHz9OeXm5TZmGhgYaGhrYtWsXL730EpWVlcTGxsrnOzo6ePPNN2loaCA4OBi1Wk1kZCSPPvoo3t7eNnUBnD59mt/85jf4+fnJwXPt2rXceuutODs7k56ezocffohKpSIwMBCdTseCBQu4//77cXd3x2g0UlRUxNGjR3nvvff42c9+xvr16/H09Ox/q2GnuLiYDRs20Nrair29PSqVilWrVnHzzTfj6+vbvzjvvfceu3btoqenR36YeOyxx5g/fz7l5eW8/fbb1NfXy+fMZjMNDQ28+uqr3HDDDWzcuJGjR4/i6+tLREQEOp2Om266iWnTpg0a3K8lp0+f5osvvkCv1xMaGkpPTw/Tpk3j5ptvxsnJyaZsVVUVr7/+Onl5efz+97/nxhtvtDnf1NTEF198wYEDB+SN5C0WC+3t7cyfP59XX33Vpvy1yOG55557rv9BQRC+G0mSyMzMZN++feTk5KDT6fjFL35hc/7s2bPs3buX8+fPU1VVxeOPP46fn59c5quvvmLnzp1s2bKFpUuXolarefrpp5kzZw5RUVE2rVGAzz//nICAAH72s5+xePFiUlNTSUpKwtvbGzs7O5599llCQ0N59913ufPOO9FoNGzevJmVK1fi7u6OSqVi06ZNqFQqjh8/zrx585gyZcqwb9maTCZ+//vf09bWxrPPPsv69esxGAxkZGQQFxdHSEjIgNfqyy+/ZNSoUaxbt45ly5aRmprK2LFj8fDwQK/X4+vry5IlS1i+fDmpqamEhISgUqmYOXMmQUFBlJSUMH36dO6//34WL17Mhg0b0Gq1jBs3Djc3N5t7XWsqKyvx8PDgoYceYvbs2Rw/fpysrCxmzJhh8xDY2dnJwYMH2b9/P15eXkyfPp2EhASbusxmM46OjkydOpVbb72V1NRUxo0bR3d3NwEBAcyZM8em/LVIjNkKwn/B3t6epUuX8tJLL7Fo0aL+p7Gzs2Px4sW8+uqrrFmzZtBu4XfffZcFCxbI5+666y5iY2PZt2/foGOSKpWKWbNmMWrUKBISEhg3bhxhYWFyoFGpVJSWltLW1kZPTw++vr42LZGgoCD+8Ic/8Oqrrw7aGhyuamtryc/PZ8mSJYwcORKAmTNnkp+fT25uLkaj0aa8yWSivb2dyZMnM2nSJBISEkhOTpYDRXR0NDfffDNz5sxh/PjxjB49mrq6OiZOnEhsbCw+Pj7cf//9cqtZq9ViMpnk/17rFixYwL333ktYWBiOjo44OTlhNBrR6/VyGaPRyKlTp2hoaGDChAk2118sICCABQsWsHz5csaPH8+YMWNwcHDAzc2NBQsW9C9+TRLBVhB+QAaDgfz8fFxdXW0CcXBwMPX19YNOXCosLMTFxYX09HR2795NZmYmWq1WLnvvvfdiNBr57LPPOHr0KFlZWdx1111y993Vqri4GLVaTWxsrNzl7evri7OzMwqFYsDEM6VSidVqpbS0lAMHDrBt2zaysrJQqVSDPsRUVVVRX1/PjBkziIqKko9rtVrq6uo4evQozs7OzJ8/n7CwMJtrr1VGo5GmpiYOHTpEZWUlc+bMITExEXq7gfPz87lw4QLjxo1jypQp/S+/pPb2di5cuICHhwczZszof/qaJIKtIPyAFAoFkiQRHBzc/xRKpXLQYDt58mSKi4s5ceIEe/fu5de//jX79u2TZ4HecccdLFmyhI0bN/Lggw9iNptZsWIFrq6u/au6qqhUKsxmc//D0Ps69g+2FouFqVOnotfrOXLkCG+//TYvvPAChw8fRqvV2pQ1m83s3buXiIgIm0ALUFdXx8GDB9m+fTvJycnExsYOGqyvRUqlkvT0dI4fP05kZCQzZ86U32d1dXUcPnyYwMBAbrnllv6XXlZRURFNTU3MmjWr/6lrlgi2gvADcnNzG7Rr+XJeeOEFnnzySV555RU++eQTnJ2defHFF+XuvZycHLRaLQ899BCpqamcO3eObdu2oVKpBg3eVwsXF5cBY7J9LBbLgH9bTEwMjz/+OE8//TTvvPMOr776Km1tbRw6dIi2tjabslVVVRw4cIDw8PABrVZPT08SExOZO3cuTU1NnDx5ko6ODpsy1yo3Nzeio6OZNWsW9vb2HDp0iJqaGjo7O9m7dy+1tbVERUVRUFBAfX09nZ2d1NXV0dra2r8qmVqt5uzZs7S1tZGSktL/9DVr8HeuIAhXREhICG5ubnR2dtocV6lU+Pr6fqdAHBcXR01NDT09PRiNRn71q1+h0+l49NFH2bBhA/fccw+/+93vOH/+PBaLpf/lVw0/Pz+cnZ0xm8309PRAb4u0p6eH0aNHD7ok5WKzZ88mLi6O1tbWAS3bAwcOIEkSUVFRA3oAIiMjmTdvHg888ABRUVFkZGRQW1trU+ZaFRQUxMyZM7n77ruZMmUKx48fJyMjg/LycvLy8mhubmbHjh28++67HDlyhKqqKg4ePEhubm7/qmQXLlzg/PnzjBo1atDZ9tcqEWwF4Qc2evRozp07J7dM+8ZxFy1ahIODA1qtlqamJrnlplKpMBgM8vdlZWUkJyfj4OCAWq2moqKCKVOmyJOiwsPDcXBwoKmp6aru/gwMDMTb25vKyko0Gg30dmV2d3cTHh6Om5sb7e3taDQam2Dc92+urKyktraWESNG2ATmlpYW9u7dy+jRo22WZPVnNpvp7u6mra0NnU7X//Q1zWKxoNVq6ejoQKfTERwczI033sjq1auZNWsWs2bNIjk5maioKMaOHcvIkSMxGo20tbXJvysAq9VKeXk5ZrP5kuvRr1VXNNjq9XqUSqW8IP1SM/q6urrkp8/v+iRuMBhQKpU2v9iLGQwGmpqarpvuH+HKMhqNqFQq+b+D6Tt+ceAEuPXWW6mvryctLY2CggK2b9/O+PHjufnmm3FwcGDPnj289dZbtLW1IUkSW7du5fDhwxQUFHDkyBFqampYt24drq6uBAcHM2HCBHJzcykoKKCwsJBdu3YRFRXF1KlTbZb3KBQKrFYrJpPpqsgiNWXKFKZNm8bJkyc5c+YMhYWFHDt2jIiICGJjYzGbzWzevJmDBw/S1dVFe3s7R44c4ezZs+Tk5LBp0yacnJxYsmSJTVfxjh07UKvV3HjjjTbjtSqVivLycnJycjh9+jR79uzh1KlTxMfHExERIZe7FnV2dlJWVsaFCxc4c+YMBw4cIDMzk7i4OGbOnElUVBS33XYb99xzD/fccw8/+tGPGD16NB4eHkyYMIH4+HjKysr45z//yalTp+R629raaG5uJjk5mZkzZ9rc81p3xdbZtra2cuTIEbKysqioqCA/P5+Ojg48PDxwd3fH3t5ezuiSlZVFeXk51dXV2Nvb2yzeH0x3dzenTp1iz549uLi4EBkZ2b8IOTk5bNy4EbPZTFJSUv/TgvB/JkkS9fX17NmzB61Wy5gxY4iPjx9QZsuWLajVanx9fZkzZ47cRZyYmEhOTg5lZWUUFxeze/du3nrrLUaPHo29vT2vvPIKx44dY/HixYSEhPD2229TVlZGdXU1X375JampqTzxxBPyuk8nJyfy8vKoqamhsLCQCxcu8OSTTzJjxgybJUD79u2jqKiIqKgouRv2cn9nw4GjoyONjY1UV1dTWVlJY2Mjd9xxB5MnT6a9vZ2PPvqItrY2Jk6cSEtLC++//z6FhYUUFRVRVlbGunXrWLJkic3M7N27dxMbG8sNN9xgs/65rKyMkydPcvjwYfbv3096ejpjxozhoYcekmfkXqsqKipIT0/n5MmT7N+/n7S0NDw9PVm/fv2gk5oaGxtJT0+nra2NhIQEoqOjyc3NZePGjQQHBzN9+nS53sbGRubNmzdgItq17oplkDp69CgfffQRSUlJJCUlcfToUbKzs1m9ejX33nsvvr6+HDt2jE2bNhEbG8uoUaPYt28foaGhrF+/npiYmP5VykpLS3n55Zc5e/YsTz/9NPfcc4/N+ebmZt5//30++OADHnzwQZ5//nmb84Lw35AkiZaWFvLy8qB37e3ixYv7F+PAgQPy/y9ZsmTAeGxeXh4tLS2MGzeO0NBQ+XxBQQHl5eXcfPPNODo6olQqaWlpkWcxD5bMgd4lQhaLhaCgIEJDQweUSU9Pl9emzps376pK0lBZWYmTkxOhoaE2rfXjx4/j6+tLQkICbm5uVFdXyw84oaGhuLi42NQDkJubi5ub26DjtfSu7+3s7JRTNQ5W5lqlVCppbm7Gw8ODkJAQvLy8+heB3u784uJi6O3uT0hIQKVSUVFRQUxMjNw939DQQEtLC4mJidfVeC1XMtg2NDTQ3t7OyJEjCQgIIC8vj6effhovLy/+8Ic/4OHhwe9+9zsCAgJ46qmniIqKYufOnWzYsIGVK1eybt06HB0d+1dLR0cHX375JQcOHMBoNLJu3TqbYKtSqfj000/JycmhpqaGhQsXimArCIIgXFEDH4eHyMiRI5kwYQIBAQHQu2i/b7alnZ0d+fn51NfXM3bsWLl7ISoqCkmSqKqqGnRCgsFg4MiRI+j1eiZPnjxg0b7BYODw4cNUVVXJMxEFQRAE4Uq7YsG2v+rqagwGAzNmzCAmJkaeuHTxbhpeXl64u7vT3d09YBalxWIhMzOT3NxcJkyYwLhx42zOA5SUlJCZmcmMGTNYunRp/9OCIAiCcEX8IMG2q6uLgwcPEhwczNy5c3F3d8dgMFxydrJGoxnQsq2srGTTpk3yZJP+mpub5ZmKg+WsFQRBEIQr5YoH277UaS0tLdx+++1MmjQJAG9v7wF7RFosFiwWC25ubjYTGwwGAzt37qSurg4XFxfOnj1LQUEBbW1tFBcXU1FRwZYtWzh48CCSJFFcXMzp06dpaWmhpqaG6upqm/sIgiAIwlC6osFWr9dz8uRJTp48ye23386SJUvkLmI3NzccHBwwGo3y2tqOjg4MBgORkZE2uWP7FvV3dnayadMmnnnmGTZt2kRpaSlbt25l165dmEwmurq6+Prrr3nmmWf461//Sm5uLkePHuXQoUMX/VSCIAiCMLSu2GxkvV5Peno6X3/9NampqSxevFgOmGFhYahUKp599lliYmJ44oknCAwMZNOmTWzdupU1a9awcuVK6uvrsbOzIzw8HLPZbNO1fODAAXbs2MHSpUtZuXKlzb3pzRLzxhtvEBwczPPPP39VbJQtXJuMRuOA5SP9t4fr078clynr4uIyYDmR8C99+6n2X/5E7zr9/nNCnJyc5M3hu7u7MRqN2Nvb4+rqes1vGj9UrFarvInBxRwcHAZsRm+1Wunp6Rlw/GLfpcxwcsWCbW5uLi+99BLu7u5y8unGxkY8PT1ZtWoVY8eO5aOPPuL06dMsWrSImJgYNm/eLC+kdnZ25s9//jNOTk489thjNguiLRYL27Ztkzffvuuuu2yCqcVi4cyZM7z11luMGTOG3/zmNyLYCldcTU0NNTU1REdHEx0dLR/PzMykpqZmQAanqKgopk+fbhMgurq6OHTo0KCZ1VauXDnoOtJrjdlspqmpSU6gcKmcyDqdTh4y0mg0SJJEaGgoI0aMkF8npVJJbm6uTWa5xMRERo0ahYeHh/w702g02NvbExoaSkJCwnW3RvRSVCqVnDLT0dERPz8/wsPDBwRAk8lEWVkZhYWFNscBYmNjmTZtGlarFZVKRVNTE52dndjb2xMdHU1ISIhcn9lspqOjA71ej9lspqWlhcjISCIiIgbcc7i5YsH21KlTnD9/3mbjYYDp06czffp03N3dUavVfPvtt5w/fx5vb28mTZrErFmzCA4Opra2li+++AJXV1fuuOMOm3RpGo2GjIwM8vLyCA0NZe7cuTbLfLRaLSdOnCA3N5fQ0FBmz55NQkKCfF4QhlJNTQ1Go5FPP/2UV199lcrKSpscvFOnTsXBwcGmFZuRkcHLL7/Mr371K5sPkYyMDB566CGCgoLkIGw0GikoKKCurg5/f3+57LWovr6ehoYGtm3bxuHDh3n33XeZPXt2/2IAnD59mg8++AB/f3+CgoI4c+YMQUFB/OxnP2PcuHHY29vz2Wef8f7776NSqeTX+ZlnnuHmm2/G1dWVl19+mfLycsaNG4daraa8vJy1a9eSmppqk0zjeqRWq9m5cyfffvut/PARGhrKHXfcwdixY23et01NTXz66afs3LlTnptjNpvp7Ozk5ptv5tVXX6WxsZGdO3dy4sQJXF1d8fT0JDIykpUrVxIfH49OpyMvL4/z58/j5OSEi4sLmZmZREdH8/DDD+Pr6yvfbzi6YsFWEK5HkiTx6aefolAoUCgUvPnmmwOC7WuvvcbatWsJCwvDzs6O2tpaJkyYwP79+5k2bZpNyzYvL4/c3Fx+/OMfyx/2J0+e5MUXX2Tz5s3XfIvryy+/lLMVZWdn8957710y2B46dAi9Xs+sWbMICgrim2++4ZlnnuHBBx/kJz/5CT4+PrzxxhsYDAZmzZolP6hER0fLH9zffPMNiYmJcorXRx99lODgYB566CHCw8Nt7ne9OXjwIO+++y4LFizgV7/6FUVFRbz55ps4Ojryxz/+kZCQELlsW1sbDQ0NBAQEyA2lqqoq0tPTGTlyJKmpqezcuZO///3v3HXXXaxfv57i4mI2bdokZxHMy8vjzTffJCYmhhdeeAF6V50oFIqrYqu+gQMYgiB8b+zs7Ljvvvt46qmnmDBhwqBjqr/97W8JDw+Xz73xxhuMGTOGlJSUAWOM48ePZ926dXKgNZlMvPfee/z0pz+9qtIt/l/dfffdPPXUU6Smpl4ydWCfxYsXc+uttxIUFAS9iXU8PT1RKBRyD1tjYyPh4eHExcURGRlJYmKiTb233nqrHGj1ej2dnZ2XXKJ4PbFarVy4cIH29nY5x8GYMWOYOHEiCoWC9vZ2m/KBgYGkpKTIgdZqtVJaWkp9fT2jRo2iq6uLwsJC3NzcWLhwoXyNnZ0dBw8epLOzE6VSSWdnJ+PHj8doNNLa2oqnpyfJyck29xquRLAVhGHEZDLx7bff8pOf/GTQ9KT9FRQU0NjYSGpq6rAfs/qh1dTUYDAYGDNmjLzhgEajobS0lIMHD7J161Z2795NQ0ODzYSpvkBw8OBB/P39WbZs2XXfqtXpdGg0Gjw8PGx6U/q6iP/d7mrt7e2Ulpbi4OBAZGQkSqWSyspK3Nzc5DF4T09PAgMD5Z2pFAoFVVVVdHR0cOrUKf75z3+ybds2CgoKBp14NdyIYCsIw8jZs2fp6Ojgnnvu+U7B9pNPPrluJkb9N3Q6HRkZGYSFhZGYmCiPj//4xz9mxowZeHh4UFBQwCuvvMI333xDV1eXfG1ZWRkffvghn3zyCUlJScTExAyYvXy9sVgslwxwer3e5vXrz2q1kp+fj0KhkPe0NZvNA+bz9AVeo9FIc3MzXV1dWK1Wufv5zJkzvPTSS7z33ns0NjbaXDsciWArCMOEyWTi9ddfZ+LEiQO6jwfT0NDAli1bWLx4sWjVXoZOp+PgwYO0t7fz+OOPM2HCBPncokWLWLlyJXfffTdvv/02qamp5OTk2Hx4JyQk8Lvf/Y5HHnmEvLw8Dh48eMk9i68XJpMJg8HQ/zBcYinPxdrb2zl27BidnZ1y9r+LW7R9rFYrFotFXnLl5OSEn58fy5cv5/nnn+fPf/4zixYt4uzZsxQVFdlcOxz9+79oQRCuiLy8PNLS0njiiSe+U6v2r3/9K/Hx8YSHh3+n4Hw90ul0pKWl8cknn5CamsqsWbMu2wvQN6nn4labr68vYWFhLFu2jNGjR3P27Flqa2svuur64+3tTVBQkM37tK+718vLy2ZyVH9lZWXy1nt9HBwccHR0tFmLazAY0Gg0+Pn5ERERIU9g6wvykZGRzJ49G41GI1q2giB8dx999BFjxoxh+fLlNokTOjs7aW5utlmHazKZOHToEHffffdlg8f1pr29nc7OTvlDOz09nZ07d3L33Xdz++234+TkRHNzMwaDge7ubjo6OuQJT93d3ZSUlODi4oKnpyfd3d2YTCa5y1itVlNQUEBRUREajabfna8vHh4exMbG4uXlRVtbGxaLhba2NiorK/Hy8iImJgaDwYBSqUStVsvXmc1mysrKcHBwYPny5fJxHx8fRowYgV6vp7m5GXrH000mE4mJifj6+uLr64u7uzulpaXy766yshIfHx8iIyPluoYrEWwF4QowGo0olUroTaTQf8VdfX09n376KXffffeADEXbt2/ntddeo7OzU74uKysLf39/1q1bd90FW51OR1tbGzqdjo6ODsxmM/S+xl9++SW7d+9GpVKRk5PDm2++SUREBMHBwRQUFLBt2zY2b95MU1MTSqWSnTt3kp6eTmlpKbm5uXR3dzNp0iSCg4NpbW3l/Pnz5Ofnk5WVxWeffUZFRQVTpkyxWed/vRo3bhxBQUHs3buX06dPc+zYMdRqNdOnT8fb25vi4mI+/PBDMjIy5GsaGhqoqqpizJgxNju1BQQEMHPmTAICAjh37hxFRUXs2bOHiooKUlNTobc7f+7cuVRXV3Pq1CkOHjxIZmYmM2fOZNq0aXJdw5XDc88991z/g4IgfL9aW1vZvXs3jo6OjBgxgkmTJtksA9q+fTtKpZJnnnlG3ue5zwcffEBGRgaLFy8mKCgIOzs7Nm/ezNSpU5k0adJ36nK+ltTW1pKWlkZnZycjRowgISEBd3d3Wlpa2LhxIyaTiZSUFHbs2EFlZSVlZWWkpaVx6NAhzp8/z5w5c5g0aRIajYbDhw9z9uxZqqurqa2tZfHixSxbtgxfX1/a2to4fPgw2dnZ7Nixg9OnTzN37lwefvhhsTd2757kgYGBVFdXc+LECRoaGrjtttu44447ADh//jzbt28nNDSUqVOnQu+McKVSyaxZswa0RsPCwvD19eX8+fNkZ2dTXV3NihUr5O1R+5KTlJWVcerUKUpKSpg9ezb3338/YWFhNnUNRyKphSAMcxqNhrq6OpKSksTY7L9RVVVFYGDgNZ/c42rQ2dmJSqXC399/wOSn65EItoIgCIIwxMRjsiAIgiAMMRFsBUEQBGGIiWArCIIgCENMBFtBEARBGGIi2AqCIAjCEBPBVhAEQRCGmAi2giAIgjDE/uN1tpIkDUg1JwiCIAjC/9c/Ac1/HGy7urqoqam57hNxC4IgCEJ/bm5uxMfHD8ia9R8H25KSEt58803Onz/f/5QgCIIgXNfi4uJ46aWXBuTP/o+DrSAIgiAI/xkxQUoQBEEQhpgItoIgCIIwxESwFQRBEIQhJoKtIAiCIAwxEWwF4Qozm81otdr+h783Op1OrIUXhGHmug22VqsVq9Xa//Cw0tPTg8Vi6X/YxncpI/zfmM3m/of+a1qtlpycHI4dO/a9B0SdTkdDQwO7du3CZDLZnOvu7v7e7ycIwnd3xZb+WCwWDAYDWq0Wd3d3vLy8BmTYuJjVasVgMGA2m3F0dMTNzQ0nJyebMmazGYPBgNVqxdnZGTc3NxwcHGzK9KdSqWhpacHOzo6QkBD8/Pz6FwGgvb0dnU5HYGAg7u7u/U/b6O7uRqVSodPp8PX1xc/PD5PJREdHB46OjgQFBfW/5LIsFgutra0oFAp8fX2Jjo7uX4Senh7UajUtLS24uLgQExPTv8j/idVqRa/X093dLR+zt7fHxcUFNzc3m7IXs1qtaDQaTCYTISEh8nGLxUJXVxc9PT24u7vj7Ow84PfY3d1NW1sbgYGBA871Z7FYUCgU+Pn5yb8XSZIwGo20tbUB4OLigp+f3yXrkiQJnU6H2WzGzs4OT09PuWxPTw9VVVXo9Xp8fX2JjIzsf/l/5fz583z11Vd4eXnxP//zP/LfgFarlYO7s7Mznp6e0Pt+lSQJZ2dnPDw8sLOzs6nvYrm5uezYsYPNmzdz8uRJAgIC5HP5+fmEhoYSEBBw2b87QRCGhsNzzz33XP+DQ0GtVlNYWMi3335Lc3MzYWFh8gfKYDQaDadOneLQoUOUlJTg7u5OYGCgzQdFYWEhu3fv5ty5c0iSRFBQEC4uLjb19Ld3714ee+wx2traWLhwIW5ubhiNRrq7u20+nLds2cLmzZuJjY21CR6DaW9vZ/Pmzbz//vs4ODgwYcIEamtr2bhxI1VVVUybNq3/JZelUqn44IMPeOWVV4iPj2fMmDH9i2A0Gjl06BDvvPMOvr6+JCcn9y/yf6JWq8nIyGD//v00NDRQW1tLbm4uSqWSyMjIQQOYJEkolUp27dpFUVERkydPRpIktFothYWFHDt2jKysLJRKJU5OTgQGBkJv4GxpaSEnJ4d3332XlJQUfH19+1cvs1qtlJSU8MorrxASEkJkZCSSJKHRaDhw4AAffvghubm5FBYW4uHhQXBw8KAPXxaLhezsbHbu3ElhYSGxsbHye1Gn0/Hoo4/yP//zPzzyyCMDssD8t8LDw3FxcaG2tpb58+fLwTMrK4tvvvmGrKwsPDw8CA8Px87OjrfffpvS0lKcnJwICwu7bKAMDQ0lLi6OrVu3sm7dOpuHxP3795OTk8PIkSPx9PS8bNAWBOH7d+m/3O+Zr68vs2bNIjU1lbKyMgoLC/sXseHj44NarWb//v385S9/YdeuXajVavm81Wrl1KlTvPbaa2zatAmdToeXl5dNHYOZPHmyTfCzWq2cPXuW06dP25SbMGECK1euHLRV2V9wcDBJSUk2H8yhoaEsXLiQcePG2ZT9LgICAkhOTr5kq5velGD+/v79D//XnJ2daWtr4+OPP8bV1ZWkpCTy8vJ45plnyM3N7V8cAL1eT1ZWFvX19Tz00EPysQMHDvCHP/yBESNGEBkZyT/+8Q927doFFwXod999l0cffZRDhw6hVCr71fz/9fT00NDQwJtvvklOTg4KhQIAk8nEgQMHeOSRR4iPj+fWW29FrVbz7LPPUlVV1b8aAJycnBg1ahQff/wx27ZtIzQ0VD7n4uLCfffdZ1P+P2E0Gi/5dTlRUVF8+OGHfPzxx6SkpGBvb091dTVvv/02jY2NTJw4EYvFMqDOvq9/10F177330trayldffYVer+9/WhCEIXbFgq1KpaK5uRkXFxc8PDz6nx6Ut7c3Y8eOJSIigtbWVrmbEEChUNDV1WXT0jKbzSgUChoaGtDpdFitVlQqFVVVVTbX9unrMvzkk0/YvHkzpaWl1NfXo1arCQ8PZ/To0djb29Pd3U1rayv19fU0NjZSWlpKSUkJSqVy0HHfvnHUiIgIm1apwWCgvr6e0tJSysvLUSgU8vUWiwWlUkl5eTk1NTW0tbUNWvdgDAYD1dXVFBYWUlNTg1arRafTUVlZKX9PbyCora2lrq7ukuO8BoMBhUJBYGAgCxcuZPTo0cyaNQu9Xk9tbW3/4gAolUoKCwt55JFH5GPt7e0cP36clJQUbrjhBubNm8eCBQs4deoU9P57u7u7WbRoEYsXL76otoEkSaKjo4MdO3YMeEhrb2/ntddeY+LEiTz99NPMmzePX/ziF+Tm5nLmzBmbshdzcHAgIiKClJSU/qds9PT0UF9fT1lZGa2trXKLvaqqiqqqKqqrq2loaKC6uhqtVktRURGFhYU2X0VFRZcM/H36WrJhYWHY2dmhVCp55JFHuPfee3n++edxdnamvLx80PrLysro6enpX+UAK1eu5OjRo6jV6n8bnAVB+H5dsWC7adMmXn/9dUpLS7Fard/pw4HegBsXF0dNTQ15eXlyAMrKyqK7u9sm/6RSqeS9997jmWee4fz58+j1evbu3csDDzzAxo0bL6r1X/R6Pdu2bePbb7/l8OHDPP744/z973/n3LlzfPLJJzz11FOcOnWK9vZ2NmzYwJNPPslf/vIXfv7zn3PHHXfwxhtvDBqADAYDR48e5Ze//CWffPKJfOz48eM8++yzPP744zz66KP85S9/obGxkZ6eHioqKnj99dd55JFHeP3119m3b59NS/5yKioqePbZZ1m5ciUPP/wwe/bsIS8vj4cffpj169eTmZkJQFlZGb/97W958cUX6erq6l8N9L4mjY2N2Nvb4+DggFarpb29ncDAwEEDU18LNTs722Zsuru7m7q6Os6dO0d+fj6dnZ10dnYyatQo6G1dRkVFkZKS8m/HtI1GI0ePHmXjxo38/ve/tzlnNpuprKwkKSlJPubg4ICfnx8XLlywKft/YTQa+e1vf8s999zDN998g9VqZevWrTz++OO8+OKL/OIXv+B3v/sdzz//PMXFxSgUigFfLS0tuLq6ynVePB4+GJ1Ox1//+ldGjBjBH//4R5ydnaH3d9O/boVCgdls/k7Bc8KECRiNRurq6r7zg5wgCN+PKxZsq6qqkCQJHx8f9Hr9gNmSlzN16lTs7e05e/YsKpUKq9VKUVERwcHBTJo0SS43cuRIuX4ALy8vIiIisLe3H3SXIk9PT+666y5uv/127rzzTvbv38/LL7/MokWL8PX1lQNSaGgoTk5ONDY2snz5cj777DPuuece0tLS2Lp164APLg8PD/z9/TEajXIdOTk5fPzxx8TFxbF3715+8YtfUFVVxZkzZ+js7GTr1q2cOnWKp59+mr/97W/cc889l+1Gvlh8fDzPP/88r7zyCk5OTnz44Yd4eHiwfPlyOjo65NfawcGBmJgYli5dajN55mJqtZry8nLs7e1RKpXs3r2btLQ05s6dy+jRo/sXl5exhIWF2RyPiIjg17/+NT09Pbzwwgvs378fZ2dn7rrrLpty/47VaqW0tJTPP/+cJ598ckC3vJOTE9HR0fKkJpPJJL/m/y6o/Ts9PT3U1tZisVhYv34969evR6vV8vzzz7Ns2TI++OADpk2bRlNTEy+99BJTp05l+fLl3HjjjQO+YmNj5XqbmppwcnK65M+3bds2Lly4wN///nebOQjTpk0btP4pU6bg6OgIvf9mb2/vS/ZczJw5E6VSecnzgiAMjSsWbFesWEFQUBBqtZqJEycSFRXVv8glJScnM3PmTFpbW6mtrZXH6wYLRt7e3jYTr7y9vb/TWO534enpibe3NyEhIaxatYrx48dTUFBAe3t7/6K4u7vbjOFWV1ejVCqJi4ujrq4OpVKJwWCgubmZyspK8vLymDFjBosWLbKp57twc3MjLi6OhQsXMn/+fDQaDW1tbUyaNAk3Nzeys7Mxm800NjZSXl4+IGBdzGq14uDgQE9PD48//jhvv/02zz77LH/+85/7F4XegGRnZydPeurj6OjIqFGjePDBB+ns7GTDhg24u7vbtPD+HUmSaGlpYcOGDSQmJrJ69WrMZrMcpPoCyx133EFjYyP79+8nKyuLtLQ0rFYrHR0d/av8zvoC7S9/+UvWrFnDgw8+iCRJtLa20tHRQWpqKgCBgYEYDAbCw8P7V3FJvr6+jBkzZtChDYDnn38eJycnudv6P6FWq1mzZg16vX7Q3qMJEybQ0dEx4AFREIShdcWC7fz583n66ae54447WL16NWPHju1f5LISExNRqVQUFBRw9uzZAV3IF+vp6Rn0g+b7FBMTw5gxY9DpdJfskr2YTqejvb2d0tJS9uzZg9FoZPny5YwbN4729nZqa2sHnTn7n/Dz8yM5ORlvb2/obV0mJSWRnp5ObW0tzc3NjBgxgsTExP6Xyjo7O2lra+O+++7j4YcfxsHBgc7Ozv7FZN3d3YOeb29v5+OPP2bv3r3s2bOHZ555hgMHDrB9+/bv3KoyGo2cO3eOrKwsVqxYwalTpzh37hxKpZL6+nrKy8vx9vbmiSee4M9//jN79+4lLS2N6OhoJEli5MiR/av8zsxmM9u2bcNqtcqtUjs7O0aOHElKSgr79u2jvLycxsZG1q5d2//yy7r11lu57bbbGDFiRP9TALz55pucOXOGV155ZdDX9nImTpzIQw89RExMzKAzl7vFeltB+EEM/GscpiZOnIi3tzf5+fmcPHmSkJAQmy7ki6nV6kG7jS/H+h8muWhvb6e1tRVXV1d5TO1y7O3tiYyMZPXq1Tz22GPyV2pqKvb29ri5ueHq6vof/Qz99fT0oNVqUavVuLi4MGLECObPn4+9vT1lZWWUl5czf/78/pfJpN71p3q9nri4OEaNGkVYWBhfffXVJWfTurq6DuhCprcl//7777No0SI8PDyYN28e06dP58svv7zsrGN6fw6r1YpWqyUjIwNPT09eeuklXnrpJT788ENcXV356KOPyM7Oht4Z1HPnzuWjjz7i97//PaNGjaK9vZ2EhIT+VX9nzs7O3HLLLXR2dvLPf/5Tbk07Ozvzxz/+kffff5/HHnsMBwcHbr/99v6X/1duvvlm1q9fz/79+/nmm2++88PJd9HS0oK9vT12dnZD/kAqCML/N+yDbd9kqr6ZoxUVFTQ2Ng7ahUzvGF5fF2JHRwdqtZru7u5/G0w7OjpQKpVy2cu1jk0mE1lZWVRVVTFp0iS5S7ynp8fmHj09PZjNZqxWK35+flgsFjIzM1EqlXR2dqJWqzGZTPj6+srdvUVFRbS3t8vdgJf7mS/W3d1NY2MjdXV1REdHk5SUhKurK6NGjSIoKIgdO3agVCov24Ws0+lobGzE29ubUaNGERkZyeLFizl58uQlZ/Y6OzsTEBAwICC4ubkRHx+Ps7MzWq2Wnp4exo0bh5OTkzy+OJienh7a29s5f/48zs7OvPHGGxw8eFD++uSTT/D29ubZZ59l7dq1WK1WGhoaKC8vx2w209XVRUFBAaGhoaxYsaJ/9d+Zvb09UVFR3HXXXWzdupXMzEy6u7uxs7PDz8+P8PBwXnvtNX76059C7+Sl79Njjz1GZGQkzz77LLW1td9ba9RgMBASEkJPTw8FBQW0trZe8n0uCML3Z9gGW6vVislkQqlUolKp6OnpYeLEieh0Orq7u4mNjcVoNNLT04O9vT3G3sQUCQkJODk5sXnzZj788EPS09PlTFSdnZ3o9Xo5U093byILHx8f2tvbOXfuHNXV1bS3t9PZ2SkHiT59P8/p06fZu3cvwcHBLF68WF7/qFaraWtrw2g0YjKZ0Gg0KJVK2tvbGT16NCNHjuS9997jlVdeYdOmTRw6dIimpiZiY2O56aab6Ozs5E9/+hMbNmygpKQEV1fXy36IOzg44OLigl6vJzs7mw0bNlBaWsq9994rr8Hte0gpKCjA1dX1sl3I7e3tXLhwAUdHR3Q6Ha6urowcORKtVsv27dsv2brt7u6mo6PDJuAGBweTmprKiRMnOHToEJ9++inbt29n+vTpBAcHQ28L1mw2YzabcXZ2xmAwoNfr2blzJ6tWrWLfvn0X3eVfgbivm7u6uhqDwUBXVxd/+9vf2LVrF2fPnmXv3r1s3ryZ++67z2b97KX0T9Ih9SbJcHV1xWQy8fOf/5zHH3+cxx57jJKSEoxGI6dPn6arq4sPPviA5557jqeeeort27fb1POf6lvG5uTkhF6vl4M5wB/+8Aeampq+l4B7/vx5HBwcUCgU3HLLLXz00UeXfY8JgvD9uGIZpP5TGo2Gs2fPUl1dTXR0NDExMXI3a9+6zdLSUqqrq+WlHn1jlFFRUUiShFqtJiEhgblz5zJy5EhCQkIoKCigtLSUqKgoIiMjiY2NJSAgQA6kISEhODg4UFZWhqurKwkJCSQkJHD69GmOHDlCa2srNTU1TJw4kbVr1zJq1ChaW1vlRAvBwcEEBARQV1dHQ0MDycnJJCYmkpiYyPjx43F2dkahUODg4EBiYiKTJk3C3d2d2NhYOehHRUUxbdo0kpOTSUhIuOTkm+7uboxGIwqFguPHjxMSEsLKlStZuHChXMbLywu9Xs+ZM2e46667Bp1R3KehoYFjx44RGRmJp6cnycnJeHl5yQEpMjJy0GU6Op2O6upqwsPD5VnOnp6eTJo0CV9fX0pKSjCbzfzoRz/iZz/7mXydxWKhpqaGnJwcwsPD8ff3Jzk5mfb2dhoaGliyZIlNUhGdTkdGRgZ2dnZ0d3cTFRXFyJEjiY2NpaKigoMHDwJw3333sWrVKvm6wRiNRrZt28b48eOZPXu2fNxsNrNlyxZ5PHXatGmkpKSQk5NDT08Pzs7OnDt3jrlz5xISEkJQUBAXLlzgH//4x4BlSf+JAwcOoNVqGTVqFAEBAYSHhzNixAg8PDxQKBSoVComT578X43rd3R08Pnnn/PYY4/h6upKTk4OM2bMIDk5ecBDhyAI368rlhv5avfGG29w4MABnn/+eWbOnNn/9LDTt+zI0dGRzMxMdu7cycsvv3zJJT//Da1Wy4kTJ6ioqGDt2rWXTbn4Q+tbZ+ri4sL999/PypUrbR4ALsdsNvPKK69QXFzMO++8Iy/f+dOf/kRubi7p6en9Lxk21Go1b731Ft7e3qxfv/47J5YRBOH7MWy7kYcTk8kkd3kqlUq5G3o4Ky0t5eWXX+b999+nqamJW265ZUgCLb2t2KSkJBQKBbt37+5/etiw9q7ZXbZsGXv37sXV1ZVZs2b1L3ZJ9vb2JCYmcvbsWd59912+/vprvvnmGwoKCnj99df7Fx9W9u3bR11dHffee68ItILwAxAt2++gvLycw4cPU1dXR3x8PIsXL/7ed4P5vjU1NbF//35aW1uZN2/eFWmNa7Va6urqBt04YbjQ6/V8+umnREREMGXKlEFnUl+OtTeX9vnz5+WlQNOmTbtkV/9wsW/fPhYuXPgfrXMWBOH7I4KtIAiCIAwx0Y0sCIIgCENMBFtBEARBGGIi2AqCIAjCEBPBVhAEQRCGmAi2giAIgjDE/h824PNsJorHywAAAABJRU5ErkJggg==;" vertex="1" parent="yAmNTWqrZYA3S9iadCmw-25">
          <mxGeometry y="60" width="470" height="548.17" as="geometry" />
        </mxCell>
        <mxCell id="yAmNTWqrZYA3S9iadCmw-16" value="Valores esperados de &quot;a&quot; e &quot;b&quot;" style="rounded=0;whiteSpace=wrap;html=1;" vertex="1" parent="yAmNTWqrZYA3S9iadCmw-25">
          <mxGeometry width="470" height="60" as="geometry" />
        </mxCell>
      </root>
    </mxGraphModel>
  </diagram>
</mxfile>
